<svg width="41" height="28" viewBox="0 0 41 28" fill="none" xmlns="http://www.w3.org/2000/svg">
<path d="M11.9067 17.795V17.7958C11.9177 18.187 11.9213 18.5805 11.9891 18.9693C12.0613 19.3806 12.1645 19.7817 12.3614 20.155C12.6276 20.6603 12.9921 21.0871 13.4548 21.4356C13.7861 21.6858 14.148 21.8845 14.5487 22.0099C15.1329 22.1924 15.7357 22.2623 16.3472 22.2657C16.7288 22.2681 17.1101 22.2773 17.4918 22.2758C20.2636 22.2645 23.0356 22.2951 25.8076 22.2592C26.1753 22.2544 26.5372 22.2109 26.8982 22.147C27.5901 22.0243 28.2016 21.7381 28.7248 21.2863C29.3345 20.7597 29.7459 20.115 29.9316 19.3371C30.0531 18.8286 30.0835 18.3127 30.0887 17.7949V17.6917C30.0887 17.6516 30.073 8.89494 30.0715 8.77919C30.0675 8.46127 30.0433 8.14568 29.9818 7.83284C29.9069 7.45162 29.8011 7.08013 29.6127 6.73528C29.4136 6.37084 29.1643 6.04326 28.8557 5.75692C28.3834 5.31825 27.8383 5.00809 27.2035 4.84399C26.6303 4.69595 26.0456 4.66296 25.4566 4.66353C25.4547 4.66096 25.4535 4.65793 25.4533 4.65479H16.5389C16.5389 4.65775 16.5389 4.66064 16.5384 4.66353C16.204 4.66945 15.8693 4.66698 15.5367 4.70695C15.1724 4.75079 14.8116 4.81685 14.4668 4.94021C13.9236 5.13476 13.4517 5.43781 13.0486 5.8425C12.5919 6.3007 12.2698 6.83094 12.0992 7.44823C11.9467 7.99899 11.9135 8.56066 11.9127 9.12636" fill="white"/>
<path d="M21.8841 27.6389L13.6767 27.4891C11.0194 27.4368 8.3554 27.5411 5.75014 27C1.78695 26.1917 1.50618 22.2283 1.21239 18.9037C0.807573 14.2297 0.964289 9.47092 1.72823 4.83598C2.1595 2.23529 3.85672 0.683446 6.48142 0.514576C15.3417 -0.0982806 24.2609 -0.0256507 33.1015 0.260269C34.0352 0.28648 34.9753 0.42974 35.896 0.592808C40.4405 1.38814 40.5514 5.87962 40.8459 9.6606C41.1397 13.4806 41.0157 17.3202 40.4542 21.1142C40.0037 24.2555 39.1417 26.8898 35.5042 27.1441C30.9466 27.4767 26.4936 27.7444 21.9232 27.6591C21.9234 27.6389 21.8971 27.6389 21.8841 27.6389ZM17.059 19.686C20.4935 17.7172 23.8625 15.7812 27.2774 13.8255C23.8364 11.8567 20.4738 9.92071 17.059 7.96509V19.686Z" fill="#FF0000"/>
</svg>
