<svg width="24" height="24" viewBox="0 0 24 24" fill="none" xmlns="http://www.w3.org/2000/svg">
<g clip-path="url(#clip0_3181_27359)">
<path d="M23.5 12C23.5 18.3513 18.3513 23.5 12 23.5C5.64873 23.5 0.5 18.3513 0.5 12C0.5 5.64873 5.64873 0.5 12 0.5C18.3513 0.5 23.5 5.64873 23.5 12Z" fill="#5365ED" stroke="white"/>
<g clip-path="url(#clip1_3181_27359)">
<path d="M16.4816 8.33691C17.9435 10.4863 18.6655 12.9108 18.3956 15.7019C18.3944 15.7137 18.3883 15.7246 18.3786 15.7317C17.2715 16.5446 16.1989 17.038 15.1413 17.3651C15.1331 17.3676 15.1243 17.3675 15.1161 17.3647C15.108 17.362 15.1009 17.3567 15.0959 17.3497C14.8515 17.0098 14.6295 16.6514 14.4351 16.275C14.4239 16.2529 14.4341 16.2262 14.4571 16.2174C14.8096 16.0846 15.1449 15.9254 15.4674 15.7369C15.4928 15.722 15.4944 15.6856 15.4709 15.6681C15.4025 15.6173 15.3347 15.5639 15.2698 15.5105C15.2577 15.5006 15.2413 15.4987 15.2276 15.5053C13.134 16.4721 10.8405 16.4721 8.72219 15.5053C8.70843 15.4992 8.69209 15.5013 8.68028 15.511C8.61556 15.5644 8.5476 15.6173 8.4798 15.6681C8.45634 15.6856 8.45828 15.722 8.48385 15.7369C8.80633 15.9218 9.14159 16.0846 9.49368 16.2181C9.51649 16.2268 9.52733 16.2529 9.51601 16.275C9.32572 16.6519 9.10373 17.0103 8.85487 17.3502C8.84403 17.364 8.82623 17.3703 8.8094 17.3651C7.75686 17.038 6.68425 16.5446 5.57717 15.7317C5.56795 15.7246 5.56132 15.7133 5.56035 15.7014C5.33479 13.2872 5.79448 10.8426 7.47256 8.33643C7.47661 8.32979 7.48276 8.32461 7.48988 8.32154C8.31557 7.94259 9.20016 7.6638 10.1247 7.50459C10.1415 7.502 10.1584 7.50977 10.1671 7.52465C10.2813 7.72691 10.4119 7.98628 10.5003 8.19824C11.4748 8.04938 12.4646 8.04938 13.4595 8.19824C13.5479 7.99081 13.6739 7.72691 13.7877 7.52465C13.7917 7.51727 13.798 7.51135 13.8056 7.50775C13.8132 7.50414 13.8218 7.50304 13.8301 7.50459C14.7551 7.66429 15.6397 7.94308 16.4647 8.32154C16.472 8.32461 16.478 8.32979 16.4816 8.33691ZM10.9957 12.9273C11.0059 12.2136 10.4855 11.623 9.83234 11.623C9.18447 11.623 8.66912 12.2084 8.66912 12.9273C8.66912 13.646 9.19466 14.2315 9.83234 14.2315C10.4804 14.2315 10.9957 13.646 10.9957 12.9273ZM15.2968 12.9273C15.307 12.2136 14.7867 11.623 14.1336 11.623C13.4856 11.623 12.9702 12.2084 12.9702 12.9273C12.9702 13.646 13.4958 14.2315 14.1336 14.2315C14.7867 14.2315 15.2968 13.646 15.2968 12.9273Z" fill="white"/>
</g>
</g>
<defs>
<clipPath id="clip0_3181_27359">
<rect width="24" height="24" fill="white"/>
</clipPath>
<clipPath id="clip1_3181_27359">
<rect width="13.5" height="9.8712" fill="white" transform="translate(5.25 7.5)"/>
</clipPath>
</defs>
</svg>
