<svg width="18" height="20" viewBox="0 0 18 20" fill="none" xmlns="http://www.w3.org/2000/svg">
<path fill-rule="evenodd" clip-rule="evenodd" d="M14.3903 6.87997V5.29997C14.3903 2.37999 11.9719 0 9.01494 0H8.98445C6.02749 0 3.60908 2.36099 3.59892 5.29997V6.87997C4.0765 6.72097 4.58457 6.62997 5.11296 6.62997H5.12313V5.27997C5.13329 3.19098 6.86072 1.49999 8.99461 1.49999H9.00478C11.1387 1.49999 12.8661 3.20998 12.8661 5.29997V6.62997H12.8763C13.3861 6.62997 13.8865 6.7147 14.341 6.8635C13.8866 6.71476 13.3863 6.63007 12.8766 6.63007H5.11327C4.58488 6.63007 4.07681 6.72107 3.59922 6.88007C1.80066 7.50006 0.5 9.18105 0.5 11.17V15.46C0.5 17.96 2.57292 20 5.11327 20H12.8766C15.4271 20 17.5 17.96 17.5 15.46V11.17C17.5 9.18105 16.1993 7.50006 14.3906 6.88007C14.3905 6.88003 14.3904 6.88 14.3903 6.87997ZM9.88912 14.42C9.88912 14.91 9.49283 15.3 8.99492 15.3C8.50717 15.3 8.11088 14.91 8.11088 14.42V12.2C8.11088 11.721 8.50717 11.33 8.99492 11.33C9.49283 11.33 9.88912 11.721 9.88912 12.2V14.42Z" fill="white"/>
</svg>
