<svg width="16" height="16" viewBox="0 0 16 16" fill="none" xmlns="http://www.w3.org/2000/svg">
<path d="M10.6668 3.86866V2.78078C10.6668 2.68649 10.5806 2.63442 10.5223 2.69212L5.47133 7.64736C5.42841 7.68928 5.39369 7.74295 5.3698 7.80429C5.34591 7.86563 5.3335 7.93302 5.3335 8.0013C5.3335 8.06959 5.34591 8.13697 5.3698 8.19831C5.39369 8.25965 5.42841 8.31333 5.47133 8.35525L10.5223 13.3105C10.5817 13.3682 10.6668 13.3161 10.6668 13.2218V12.1339C10.6668 12.065 10.6411 11.9988 10.5985 11.9566L6.56488 8.00201L10.5985 4.04598C10.6411 4.00376 10.6668 3.93761 10.6668 3.86866Z" fill="#656881"/>
</svg>
