<svg width="24" height="24" viewBox="0 0 24 24" fill="none" xmlns="http://www.w3.org/2000/svg">
<circle cx="12" cy="12" r="11.5" fill="#E26B45" stroke="white"/>
<path d="M12.7696 11.9987L16.6387 7.51956C16.7036 7.44512 16.649 7.33203 16.5488 7.33203H15.3726C15.3033 7.33203 15.237 7.36209 15.1913 7.41363L12.0002 11.1083L8.80905 7.41363C8.76483 7.36209 8.6985 7.33203 8.62775 7.33203H7.45153C7.3513 7.33203 7.29677 7.44512 7.36162 7.51956L11.2308 11.9987L7.36162 16.4778C7.34709 16.4944 7.33777 16.5147 7.33476 16.5363C7.33176 16.5579 7.33519 16.5799 7.34466 16.5996C7.35413 16.6193 7.36923 16.636 7.38817 16.6477C7.40712 16.6594 7.42911 16.6655 7.45153 16.6654H8.62775C8.69702 16.6654 8.76335 16.6353 8.80905 16.5838L12.0002 12.8891L15.1913 16.5838C15.2355 16.6353 15.3018 16.6654 15.3726 16.6654H16.5488C16.649 16.6654 16.7036 16.5523 16.6387 16.4778L12.7696 11.9987Z" fill="white"/>
</svg>
