<svg width="16" height="16" viewBox="0 0 16 16" fill="none" xmlns="http://www.w3.org/2000/svg">
<path d="M14.2658 11.1294C13.8957 10.7507 12.294 9.4774 11.8965 9.39406C11.4544 9.30073 11.1043 9.50406 10.7949 9.68206C10.4768 9.86539 10.2027 10.0241 9.85728 9.89872C8.0868 9.17607 6.82245 7.91209 6.10225 6.14878C5.97488 5.79812 6.13292 5.52279 6.31631 5.2048C6.49436 4.89614 6.69508 4.54548 6.60372 4.10348C6.52103 3.70616 5.24801 2.10485 4.86857 1.73485C4.61784 1.49086 4.36177 1.35619 4.0997 1.33419C3.11076 1.29286 1.88909 2.71684 1.69503 3.0295C1.20957 3.69816 1.2129 4.58548 1.7037 5.66279C2.88536 8.55608 7.40261 13.0733 10.3301 14.2907C10.8696 14.5413 11.3637 14.6666 11.8072 14.6666C12.2419 14.6666 12.628 14.546 12.9601 14.3073C13.2102 14.1647 14.702 12.8993 14.6659 11.892C14.6446 11.6347 14.5099 11.3787 14.2658 11.1294" fill="white"/>
</svg>
