<svg width="16" height="16" viewBox="0 0 16 16" fill="none" xmlns="http://www.w3.org/2000/svg">
<path fill-rule="evenodd" clip-rule="evenodd" d="M11.6267 4.1576C11.6534 4.20422 11.7 4.23751 11.76 4.23751C13.36 4.23751 14.6667 5.54273 14.6667 7.14095V11.0966C14.6667 12.6948 13.36 14 11.76 14H4.24004C2.63337 14 1.33337 12.6948 1.33337 11.0966V7.14095C1.33337 5.54273 2.63337 4.23751 4.24004 4.23751C4.29337 4.23751 4.34671 4.21088 4.36671 4.1576L4.40671 4.07769C4.42969 4.02932 4.45328 3.97963 4.47723 3.92919C4.64777 3.56996 4.83646 3.17253 4.95337 2.93896C5.26004 2.33962 5.78004 2.00666 6.42671 2H9.56671C10.2134 2.00666 10.74 2.33962 11.0467 2.93896C11.1517 3.14872 11.3117 3.48661 11.4659 3.81228C11.4977 3.87948 11.5293 3.94617 11.56 4.0111L11.6267 4.1576ZM11.14 6.71476C11.14 7.04772 11.4067 7.3141 11.74 7.3141C12.0734 7.3141 12.3467 7.04772 12.3467 6.71476C12.3467 6.3818 12.0734 6.10877 11.74 6.10877C11.4067 6.10877 11.14 6.3818 11.14 6.71476ZM6.84671 7.74695C7.16004 7.43396 7.56671 7.26748 8.00004 7.26748C8.43337 7.26748 8.84004 7.43396 9.14671 7.74029C9.45337 8.04661 9.62004 8.45283 9.62004 8.88568C9.61337 9.77802 8.89337 10.5039 8.00004 10.5039C7.56671 10.5039 7.16004 10.3374 6.85337 10.0311C6.54671 9.72475 6.38004 9.31853 6.38004 8.88568V8.87902C6.37337 8.45949 6.54004 8.05327 6.84671 7.74695ZM9.84671 10.737C9.37337 11.2098 8.72004 11.5028 8.00004 11.5028C7.30004 11.5028 6.64671 11.2297 6.14671 10.737C5.65337 10.2375 5.38004 9.58491 5.38004 8.88568C5.37337 8.19312 5.64671 7.54051 6.14004 7.04107C6.64004 6.54162 7.30004 6.26859 8.00004 6.26859C8.70004 6.26859 9.36004 6.54162 9.85337 7.03441C10.3467 7.53385 10.62 8.19312 10.62 8.88568C10.6134 9.61154 10.32 10.2642 9.84671 10.737Z" fill="white"/>
</svg>
