<svg width="41" height="36" viewBox="0 0 41 36" fill="none" xmlns="http://www.w3.org/2000/svg">
<path fill-rule="evenodd" clip-rule="evenodd" d="M31.38 6.47281C31.46 6.61265 31.6 6.71254 31.78 6.71254C36.58 6.71254 40.5 10.6282 40.5 15.4229V27.2897C40.5 32.0844 36.58 36 31.78 36H9.22C4.4 36 0.5 32.0844 0.5 27.2897V15.4229C0.5 10.6282 4.4 6.71254 9.22 6.71254C9.38 6.71254 9.54 6.63263 9.6 6.47281L9.72 6.23307C9.78896 6.08794 9.85973 5.93886 9.93158 5.78753C10.4432 4.70984 11.0093 3.51758 11.36 2.81687C12.28 1.01887 13.84 0.0199778 15.78 0H25.2C27.14 0.0199778 28.72 1.01887 29.64 2.81687C29.955 3.44615 30.4349 4.45979 30.8974 5.43678C30.9929 5.63841 31.0876 5.83849 31.18 6.0333L31.38 6.47281ZM29.92 14.1443C29.92 15.1432 30.72 15.9423 31.72 15.9423C32.72 15.9423 33.54 15.1432 33.54 14.1443C33.54 13.1454 32.72 12.3263 31.72 12.3263C30.72 12.3263 29.92 13.1454 29.92 14.1443ZM17.04 17.2408C17.98 16.3019 19.2 15.8024 20.5 15.8024C21.8 15.8024 23.02 16.3019 23.94 17.2209C24.86 18.1398 25.36 19.3585 25.36 20.657C25.34 23.3341 23.18 25.5117 20.5 25.5117C19.2 25.5117 17.98 25.0122 17.06 24.0932C16.14 23.1742 15.64 21.9556 15.64 20.657V20.6371C15.62 19.3785 16.12 18.1598 17.04 17.2408ZM26.04 26.2109C24.62 27.6293 22.66 28.5083 20.5 28.5083C18.4 28.5083 16.44 27.6892 14.94 26.2109C13.46 24.7125 12.64 22.7547 12.64 20.657C12.62 18.5794 13.44 16.6215 14.92 15.1232C16.42 13.6249 18.4 12.8058 20.5 12.8058C22.6 12.8058 24.58 13.6249 26.06 15.1032C27.54 16.6016 28.36 18.5794 28.36 20.657C28.34 22.8346 27.46 24.7925 26.04 26.2109Z" fill="white"/>
</svg>
