<svg width="20" height="20" viewBox="0 0 20 20" fill="none" xmlns="http://www.w3.org/2000/svg">
<path d="M9.60658 6.33234C9.80256 6.59642 10.1979 6.59642 10.3939 6.33234L11.5681 4.75008C12.5243 3.46168 11.6046 1.63397 10.0002 1.63397C8.3958 1.63397 7.47616 3.46168 8.43233 4.75005L9.60658 6.33234ZM10.0002 3.10456C10.2709 3.10456 10.4904 3.32404 10.4904 3.59476C10.4904 3.86548 10.2709 4.08495 10.0002 4.08495C9.72949 4.08495 9.51001 3.86548 9.51001 3.59476C9.51001 3.32404 9.72949 3.10456 10.0002 3.10456Z" fill="white"/>
<path d="M17.8433 7.5817H14.9021V18.366H17.8433C18.114 18.366 18.3335 18.1465 18.3335 17.8758V8.07189C18.3335 7.80117 18.114 7.5817 17.8433 7.5817ZM16.6178 16.4052C16.3471 16.4052 16.1276 16.1857 16.1276 15.915C16.1276 15.6443 16.3471 15.4248 16.6178 15.4248C16.8885 15.4248 17.108 15.6443 17.108 15.915C17.108 16.1857 16.8885 16.4052 16.6178 16.4052ZM16.6178 14.4444C16.3471 14.4444 16.1276 14.225 16.1276 13.9542C16.1276 13.6835 16.3471 13.464 16.6178 13.464C16.8885 13.464 17.108 13.6835 17.108 13.9542C17.108 14.225 16.8885 14.4444 16.6178 14.4444ZM16.6178 12.4837C16.3471 12.4837 16.1276 12.2642 16.1276 11.9935C16.1276 11.7227 16.3471 11.5033 16.6178 11.5033C16.8885 11.5033 17.108 11.7227 17.108 11.9935C17.108 12.2642 16.8885 12.4837 16.6178 12.4837ZM16.6178 10.5229C16.3471 10.5229 16.1276 10.3034 16.1276 10.0327C16.1276 9.76196 16.3471 9.54248 16.6178 9.54248C16.8885 9.54248 17.108 9.76196 17.108 10.0327C17.108 10.3034 16.8885 10.5229 16.6178 10.5229Z" fill="white"/>
<path d="M1.66675 8.07189V17.8758C1.66675 18.1465 1.88623 18.366 2.15694 18.366H5.09812V7.5817H2.15694C1.88623 7.5817 1.66675 7.80117 1.66675 8.07189ZM3.38243 9.54248C3.65315 9.54248 3.87263 9.76196 3.87263 10.0327C3.87263 10.3034 3.65315 10.5229 3.38243 10.5229C3.11172 10.5229 2.89224 10.3034 2.89224 10.0327C2.89224 9.76196 3.11172 9.54248 3.38243 9.54248ZM3.38243 11.5033C3.65315 11.5033 3.87263 11.7227 3.87263 11.9935C3.87263 12.2642 3.65315 12.4837 3.38243 12.4837C3.11172 12.4837 2.89224 12.2642 2.89224 11.9935C2.89224 11.7227 3.11172 11.5033 3.38243 11.5033ZM3.38243 13.464C3.65315 13.464 3.87263 13.6835 3.87263 13.9542C3.87263 14.225 3.65315 14.4444 3.38243 14.4444C3.11172 14.4444 2.89224 14.225 2.89224 13.9542C2.89224 13.6835 3.11172 13.464 3.38243 13.464ZM3.38243 15.4248C3.65315 15.4248 3.87263 15.6443 3.87263 15.915C3.87263 16.1857 3.65315 16.4052 3.38243 16.4052C3.11172 16.4052 2.89224 16.1857 2.89224 15.915C2.89224 15.6443 3.11172 15.4248 3.38243 15.4248Z" fill="white"/>
<path d="M9.18335 15.7516H10.8173V18.366H9.18335V15.7516Z" fill="white"/>
<path d="M13.4316 4.96729H12.588C12.5202 5.09372 12.4428 5.21647 12.3553 5.33428L11.1811 6.91657C10.905 7.28862 10.4635 7.51075 10.0001 7.51075C9.53682 7.51075 9.09535 7.28863 8.81923 6.91653L7.64499 5.33431C7.55753 5.2165 7.48015 5.09372 7.41231 4.96729H6.56881C6.29809 4.96729 6.07861 5.18676 6.07861 5.45748V18.366H8.2028V15.2614C8.2028 14.9907 8.42227 14.7712 8.69299 14.7712H11.3074C11.5781 14.7712 11.7976 14.9907 11.7976 15.2614V18.366H13.9218V5.45748C13.9218 5.18676 13.7023 4.96729 13.4316 4.96729ZM8.0394 13.7908C7.76868 13.7908 7.5492 13.5713 7.5492 13.3006C7.5492 13.0299 7.76868 12.8104 8.0394 12.8104C8.31012 12.8104 8.52959 13.0299 8.52959 13.3006C8.52959 13.5713 8.31012 13.7908 8.0394 13.7908ZM8.0394 11.83C7.76868 11.83 7.5492 11.6106 7.5492 11.3398C7.5492 11.0691 7.76868 10.8496 8.0394 10.8496C8.31012 10.8496 8.52959 11.0691 8.52959 11.3398C8.52959 11.6106 8.31012 11.83 8.0394 11.83ZM8.0394 9.86925C7.76868 9.86925 7.5492 9.64977 7.5492 9.37905C7.5492 9.10833 7.76868 8.88885 8.0394 8.88885C8.31012 8.88885 8.52959 9.10833 8.52959 9.37905C8.52959 9.64977 8.31012 9.86925 8.0394 9.86925ZM8.0394 7.90846C7.76868 7.90846 7.5492 7.68898 7.5492 7.41827C7.5492 7.14755 7.76868 6.92807 8.0394 6.92807C8.31012 6.92807 8.52959 7.14755 8.52959 7.41827C8.52959 7.68898 8.31012 7.90846 8.0394 7.90846ZM10.0002 13.7908C9.72946 13.7908 9.50999 13.5713 9.50999 13.3006C9.50999 13.0299 9.72946 12.8104 10.0002 12.8104C10.2709 12.8104 10.4904 13.0299 10.4904 13.3006C10.4904 13.5713 10.2709 13.7908 10.0002 13.7908ZM10.0002 11.83C9.72946 11.83 9.50999 11.6106 9.50999 11.3398C9.50999 11.0691 9.72946 10.8496 10.0002 10.8496C10.2709 10.8496 10.4904 11.0691 10.4904 11.3398C10.4904 11.6106 10.2709 11.83 10.0002 11.83ZM10.0002 9.86925C9.72946 9.86925 9.50999 9.64977 9.50999 9.37905C9.50999 9.10833 9.72946 8.88885 10.0002 8.88885C10.2709 8.88885 10.4904 9.10833 10.4904 9.37905C10.4904 9.64977 10.2709 9.86925 10.0002 9.86925ZM11.961 13.7908C11.6902 13.7908 11.4708 13.5713 11.4708 13.3006C11.4708 13.0299 11.6902 12.8104 11.961 12.8104C12.2317 12.8104 12.4512 13.0299 12.4512 13.3006C12.4512 13.5713 12.2317 13.7908 11.961 13.7908ZM11.961 11.83C11.6902 11.83 11.4708 11.6106 11.4708 11.3398C11.4708 11.0691 11.6902 10.8496 11.961 10.8496C12.2317 10.8496 12.4512 11.0691 12.4512 11.3398C12.4512 11.6106 12.2317 11.83 11.961 11.83ZM11.961 9.86925C11.6902 9.86925 11.4708 9.64977 11.4708 9.37905C11.4708 9.10833 11.6902 8.88885 11.961 8.88885C12.2317 8.88885 12.4512 9.10833 12.4512 9.37905C12.4512 9.64977 12.2317 9.86925 11.961 9.86925ZM11.961 7.90846C11.6902 7.90846 11.4708 7.68898 11.4708 7.41827C11.4708 7.14755 11.6902 6.92807 11.961 6.92807C12.2317 6.92807 12.4512 7.14755 12.4512 7.41827C12.4512 7.68898 12.2317 7.90846 11.961 7.90846Z" fill="white"/>
</svg>
