<svg width="24" height="24" viewBox="0 0 24 24" fill="none" xmlns="http://www.w3.org/2000/svg">
<path d="M0 1.76041C0 0.815265 0.794438 0.0480957 1.77375 0.0480957H22.2262C23.2059 0.0480957 24 0.815265 24 1.76041V22.2401C24 23.1855 23.2059 23.9521 22.2262 23.9521H1.77375C0.794531 23.9521 0 23.1856 0 22.2403V1.76013V1.76041Z" fill="#006699"/>
<path d="M7.2933 20.0527V9.291H3.70192V20.0527H7.29367H7.2933ZM5.49836 7.82193C6.75048 7.82193 7.53002 6.99556 7.53002 5.96283C7.50658 4.90658 6.75048 4.10327 5.52217 4.10327C4.29302 4.10327 3.49023 4.90658 3.49023 5.96274C3.49023 6.99547 4.26948 7.82184 5.47483 7.82184H5.49808L5.49836 7.82193ZM9.28117 20.0527H12.8723V14.0435C12.8723 13.7223 12.8957 13.4002 12.9906 13.1708C13.2501 12.5279 13.841 11.8625 14.8333 11.8625C16.1325 11.8625 16.6525 12.8492 16.6525 14.2961V20.0527H20.2435V13.8822C20.2435 10.5769 18.472 9.0387 16.1093 9.0387C14.1721 9.0387 13.3213 10.1171 12.8486 10.8516H12.8725V9.29137H9.28136C9.32823 10.3009 9.28108 20.053 9.28108 20.053L9.28117 20.0527Z" fill="white"/>
</svg>
