<svg width="20" height="20" viewBox="0 0 20 20" fill="none" xmlns="http://www.w3.org/2000/svg">
<g clip-path="url(#clip0_2052_1648)">
<path d="M8.8647 15.6229C8.08501 16.3434 7.00661 16.5048 6.05013 16.0443C5.70435 15.8777 5.41255 15.6478 5.18411 15.3724L3.88173 18.253C3.82247 18.3841 3.88865 18.4829 3.91982 18.5193C3.95099 18.5556 4.03853 18.636 4.17704 18.5975L5.12517 18.3336C5.23322 18.3036 5.34243 18.2891 5.45013 18.2891C5.90447 18.2891 6.33208 18.5462 6.53798 18.9723L6.96618 19.8585C7.02872 19.988 7.14603 20.0009 7.19486 19.9999C7.24275 19.9993 7.36056 19.9838 7.41978 19.8527L9.49138 15.2705C9.26376 15.336 9.04822 15.4533 8.8647 15.6229Z" fill="white"/>
<path d="M16.1185 18.253L14.8161 15.3724C14.5877 15.6479 14.2959 15.8778 13.9501 16.0443C12.9936 16.5048 11.9152 16.3434 11.1355 15.6229C10.952 15.4533 10.7365 15.336 10.5088 15.2705L12.5804 19.8527C12.6396 19.9838 12.7575 19.9993 12.8053 19.9999C12.8541 20.0009 12.9714 19.988 13.034 19.8585L13.4622 18.9723C13.668 18.5462 14.0957 18.2891 14.55 18.2891C14.6577 18.2891 14.767 18.3036 14.875 18.3336L15.8231 18.5975C15.9616 18.6361 16.0492 18.5556 16.0803 18.5193C16.1116 18.4829 16.1778 18.3841 16.1185 18.253Z" fill="white"/>
<path d="M17.1413 8.11684C16.0597 7.37621 15.724 5.9057 16.3772 4.7691C16.7698 4.08586 16.5655 3.4107 16.2434 3.00668C15.9212 2.60277 15.3084 2.25336 14.555 2.48402C13.3017 2.86789 11.9426 2.21352 11.4612 0.994141C11.1718 0.261172 10.5165 0 9.99985 0C9.48317 0 8.8279 0.261172 8.53852 0.99418C8.05712 2.21359 6.69813 2.86789 5.44473 2.48406C4.69126 2.25344 4.07856 2.60277 3.75633 3.00672C3.43418 3.41074 3.22985 4.08582 3.62247 4.76914C4.27567 5.9057 3.94004 7.37625 2.8584 8.11688C2.20817 8.56215 2.09938 9.25906 2.2143 9.76281C2.32922 10.2666 2.72969 10.8472 3.50872 10.9662C4.80458 11.1642 5.74497 12.3434 5.64969 13.6509C5.59235 14.4369 6.06942 14.9565 6.53493 15.1807C7.00047 15.4049 7.70415 15.4539 8.2829 14.9191C8.76423 14.4743 9.38215 14.2518 9.99981 14.2518C10.6177 14.2518 11.2353 14.4741 11.7167 14.9191C12.2955 15.454 12.9992 15.4049 13.4647 15.1807C13.9302 14.9565 14.4073 14.4369 14.35 13.6509C14.2547 12.3435 15.1951 11.1643 16.4909 10.9662C17.27 10.8472 17.6704 10.2665 17.7854 9.76281C17.9003 9.25898 17.7915 8.56207 17.1413 8.11684ZM9.99985 13.122C7.16489 13.122 4.85848 10.8156 4.85848 7.98063C4.85848 5.14566 7.16485 2.83922 9.99985 2.83922C12.8349 2.83922 15.1412 5.14563 15.1412 7.98059C15.1412 10.8155 12.8348 13.122 9.99985 13.122Z" fill="white"/>
<path d="M10.0002 3.79785C7.69375 3.79785 5.81738 5.67426 5.81738 7.98063C5.81738 10.287 7.69371 12.1634 10.0002 12.1634C12.3066 12.1634 14.1829 10.287 14.1829 7.98063C14.1829 5.67426 12.3066 3.79785 10.0002 3.79785ZM12.1437 7.57508L9.54051 9.47645C9.45789 9.5368 9.35875 9.56871 9.25781 9.56871C9.2318 9.56871 9.20566 9.5666 9.17965 9.56231C9.05273 9.54133 8.93953 9.4702 8.86555 9.36488L8.08687 8.25621C7.93473 8.03953 7.98703 7.74059 8.20363 7.58844C8.42027 7.43629 8.71918 7.48856 8.87137 7.7052L9.36941 8.41434L11.5783 6.80098C11.7921 6.64492 12.092 6.69148 12.2481 6.90531C12.4042 7.11906 12.3575 7.41891 12.1437 7.57508Z" fill="white"/>
</g>
<defs>
<clipPath id="clip0_2052_1648">
<rect width="20" height="20" fill="white"/>
</clipPath>
</defs>
</svg>
