<svg width="20" height="20" viewBox="0 0 20 20" fill="none" xmlns="http://www.w3.org/2000/svg">
<path fill-rule="evenodd" clip-rule="evenodd" d="M8.92038 2.93247C8.36176 2.93247 7.88652 3.32066 7.75312 3.84386H12.2387C12.1053 3.32066 11.6301 2.93247 11.0715 2.93247H8.92038ZM13.506 3.84386H15.1568C16.9077 3.84386 18.3334 5.28689 18.3334 7.05903C18.3334 7.05903 18.2834 7.80924 18.2667 8.85396C18.265 8.93666 18.225 9.01767 18.1592 9.06662C17.7581 9.36282 17.3913 9.60754 17.3579 9.62442C15.9739 10.5527 14.3656 11.2058 12.6522 11.5307C12.5405 11.5527 12.4305 11.4945 12.3738 11.3949C11.8935 10.5628 10.9964 10.021 9.99591 10.021C9.00208 10.021 8.09663 10.5569 7.60222 11.3898C7.54469 11.4877 7.4363 11.5442 7.32541 11.5231C5.62623 11.1974 4.01792 10.5451 2.64224 9.63286L1.84184 9.0759C1.77514 9.03371 1.73345 8.95776 1.73345 8.87337C1.70844 8.44299 1.66675 7.05903 1.66675 7.05903C1.66675 5.28689 3.09246 3.84386 4.84334 3.84386H6.48582C6.64424 2.62024 7.66975 1.66666 8.92038 1.66666H11.0715C12.3221 1.66666 13.3476 2.62024 13.506 3.84386ZM18.0499 10.6794L18.0166 10.6962C16.3324 11.827 14.3064 12.5781 12.1803 12.8903C11.8802 12.9325 11.58 12.7384 11.4967 12.4346C11.3132 11.7426 10.7213 11.2869 10.0126 11.2869H10.0042H9.98757C9.27889 11.2869 8.68692 11.7426 8.5035 12.4346C8.42012 12.7384 8.11997 12.9325 7.81982 12.8903C5.69376 12.5781 3.66775 11.827 1.98357 10.6962C1.97524 10.6878 1.89186 10.6372 1.82516 10.6794C1.75012 10.7215 1.75012 10.8228 1.75012 10.8228L1.80849 15.1266C1.80849 16.8987 3.22586 18.3333 4.97674 18.3333H15.0151C16.766 18.3333 18.1833 16.8987 18.1833 15.1266L18.25 10.8228C18.25 10.8228 18.25 10.7215 18.175 10.6794C18.1333 10.654 18.0833 10.6625 18.0499 10.6794ZM10.6212 14.2152C10.6212 14.5696 10.3461 14.8481 9.99591 14.8481C9.65407 14.8481 9.3706 14.5696 9.3706 14.2152V13.1266C9.3706 12.7806 9.65407 12.4937 9.99591 12.4937C10.3461 12.4937 10.6212 12.7806 10.6212 13.1266V14.2152Z" fill="white"/>
</svg>
