<svg width="16" height="16" viewBox="0 0 16 16" fill="none" xmlns="http://www.w3.org/2000/svg">
<path d="M9.00287 9.84596C8.70432 10.045 8.35754 10.1502 8 10.1502C7.64248 10.1502 7.2957 10.045 6.99716 9.84596L2.0799 6.56769C2.05262 6.5495 2.02604 6.53054 2 6.51104V11.8828C2 12.4987 2.4998 12.9875 3.10468 12.9875H12.8953C13.5112 12.9875 14 12.4877 14 11.8828V6.51102C13.9739 6.53056 13.9473 6.54957 13.9199 6.56778L9.00287 9.84596Z" fill="white"/>
<path d="M2.46992 4.98262L7.38718 8.26092C7.57332 8.38502 7.78665 8.44706 7.99998 8.44706C8.21333 8.44706 8.42668 8.385 8.61282 8.26092L13.5301 4.98262C13.8243 4.78657 14 4.45845 14 4.1043C14 3.49538 13.5046 3 12.8957 3H3.1043C2.4954 3.00002 2 3.4954 2 4.10489C2 4.45845 2.17569 4.78657 2.46992 4.98262Z" fill="white"/>
</svg>
