<svg width="36" height="36" viewBox="0 0 36 36" fill="none" xmlns="http://www.w3.org/2000/svg">
<rect width="36" height="36" rx="4" fill="#85FF66" fill-opacity="0.1"/>
<mask id="mask0_3484_15334" style="mask-type:alpha" maskUnits="userSpaceOnUse" x="6" y="6" width="24" height="24">
<rect x="6" y="6" width="24" height="24" fill="#D9D9D9"/>
</mask>
<g mask="url(#mask0_3484_15334)">
<mask id="path-3-inside-1_3484_15334" fill="white">
<path d="M9.46319 12.792C8.30904 14.6839 7.81602 16.9056 8.06158 19.1081C8.30714 21.3105 9.27736 23.3691 10.8198 24.9603C12.3623 26.5515 14.3897 27.5852 16.5835 27.8992C18.7773 28.2131 21.0132 27.7894 22.94 26.6946C24.8669 25.5998 26.3755 23.896 27.2288 21.8508C28.0822 19.8056 28.232 17.5348 27.6548 15.3952C27.0775 13.2555 25.8059 11.3683 24.0396 10.0298C22.2733 8.69138 20.1124 7.97758 17.8964 8.00054L17.9068 9.00048C19.9012 8.97982 21.8459 9.62224 23.4356 10.8268C25.0253 12.0314 26.1698 13.73 26.6893 15.6556C27.2088 17.5813 27.074 19.625 26.306 21.4657C25.5379 23.3064 24.1802 24.8398 22.446 25.8251C20.7119 26.8104 18.6995 27.1918 16.7251 26.9092C14.7507 26.6267 12.9261 25.6963 11.5379 24.2642C10.1496 22.8322 9.27642 20.9795 9.05542 18.9972C8.83442 17.015 9.27813 15.0155 10.3169 13.3128L9.46319 12.792Z"/>
</mask>
<path d="M9.46319 12.792C8.30904 14.6839 7.81602 16.9056 8.06158 19.1081C8.30714 21.3105 9.27736 23.3691 10.8198 24.9603C12.3623 26.5515 14.3897 27.5852 16.5835 27.8992C18.7773 28.2131 21.0132 27.7894 22.94 26.6946C24.8669 25.5998 26.3755 23.896 27.2288 21.8508C28.0822 19.8056 28.232 17.5348 27.6548 15.3952C27.0775 13.2555 25.8059 11.3683 24.0396 10.0298C22.2733 8.69138 20.1124 7.97758 17.8964 8.00054L17.9068 9.00048C19.9012 8.97982 21.8459 9.62224 23.4356 10.8268C25.0253 12.0314 26.1698 13.73 26.6893 15.6556C27.2088 17.5813 27.074 19.625 26.306 21.4657C25.5379 23.3064 24.1802 24.8398 22.446 25.8251C20.7119 26.8104 18.6995 27.1918 16.7251 26.9092C14.7507 26.6267 12.9261 25.6963 11.5379 24.2642C10.1496 22.8322 9.27642 20.9795 9.05542 18.9972C8.83442 17.015 9.27813 15.0155 10.3169 13.3128L9.46319 12.792Z" stroke="#BAE637" stroke-width="2" stroke-linecap="round" stroke-linejoin="round" stroke-dasharray="2 4 6 8" mask="url(#path-3-inside-1_3484_15334)"/>
<g opacity="0.3">
<mask id="path-4-inside-2_3484_15334" fill="white">
<path d="M15.5809 8.29701C13.7684 8.74889 12.1187 9.69941 10.8188 11.0409L11.5369 11.7368C12.7068 10.5295 14.1916 9.674 15.8228 9.26731L15.5809 8.29701Z"/>
</mask>
<path d="M15.5809 8.29701C13.7684 8.74889 12.1187 9.69941 10.8188 11.0409L11.5369 11.7368C12.7068 10.5295 14.1916 9.674 15.8228 9.26731L15.5809 8.29701Z" stroke="#BAE637" stroke-width="2" stroke-linejoin="round" stroke-dasharray="5 5" mask="url(#path-4-inside-2_3484_15334)"/>
</g>
<path fill-rule="evenodd" clip-rule="evenodd" d="M22.2913 13.2188C20.3157 13.3237 18.7065 14.8321 18.4443 16.7626L20.6425 14.5645C20.7263 14.4807 20.8618 14.4807 20.9456 14.5645C21.0294 14.6482 21.0294 14.7838 20.9456 14.8675L18.7474 17.0657C20.678 16.8036 22.1864 15.1944 22.2913 13.2188L22.2913 13.2188Z" fill="#BAE637"/>
<path fill-rule="evenodd" clip-rule="evenodd" d="M15.7415 14.5645L17.9397 16.7626C17.6775 14.8321 16.0683 13.3237 14.0928 13.2188C14.1977 15.1944 15.706 16.8036 17.6366 17.0657L15.4385 14.8675C15.3547 14.7838 15.3546 14.6482 15.4384 14.5645C15.5222 14.4807 15.6577 14.4807 15.7415 14.5645L15.7415 14.5645Z" fill="#BAE637"/>
<path fill-rule="evenodd" clip-rule="evenodd" d="M16.5236 20.3067C16.46 20.3945 16.3408 20.4213 16.2458 20.3685C16.0318 20.2497 15.7882 20.1868 15.5417 20.1868C14.7397 20.1868 14.0869 20.8395 14.0869 21.6416C14.0869 21.7607 14.1011 21.8787 14.1294 21.9923C14.1357 22.0184 14.1584 22.0362 14.1841 22.0362H22.2001C22.2259 22.0362 22.2485 22.018 22.2549 21.9919C22.2828 21.8784 22.2973 21.7603 22.2973 21.6416C22.2973 20.8395 21.6446 20.1868 20.8425 20.1868C20.5961 20.1868 20.3525 20.2497 20.1384 20.3685C20.0435 20.4213 19.9239 20.3945 19.8606 20.3067C19.5237 19.8405 18.8843 19.5508 18.1921 19.5508C17.4999 19.5508 16.8606 19.8405 16.5236 20.3067H16.5236Z" fill="#BAE637"/>
<path d="M17.5655 17.9556L17.5654 18.9662C17.688 18.9507 17.8109 18.9429 17.9327 18.9429C18.0545 18.9429 18.1775 18.9507 18.3001 18.9662L18.3001 17.9557L17.9327 17.5884L17.5655 17.9556Z" fill="#BAE637"/>
</g>
</svg>
