<svg width="36" height="36" viewBox="0 0 36 36" fill="none" xmlns="http://www.w3.org/2000/svg">
<rect width="36" height="36" rx="4" fill="#7C7BF5" fill-opacity="0.1"/>
<path d="M25.1695 10.6836H10.8305C9.26992 10.6836 8 11.9535 8 13.5145V22.4855C8 24.0465 9.26992 25.3164 10.8305 25.3164H25.1695C26.7301 25.3164 28 24.0465 28 22.4855V13.5145C28 11.9535 26.7301 10.6836 25.1695 10.6836ZM15.2582 15.1871L12.2805 18.1648L14.9285 20.8129C15.1574 21.0418 15.1574 21.4129 14.9285 21.6414C14.7 21.8703 14.3289 21.8703 14.1 21.6414L11.0375 18.5789C10.8086 18.35 10.8086 17.9793 11.0375 17.7504L14.4293 14.3586C14.6582 14.1297 15.0293 14.1297 15.2582 14.3586C15.4867 14.5871 15.4867 14.9582 15.2582 15.1871ZM20.0914 13.8086L16.993 22.5816C16.8852 22.8871 16.5504 23.0469 16.2453 22.9391C15.9402 22.8312 15.7801 22.4965 15.8879 22.1914L18.9863 13.4184C19.0941 13.1133 19.4285 12.9531 19.734 13.0609C20.0391 13.1688 20.1992 13.5035 20.0914 13.8086ZM24.9625 18.2496L21.5707 21.6414C21.3418 21.8703 20.9707 21.8703 20.7418 21.6414C20.5133 21.4129 20.5133 21.0418 20.7418 20.8129L23.7195 17.8352L21.0715 15.1871C20.8426 14.9582 20.8426 14.5871 21.0715 14.3586C21.3 14.1297 21.6711 14.1297 21.9 14.3586L24.9625 17.4211C25.1914 17.65 25.1914 18.0207 24.9625 18.2496Z" fill="#7C7BF5"/>
</svg>
