<svg width="36" height="36" viewBox="0 0 36 36" fill="none" xmlns="http://www.w3.org/2000/svg">
<rect width="36" height="36" rx="4" fill="#FF3C76" fill-opacity="0.1"/>
<path d="M18.8583 9.57406L9.7 8.1824C9.275 8.11573 8.84167 8.2324 8.51667 8.5074C8.19167 8.79073 8 9.19906 8 9.62406V27.1824C8 27.6407 8.375 28.0157 8.83333 28.0157H11.5417V23.6407C11.5417 22.8324 12.1917 22.1824 13 22.1824H15.0833C15.8917 22.1824 16.5417 22.8324 16.5417 23.6407V28.0157H20.0833V11.0157C20.0833 10.2991 19.5667 9.69073 18.8583 9.57406ZM12.5833 20.3074H11.3333C10.9883 20.3074 10.7083 20.0274 10.7083 19.6824C10.7083 19.3374 10.9883 19.0574 11.3333 19.0574H12.5833C12.9283 19.0574 13.2083 19.3374 13.2083 19.6824C13.2083 20.0274 12.9283 20.3074 12.5833 20.3074ZM12.5833 17.8074H11.3333C10.9883 17.8074 10.7083 17.5274 10.7083 17.1824C10.7083 16.8374 10.9883 16.5574 11.3333 16.5574H12.5833C12.9283 16.5574 13.2083 16.8374 13.2083 17.1824C13.2083 17.5274 12.9283 17.8074 12.5833 17.8074ZM12.5833 15.3074H11.3333C10.9883 15.3074 10.7083 15.0274 10.7083 14.6824C10.7083 14.3374 10.9883 14.0574 11.3333 14.0574H12.5833C12.9283 14.0574 13.2083 14.3374 13.2083 14.6824C13.2083 15.0274 12.9283 15.3074 12.5833 15.3074ZM12.5833 12.8074H11.3333C10.9883 12.8074 10.7083 12.5274 10.7083 12.1824C10.7083 11.8374 10.9883 11.5574 11.3333 11.5574H12.5833C12.9283 11.5574 13.2083 11.8374 13.2083 12.1824C13.2083 12.5274 12.9283 12.8074 12.5833 12.8074ZM16.75 20.3074H15.5C15.155 20.3074 14.875 20.0274 14.875 19.6824C14.875 19.3374 15.155 19.0574 15.5 19.0574H16.75C17.095 19.0574 17.375 19.3374 17.375 19.6824C17.375 20.0274 17.095 20.3074 16.75 20.3074ZM16.75 17.8074H15.5C15.155 17.8074 14.875 17.5274 14.875 17.1824C14.875 16.8374 15.155 16.5574 15.5 16.5574H16.75C17.095 16.5574 17.375 16.8374 17.375 17.1824C17.375 17.5274 17.095 17.8074 16.75 17.8074ZM16.75 15.3074H15.5C15.155 15.3074 14.875 15.0274 14.875 14.6824C14.875 14.3374 15.155 14.0574 15.5 14.0574H16.75C17.095 14.0574 17.375 14.3374 17.375 14.6824C17.375 15.0274 17.095 15.3074 16.75 15.3074ZM16.75 12.8074H15.5C15.155 12.8074 14.875 12.5274 14.875 12.1824C14.875 11.8374 15.155 11.5574 15.5 11.5574H16.75C17.095 11.5574 17.375 11.8374 17.375 12.1824C17.375 12.5274 17.095 12.8074 16.75 12.8074Z" fill="#FF3C76"/>
<path d="M26.8503 17.0511L20.917 15.8086V28.0161H26.542C27.3462 28.0161 28.0003 27.3619 28.0003 26.5578V18.4761C28.0003 17.7878 27.5312 17.2019 26.8503 17.0511ZM24.8753 25.5161H23.6253C23.2803 25.5161 23.0003 25.2361 23.0003 24.8911C23.0003 24.5461 23.2803 24.2661 23.6253 24.2661H24.8753C25.2203 24.2661 25.5003 24.5461 25.5003 24.8911C25.5003 25.2361 25.2203 25.5161 24.8753 25.5161ZM24.8753 23.0161H23.6253C23.2803 23.0161 23.0003 22.7361 23.0003 22.3911C23.0003 22.0461 23.2803 21.7661 23.6253 21.7661H24.8753C25.2203 21.7661 25.5003 22.0461 25.5003 22.3911C25.5003 22.7361 25.2203 23.0161 24.8753 23.0161ZM24.8753 20.5161H23.6253C23.2803 20.5161 23.0003 20.2361 23.0003 19.8911C23.0003 19.5461 23.2803 19.2661 23.6253 19.2661H24.8753C25.2203 19.2661 25.5003 19.5461 25.5003 19.8911C25.5003 20.2361 25.2203 20.5161 24.8753 20.5161Z" fill="#FF3C76"/>
</svg>
