<svg width="36" height="36" viewBox="0 0 36 36" fill="none" xmlns="http://www.w3.org/2000/svg">
<rect width="36" height="36" rx="4" fill="#FC8F40" fill-opacity="0.1"/>
<mask id="mask0_3484_15277" style="mask-type:alpha" maskUnits="userSpaceOnUse" x="6" y="6" width="24" height="24">
<rect x="6" y="6" width="24" height="24" fill="#D9D9D9"/>
</mask>
<g mask="url(#mask0_3484_15277)">
<mask id="path-3-inside-1_3484_15277" fill="white">
<path d="M28 18C28 16.6868 27.7413 15.3864 27.2388 14.1732C26.7362 12.9599 25.9997 11.8575 25.0711 10.9289C24.1425 10.0003 23.0401 9.26375 21.8268 8.7612C20.6136 8.25866 19.3132 8 18 8V9C19.1819 9 20.3522 9.23279 21.4442 9.68508C22.5361 10.1374 23.5282 10.8003 24.364 11.636C25.1997 12.4718 25.8626 13.4639 26.3149 14.5558C26.7672 15.6478 27 16.8181 27 18H28Z"/>
</mask>
<path d="M28 18C28 16.6868 27.7413 15.3864 27.2388 14.1732C26.7362 12.9599 25.9997 11.8575 25.0711 10.9289C24.1425 10.0003 23.0401 9.26375 21.8268 8.7612C20.6136 8.25866 19.3132 8 18 8V9C19.1819 9 20.3522 9.23279 21.4442 9.68508C22.5361 10.1374 23.5282 10.8003 24.364 11.636C25.1997 12.4718 25.8626 13.4639 26.3149 14.5558C26.7672 15.6478 27 16.8181 27 18H28Z" stroke="#E26B45" stroke-width="2" stroke-linecap="round" stroke-linejoin="round" stroke-dasharray="2 4 6 8" mask="url(#path-3-inside-1_3484_15277)"/>
<g opacity="0.3">
<mask id="path-4-inside-2_3484_15277" fill="white">
<path d="M27.7605 20.1753C27.3729 21.9146 26.5275 23.5188 25.3119 24.8218C24.0962 26.1247 22.5545 27.0792 20.8462 27.5864C19.1379 28.0936 17.3251 28.1351 15.5953 27.7066C13.8656 27.2781 12.2818 26.3951 11.0078 25.1491C9.73386 23.9031 8.81598 22.3393 8.34918 20.6195C7.88239 18.8997 7.88363 17.0864 8.35278 15.3673C8.82194 13.6481 9.74196 12.0856 11.0176 10.8413C12.2933 9.59705 13.8783 8.71628 15.6086 8.29014L15.8478 9.26112C14.2905 9.64465 12.864 10.4373 11.7159 11.5572C10.5678 12.677 9.73975 14.0833 9.31751 15.6305C8.89527 17.1778 8.89415 18.8097 9.31427 20.3575C9.73438 21.9054 10.5605 23.3128 11.7071 24.4342C12.8536 25.5556 14.2791 26.3503 15.8358 26.7359C17.3926 27.1216 19.0241 27.0842 20.5616 26.6278C22.099 26.1713 23.4866 25.3123 24.5807 24.1396C25.6748 22.9669 26.4356 21.5231 26.7845 19.9577L27.7605 20.1753Z"/>
</mask>
<path d="M27.7605 20.1753C27.3729 21.9146 26.5275 23.5188 25.3119 24.8218C24.0962 26.1247 22.5545 27.0792 20.8462 27.5864C19.1379 28.0936 17.3251 28.1351 15.5953 27.7066C13.8656 27.2781 12.2818 26.3951 11.0078 25.1491C9.73386 23.9031 8.81598 22.3393 8.34918 20.6195C7.88239 18.8997 7.88363 17.0864 8.35278 15.3673C8.82194 13.6481 9.74196 12.0856 11.0176 10.8413C12.2933 9.59705 13.8783 8.71628 15.6086 8.29014L15.8478 9.26112C14.2905 9.64465 12.864 10.4373 11.7159 11.5572C10.5678 12.677 9.73975 14.0833 9.31751 15.6305C8.89527 17.1778 8.89415 18.8097 9.31427 20.3575C9.73438 21.9054 10.5605 23.3128 11.7071 24.4342C12.8536 25.5556 14.2791 26.3503 15.8358 26.7359C17.3926 27.1216 19.0241 27.0842 20.5616 26.6278C22.099 26.1713 23.4866 25.3123 24.5807 24.1396C25.6748 22.9669 26.4356 21.5231 26.7845 19.9577L27.7605 20.1753Z" stroke="#E26B45" stroke-width="2" stroke-linejoin="round" stroke-dasharray="5 5" mask="url(#path-4-inside-2_3484_15277)"/>
</g>
<path fill-rule="evenodd" clip-rule="evenodd" d="M22.2913 13.2188C20.3157 13.3237 18.7065 14.8321 18.4443 16.7626L20.6425 14.5645C20.7263 14.4807 20.8618 14.4807 20.9456 14.5645C21.0294 14.6482 21.0294 14.7838 20.9456 14.8675L18.7474 17.0657C20.678 16.8036 22.1864 15.1944 22.2913 13.2188L22.2913 13.2188Z" fill="#E26B45"/>
<path fill-rule="evenodd" clip-rule="evenodd" d="M15.7415 14.5645L17.9397 16.7626C17.6775 14.8321 16.0683 13.3237 14.0928 13.2188C14.1977 15.1944 15.706 16.8036 17.6366 17.0657L15.4385 14.8675C15.3547 14.7838 15.3546 14.6482 15.4384 14.5645C15.5222 14.4807 15.6577 14.4807 15.7415 14.5645L15.7415 14.5645Z" fill="#E26B45"/>
<path fill-rule="evenodd" clip-rule="evenodd" d="M16.5236 20.3067C16.46 20.3945 16.3408 20.4213 16.2458 20.3685C16.0318 20.2497 15.7882 20.1868 15.5417 20.1868C14.7397 20.1868 14.0869 20.8395 14.0869 21.6416C14.0869 21.7607 14.1011 21.8787 14.1294 21.9923C14.1357 22.0184 14.1584 22.0362 14.1841 22.0362H22.2001C22.2259 22.0362 22.2485 22.018 22.2549 21.9919C22.2828 21.8784 22.2973 21.7603 22.2973 21.6416C22.2973 20.8395 21.6446 20.1868 20.8425 20.1868C20.5961 20.1868 20.3525 20.2497 20.1384 20.3685C20.0435 20.4213 19.9239 20.3945 19.8606 20.3067C19.5237 19.8405 18.8843 19.5508 18.1921 19.5508C17.4999 19.5508 16.8606 19.8405 16.5236 20.3067H16.5236Z" fill="#E26B45"/>
<path d="M17.5655 17.9556L17.5654 18.9662C17.688 18.9507 17.8109 18.9429 17.9327 18.9429C18.0545 18.9429 18.1775 18.9507 18.3001 18.9662L18.3001 17.9557L17.9327 17.5884L17.5655 17.9556Z" fill="#E26B45"/>
</g>
</svg>
