<svg width="36" height="36" viewBox="0 0 36 36" fill="none" xmlns="http://www.w3.org/2000/svg">
<rect width="36" height="36" rx="4" fill="#1890FF" fill-opacity="0.1"/>
<path d="M11.6273 20.5341C11.5254 20.7374 11.5651 20.9831 11.7256 21.1438L11.8546 21.2727C12.2271 20.8312 12.6614 20.352 13.188 19.8255C13.2253 19.7883 13.2636 19.7703 13.3009 19.736L12.4713 18.9062C11.989 19.7786 11.7078 20.3746 11.6273 20.5341Z" fill="#1890FF"/>
<path d="M16.1714 22.8082C15.6435 23.3361 15.1656 23.7711 14.7266 24.144L14.9012 24.3187C15.0633 24.4807 15.3113 24.5197 15.5152 24.4148C15.7884 24.274 16.218 24.0719 17.1298 23.5641L16.2611 22.6953C16.2267 22.7328 16.2088 22.771 16.1714 22.8082Z" fill="#1890FF"/>
<path d="M15.8902 20.1083C15.5091 19.7272 14.4374 20.0689 13.9339 20.5722C12.2497 22.2564 11.4891 23.4505 11.1475 24.1555C11.0496 24.3575 11.0904 24.5994 11.2491 24.7581C11.4082 24.9173 11.6504 24.9577 11.8526 24.8597C12.5418 24.5251 13.7213 23.768 15.4256 22.0639C15.9792 21.51 16.2523 20.4706 15.8906 20.1087L15.8902 20.1083Z" fill="#1890FF"/>
<path d="M10.646 16.0209L9.15447 17.5124C8.98583 17.6811 8.95122 17.9421 9.0707 18.1489C9.18729 18.353 9.43146 18.457 9.66382 18.3948C10.4699 18.1786 11.1792 18.0873 11.6569 18.2098C12.3364 17.0017 13.0666 15.8896 13.8399 14.8794C13.3926 14.5927 11.9145 14.7524 10.646 16.0209Z" fill="#1890FF"/>
<path d="M17.9259 26.9417C18.1291 27.0445 18.375 27.0048 18.5358 26.8438L20.0275 25.3523C21.1823 24.1972 21.3855 22.7069 21.1235 22.2344C19.9969 23.0835 18.8555 23.8005 17.7907 24.4007C17.8641 24.8156 17.8153 25.2181 17.6415 26.3937C17.6076 26.6212 17.7252 26.8414 17.9259 26.9417Z" fill="#1890FF"/>
<path d="M19.4694 14.2908C18.8526 14.9077 18.8526 15.9111 19.4694 16.528C20.0863 17.1449 21.0899 17.1449 21.7068 16.528C22.3236 15.9111 22.3236 14.9077 21.7068 14.2908C21.0899 13.6739 20.0863 13.6739 19.4694 14.2908Z" fill="#1890FF"/>
<path d="M26.9691 9.51439C26.9502 9.2536 26.7425 9.04747 26.4826 9.02797C25.1874 8.93047 23.8973 9.08977 22.6328 9.47649C22.728 10.3452 23.1773 11.2854 23.9444 12.0525C24.7208 12.8287 25.6865 13.2779 26.5707 13.3619C26.9113 12.1684 27.0728 10.8902 26.9691 9.51439Z" fill="#1890FF"/>
<path d="M23.1984 12.7985C22.3208 11.921 21.785 10.8685 21.613 9.84375C18.4464 11.1425 15.415 13.9786 13.0195 17.9628L14.2096 19.1529C15.0227 18.8227 16.0099 18.7355 16.636 19.3615C17.2629 19.9885 17.174 20.9752 16.844 21.7873L18.0732 23.0165C21.1387 21.169 24.7076 18.2583 26.2252 14.3858C25.1755 14.2272 24.0902 13.6903 23.1984 12.7985ZM22.4524 17.2731C21.4245 18.301 19.7517 18.301 18.7236 17.2731C17.6956 16.2451 17.6956 14.5721 18.7236 13.5442C19.7517 12.5163 21.4245 12.5163 22.4524 13.5442C23.4804 14.5723 23.4804 16.2451 22.4524 17.2731Z" fill="#1890FF"/>
</svg>
