<svg width="24" height="24" viewBox="0 0 24 24" fill="none" xmlns="http://www.w3.org/2000/svg">
<mask id="mask0_3484_15231" style="mask-type:alpha" maskUnits="userSpaceOnUse" x="0" y="0" width="24" height="24">
<rect width="24" height="24" fill="#D9D9D9"/>
</mask>
<g mask="url(#mask0_3484_15231)">
<path d="M5.91449 16.1303C4.8032 14.9211 4.57985 12.4354 4.60709 11.3438L2.64599 12.0155C2.45533 12.0995 2.07401 12.3514 2.07401 12.6873C1.82887 14.0309 2.23743 15.3745 2.64599 16.1303C2.97284 16.7349 3.49035 16.7741 3.70825 16.7181L5.91449 16.1303Z" fill="#36CFC9"/>
<path fill-rule="evenodd" clip-rule="evenodd" d="M5.26038 11.3421C6.40435 10.9222 7.54833 10.5023 10.9802 6.89141C12.2059 4.62409 13.7716 5.93244 14.9024 7.8991C15.9647 9.74653 16.9452 13.5577 15.8013 15.4568C15.1462 16.5443 14.6573 16.4645 13.8402 16.1286C11.8791 15.5968 8.52887 14.701 6.40435 15.5408C5.83237 14.953 4.9989 13.0215 5.26038 11.3421ZM11.8105 11.5726C12.4947 14.1447 13.8714 15.9988 14.8855 15.7139C15.8996 15.429 16.1671 13.113 15.4829 10.5409C14.7987 7.96877 13.422 6.11462 12.4079 6.39951C11.3938 6.6844 11.1263 9.00046 11.8105 11.5726Z" fill="#36CFC9"/>
<path d="M12.9415 13.4438C12.4185 12.6377 12.0699 10.8126 11.9609 10.0009C12.3695 9.9169 13.1866 9.88331 13.5135 11.4284C13.8403 12.9736 13.2683 13.4158 12.9415 13.4438Z" fill="#36CFC9"/>
<rect width="4.7545" height="0.993794" rx="0.496897" transform="matrix(0.686248 -0.727368 0.70837 0.705841 15.751 6.45703)" fill="#36CFC9"/>
<rect width="4.72794" height="0.999325" rx="0.499662" transform="matrix(-0.822786 -0.568351 -0.547369 0.836892 21.7422 15.9453)" fill="#36CFC9"/>
<rect width="4.69984" height="1.00511" rx="0.502554" transform="matrix(0.948016 -0.318221 0.302898 0.953023 17.2402 9.77734)" fill="#36CFC9"/>
<path d="M6.40479 18.3983L5.7511 16.8867L4.28027 17.2226C4.52541 17.8944 5.03203 19.2716 5.0974 19.406C5.17911 19.5739 5.26082 20.4136 5.34253 20.6656C5.4079 20.8671 5.5332 20.9735 5.58767 21.0015C6.07794 20.8895 7.1402 20.6152 7.46705 20.4136C7.7939 20.2121 7.71219 20.0498 7.63048 19.9938L6.40479 18.3983Z" fill="#36CFC9"/>
</g>
</svg>
