<svg width="36" height="36" viewBox="0 0 36 36" fill="none" xmlns="http://www.w3.org/2000/svg">
<rect width="36" height="36" rx="4" fill="#FFC132" fill-opacity="0.1"/>
<path d="M9.30401 12.661H11.0432V25.995H9.30401C8.9965 25.995 8.70158 25.8728 8.48413 25.6554C8.26669 25.4379 8.14453 25.143 8.14453 24.8355V13.8205C8.14453 13.513 8.26669 13.218 8.48413 13.0006C8.70158 12.7832 8.9965 12.661 9.30401 12.661ZM23.2177 12.661H23.7975V25.995H12.2027V12.661H12.7824C12.8279 11.9442 13.1431 11.2711 13.6648 10.7774C14.1865 10.2837 14.8759 10.0059 15.5942 10H20.3944C21.1187 9.99905 21.8158 10.2765 22.3413 10.7751C22.8668 11.2736 23.1805 11.955 23.2177 12.6784V12.661ZM17.4203 17.2989C17.4203 17.4527 17.4814 17.6001 17.5901 17.7088C17.6989 17.8176 17.8463 17.8786 18.0001 17.8786C18.1538 17.8786 18.3013 17.8176 18.41 17.7088C18.5187 17.6001 18.5798 17.4527 18.5798 17.2989C18.6463 17.2816 18.7158 17.2793 18.7832 17.2922C18.8507 17.305 18.9145 17.3327 18.9699 17.3732C19.0254 17.4137 19.0712 17.466 19.104 17.5263C19.1368 17.5867 19.1558 17.6535 19.1596 17.7221C19.1596 17.8759 19.2206 18.0233 19.3294 18.1321C19.4381 18.2408 19.5855 18.3019 19.7393 18.3019C19.8931 18.3019 20.0405 18.2408 20.1492 18.1321C20.258 18.0233 20.319 17.8759 20.319 17.7221C20.3183 17.501 20.2716 17.2824 20.1819 17.0802C20.0922 16.8781 19.9614 16.6968 19.7978 16.548C19.6342 16.3991 19.4415 16.2859 19.2318 16.2156C19.0221 16.1453 18.8001 16.1193 18.5798 16.1394C18.5798 15.9857 18.5187 15.8382 18.41 15.7295C18.3013 15.6208 18.1538 15.5597 18.0001 15.5597C17.8463 15.5597 17.6989 15.6208 17.5901 15.7295C17.4814 15.8382 17.4203 15.9857 17.4203 16.1394C17.2001 16.1193 16.9781 16.1453 16.7684 16.2156C16.5587 16.2859 16.366 16.3991 16.2024 16.548C16.0388 16.6968 15.908 16.8781 15.8183 17.0802C15.7285 17.2824 15.6818 17.501 15.6811 17.7221V18.3019C15.6811 18.5094 15.7221 18.715 15.8017 18.9066C15.8813 19.0983 15.998 19.2724 16.145 19.4189C16.2921 19.5654 16.4666 19.6815 16.6586 19.7604C16.8506 19.8393 17.0562 19.8795 17.2638 19.8787H18.69C19.2291 19.8787 19.1016 20.5107 19.1132 20.8701C19.1116 20.9395 19.094 21.0076 19.0618 21.0691C19.0297 21.1305 18.9838 21.1838 18.9277 21.2247C18.8717 21.2657 18.807 21.2931 18.7386 21.305C18.6702 21.3169 18.6 21.3129 18.5334 21.2933C18.5334 21.1396 18.4724 20.9921 18.3636 20.8834C18.2549 20.7746 18.1075 20.7136 17.9537 20.7136C17.7999 20.7136 17.6525 20.7746 17.5438 20.8834C17.435 20.9921 17.374 21.1396 17.374 21.2933C17.3128 21.3049 17.2499 21.3037 17.1892 21.2898C17.1285 21.2759 17.0713 21.2496 17.0212 21.2126C16.9712 21.1756 16.9293 21.1287 16.8982 21.0747C16.8671 21.0208 16.8475 20.961 16.8406 20.8991C16.8406 20.7453 16.7795 20.5979 16.6708 20.4891C16.5621 20.3804 16.4146 20.3193 16.2609 20.3193C16.1071 20.3193 15.9597 20.3804 15.8509 20.4891C15.7422 20.5979 15.6811 20.7453 15.6811 20.8991C15.6809 21.1205 15.727 21.3395 15.8165 21.5421C15.9059 21.7447 16.0367 21.9263 16.2005 22.0753C16.3643 22.2243 16.5574 22.3375 16.7675 22.4075C16.9775 22.4775 17.1999 22.5028 17.4203 22.4818C17.4203 22.6355 17.4814 22.783 17.5901 22.8917C17.6989 23.0004 17.8463 23.0615 18.0001 23.0615C18.1538 23.0615 18.3013 23.0004 18.41 22.8917C18.5187 22.783 18.5798 22.6355 18.5798 22.4818C18.8002 22.5028 19.0226 22.4775 19.2327 22.4075C19.4428 22.3375 19.6359 22.2243 19.7997 22.0753C19.9634 21.9263 20.0942 21.7447 20.1837 21.5421C20.2731 21.3395 20.3192 21.1205 20.319 20.8991V20.3193C20.319 20.1118 20.2781 19.9062 20.1985 19.7146C20.1188 19.5229 20.0022 19.3488 19.8551 19.2023C19.7081 19.0558 19.5336 18.9397 19.3416 18.8608C19.1496 18.7819 18.9439 18.7417 18.7364 18.7425H17.287C16.7478 18.7425 16.8754 18.1105 16.8638 17.7453C16.869 17.6797 16.8881 17.616 16.9198 17.5583C16.9516 17.5007 16.9952 17.4505 17.0479 17.411C17.1005 17.3715 17.1609 17.3437 17.2252 17.3294C17.2894 17.315 17.3559 17.3145 17.4203 17.3279V17.2989ZM22.0583 12.661C22.018 12.2504 21.8267 11.8694 21.5213 11.592C21.216 11.3145 20.8185 11.1604 20.406 11.1595H15.6C15.1879 11.1641 14.7918 11.3193 14.4863 11.5959C14.1808 11.8726 13.9872 12.2514 13.9419 12.661H22.0583ZM26.6962 12.661H24.9569V25.995H26.6962C27.0037 25.995 27.2986 25.8728 27.516 25.6554C27.7335 25.4379 27.8556 25.143 27.8556 24.8355V13.8205C27.8556 13.513 27.7335 13.218 27.516 13.0006C27.2986 12.7832 27.0037 12.661 26.6962 12.661Z" fill="#FFC132"/>
</svg>
