<svg width="6" height="12" viewBox="0 0 6 12" fill="none" xmlns="http://www.w3.org/2000/svg">
<path d="M0.333659 1.8667V0.77883C0.333659 0.684539 0.419933 0.632467 0.478196 0.690168L5.52916 5.6454C5.57208 5.68732 5.6068 5.741 5.63069 5.80234C5.65458 5.86368 5.66699 5.93106 5.66699 5.99935C5.66699 6.06763 5.65458 6.13502 5.63069 6.19636C5.6068 6.2577 5.57208 6.31137 5.52916 6.35329L0.478196 11.3085C0.418813 11.3662 0.333659 11.3142 0.333659 11.2199V10.132C0.333659 10.063 0.359429 9.99689 0.402006 9.95467L4.43561 6.00005L0.402006 2.04403C0.359429 2.00181 0.333659 1.93566 0.333659 1.8667Z" fill="#656881"/>
</svg>
