<svg width="6" height="12" viewBox="0 0 6 12" fill="none" xmlns="http://www.w3.org/2000/svg">
<path d="M5.66634 1.8667V0.77883C5.66634 0.684539 5.58007 0.632467 5.5218 0.690168L0.470839 5.6454C0.427924 5.68732 0.393198 5.741 0.369312 5.80234C0.345425 5.86368 0.333008 5.93106 0.333008 5.99935C0.333008 6.06763 0.345425 6.13502 0.369312 6.19636C0.393198 6.2577 0.427924 6.31137 0.470839 6.35329L5.5218 11.3085C5.58119 11.3662 5.66634 11.3142 5.66634 11.2199V10.132C5.66634 10.063 5.64057 9.99689 5.59799 9.95467L1.56439 6.00005L5.59799 2.04403C5.64057 2.00181 5.66634 1.93566 5.66634 1.8667Z" fill="#656881"/>
</svg>
