<svg width="100" height="100" viewBox="0 0 100 100" fill="none" xmlns="http://www.w3.org/2000/svg">
<path d="M90.2207 22.5586C91.2988 22.5586 92.1738 23.4336 92.1738 24.5117C92.1738 25.5898 91.2988 26.4648 90.2207 26.4648C89.1426 26.4648 88.2676 25.5898 88.2676 24.5117C88.2676 23.4336 89.1426 22.5586 90.2207 22.5586Z" fill="#94D4FF"/>
<path d="M90.2207 73.3398C91.2988 73.3398 92.1738 74.2148 92.1738 75.293C92.1738 76.3711 91.2988 77.2461 90.2207 77.2461C89.1426 77.2461 88.2676 76.3711 88.2676 75.293C88.2676 74.2148 89.1426 73.3398 90.2207 73.3398Z" fill="#94D4FF"/>
<path d="M80.4551 85.0586C82.6133 85.0586 84.3613 86.8066 84.3613 88.9648C84.3613 91.123 82.6133 92.8711 80.4551 92.8711C78.2969 92.8711 76.5488 91.123 76.5488 88.9648C76.5488 86.8066 78.2969 85.0586 80.4551 85.0586Z" fill="#3256C1"/>
<path d="M76.5488 4.98047C77.627 4.98047 78.502 5.85547 78.502 6.93359C78.502 8.01172 77.627 8.88672 76.5488 8.88672C75.4707 8.88672 74.5957 8.01172 74.5957 6.93359C74.5957 5.85547 75.4707 4.98047 76.5488 4.98047Z" fill="#94D4FF"/>
<path d="M49.2051 10.8398C27.6309 10.8398 10.1426 28.3281 10.1426 49.9023C10.1426 71.4766 27.6309 88.9648 49.2051 88.9648C70.7793 88.9648 88.2676 71.4766 88.2676 49.9023C88.2676 28.3281 70.7793 10.8398 49.2051 10.8398Z" fill="#FFD400"/>
<path d="M49.2051 79.1992C33.0254 79.1992 19.9082 66.082 19.9082 49.9023C19.9082 33.7227 33.0254 20.6055 49.2051 20.6055C65.3848 20.6055 78.502 33.7227 78.502 49.9023C78.502 66.082 65.3848 79.1992 49.2051 79.1992Z" fill="white"/>
<path d="M63.7264 40.668C65.252 42.1934 65.252 44.666 63.7264 46.1914L49.9158 60.0039L44.3924 65.5273L38.867 60.0039L34.7244 55.8594C33.9629 55.0977 33.5801 54.0977 33.5801 53.0977C33.5801 52.0977 33.9629 51.0977 34.7244 50.3357C36.25 48.8104 38.7227 48.8104 40.2479 50.3357L44.3924 54.4783L58.2031 40.668C58.9668 39.9063 59.9648 39.5234 60.9648 39.5234C61.9648 39.5234 62.9629 39.9063 63.7264 40.668Z" fill="#07CC66"/>
<path d="M19.9082 88.9648C20.9863 88.9648 21.8613 89.8398 21.8613 90.918C21.8613 91.9961 20.9863 92.8711 19.9082 92.8711C18.8299 92.8711 17.9551 91.9961 17.9551 90.918C17.9551 89.8398 18.8299 88.9648 19.9082 88.9648Z" fill="#94D4FF"/>
<path d="M15.0254 8.88672C17.7227 8.88672 19.9082 11.0723 19.9082 13.7695C19.9082 16.4668 17.7227 18.6523 15.0254 18.6523C12.3279 18.6523 10.1426 16.4668 10.1426 13.7695C10.1426 11.0723 12.3279 8.88672 15.0254 8.88672Z" fill="#3256C1"/>
<path d="M8.18945 24.5117C9.26758 24.5117 10.1426 25.3867 10.1426 26.4648C10.1426 27.543 9.26758 28.418 8.18945 28.418C7.11113 28.418 6.23633 27.543 6.23633 26.4648C6.23633 25.3867 7.11113 24.5117 8.18945 24.5117Z" fill="#94D4FF"/>
<path d="M8.18945 73.3398C9.26758 73.3398 10.1426 74.2148 10.1426 75.293C10.1426 76.3711 9.26758 77.2461 8.18945 77.2461C7.11113 77.2461 6.23633 76.3711 6.23633 75.293C6.23633 74.2148 7.11113 73.3398 8.18945 73.3398Z" fill="#94D4FF"/>
<path d="M72.6426 49.9023C72.6426 48.8236 71.768 47.9492 70.6895 47.9492C69.6109 47.9492 68.7363 48.8236 68.7363 49.9023C68.7363 60.6721 59.9748 69.4336 49.2051 69.4336C48.1264 69.4336 47.252 70.3082 47.252 71.3867V79.1328C47.8977 79.1754 48.5486 79.1992 49.2051 79.1992C49.8615 79.1992 50.5123 79.1754 51.1582 79.1328V73.2592C63.1711 72.2633 72.6426 62.168 72.6426 49.9023Z" fill="#D0DCE7"/>
<path d="M25.7676 49.9023C25.7676 50.9809 26.642 51.8555 27.7207 51.8555C28.7992 51.8555 29.6738 50.9809 29.6738 49.9023C29.6738 39.1328 38.4354 30.3711 49.2051 30.3711C50.2836 30.3711 51.1582 29.4967 51.1582 28.418V20.6719C50.5123 20.6293 49.8615 20.6055 49.2051 20.6055C48.5486 20.6055 47.8977 20.6293 47.252 20.6719V26.5455C35.2391 27.5414 25.7676 37.6367 25.7676 49.9023Z" fill="#D0DCE7"/>
</svg>
