<svg width="24" height="24" viewBox="0 0 24 24" fill="none" xmlns="http://www.w3.org/2000/svg">
<circle cx="12" cy="12" r="11.5" fill="#E26B45" stroke="white"/>
<path d="M12.7691 11.9987L16.6382 7.51956C16.7031 7.44512 16.6485 7.33203 16.5483 7.33203H15.3721C15.3028 7.33203 15.2365 7.36209 15.1908 7.41363L11.9997 11.1083L8.80856 7.41363C8.76434 7.36209 8.69801 7.33203 8.62726 7.33203H7.45104C7.35081 7.33203 7.29628 7.44512 7.36113 7.51956L11.2303 11.9987L7.36113 16.4778C7.3466 16.4944 7.33728 16.5147 7.33428 16.5363C7.33127 16.5579 7.3347 16.5799 7.34417 16.5996C7.35364 16.6193 7.36874 16.636 7.38768 16.6477C7.40663 16.6594 7.42862 16.6655 7.45104 16.6654H8.62726C8.69654 16.6654 8.76286 16.6353 8.80856 16.5838L11.9997 12.8891L15.1908 16.5838C15.235 16.6353 15.3013 16.6654 15.3721 16.6654H16.5483C16.6485 16.6654 16.7031 16.5523 16.6382 16.4778L12.7691 11.9987Z" fill="white"/>
</svg>
