<svg width="20" height="20" viewBox="0 0 20 20" fill="none" xmlns="http://www.w3.org/2000/svg">
<path fill-rule="evenodd" clip-rule="evenodd" d="M3.78329 8.09244C5.87216 8.09244 7.56658 6.39334 7.56658 4.29733C7.56658 2.20022 5.87216 0.5 3.78329 0.5C1.69443 0.5 0 2.20022 0 4.29733C0 6.39334 1.69443 8.09244 3.78329 8.09244ZM12.4342 15.5927C12.4342 13.4956 14.1286 11.7976 16.2175 11.7976C18.3064 11.7976 19.9997 13.4956 19.9997 15.5927C19.9997 17.6887 18.3064 19.3889 16.2175 19.3889C14.1286 19.3889 12.4342 17.6887 12.4342 15.5927ZM1.50787 14.0807H8.08335C8.91446 14.0807 9.59 14.7585 9.59 15.5924C9.59 16.4264 8.91446 17.1054 8.08335 17.1054H1.50787C0.675659 17.1054 0.00011111 16.4264 0.00011111 15.5924C0.00011111 14.7585 0.675659 14.0807 1.50787 14.0807ZM18.4934 2.7852C19.3245 2.7852 20 3.46306 20 4.297C20 5.13094 19.3245 5.8088 18.4934 5.8088H11.9179C11.0857 5.8088 10.4101 5.13094 10.4101 4.297C10.4101 3.46306 11.0857 2.7852 11.9179 2.7852H18.4934Z" fill="#00AF71"/>
</svg>
