<svg width="24" height="24" viewBox="0 0 24 24" fill="none" xmlns="http://www.w3.org/2000/svg">
<circle cx="12" cy="12" r="12" fill="white"/>
<g clip-path="url(#clip0_3703_26339)">
<path d="M23.5 12C23.5 18.3513 18.3513 23.5 12 23.5C5.64873 23.5 0.5 18.3513 0.5 12C0.5 5.64873 5.64873 0.5 12 0.5C18.3513 0.5 23.5 5.64873 23.5 12Z" fill="#0D0F20" stroke="white"/>
</g>
<path d="M11.898 13.964C11.898 13.5373 11.9673 13.164 12.106 12.844C12.2553 12.5133 12.4313 12.236 12.634 12.012C12.8473 11.788 13.1247 11.5213 13.466 11.212C13.8927 10.8387 14.2073 10.5187 14.41 10.252C14.6127 9.97467 14.714 9.644 14.714 9.26C14.714 8.73733 14.5113 8.32133 14.106 8.012C13.7007 7.692 13.1407 7.532 12.426 7.532C11.178 7.532 10.2233 7.95333 9.562 8.796L8.394 7.964C8.842 7.388 9.41267 6.94533 10.106 6.636C10.81 6.32667 11.6207 6.172 12.538 6.172C13.7007 6.172 14.6233 6.428 15.306 6.94C15.9887 7.44133 16.33 8.13467 16.33 9.02C16.33 9.45733 16.2553 9.84667 16.106 10.188C15.9673 10.5187 15.7967 10.796 15.594 11.02C15.3913 11.244 15.1193 11.5107 14.778 11.82C14.3407 12.2147 14.0153 12.5613 13.802 12.86C13.5993 13.1587 13.498 13.5267 13.498 13.964H11.898ZM12.714 17.596C12.4153 17.596 12.1647 17.5 11.962 17.308C11.77 17.1053 11.674 16.86 11.674 16.572C11.674 16.284 11.77 16.044 11.962 15.852C12.1647 15.6493 12.4153 15.548 12.714 15.548C13.0127 15.548 13.258 15.6493 13.45 15.852C13.642 16.044 13.738 16.284 13.738 16.572C13.738 16.86 13.6367 17.1053 13.434 17.308C13.242 17.5 13.002 17.596 12.714 17.596Z" fill="white"/>
<defs>
<clipPath id="clip0_3703_26339">
<rect width="24" height="24" fill="white"/>
</clipPath>
</defs>
</svg>
