<svg width="20" height="20" viewBox="0 0 20 20" fill="none" xmlns="http://www.w3.org/2000/svg">
<path d="M19.2836 7.27559L13.3328 6.41075L10.6726 1.01778C10.6 0.870126 10.4805 0.750595 10.3328 0.677938C9.96248 0.495126 9.51248 0.64747 9.32733 1.01778L6.66717 6.41075L0.716389 7.27559C0.552327 7.29903 0.402327 7.37638 0.287483 7.49356C0.148643 7.63627 0.0721362 7.82825 0.074773 8.02733C0.0774098 8.22642 0.158975 8.41631 0.301545 8.55528L4.60701 12.7529L3.58983 18.6803C3.56597 18.8182 3.58123 18.96 3.63387 19.0896C3.68651 19.2193 3.77442 19.3316 3.88764 19.4138C4.00086 19.496 4.13486 19.5449 4.27444 19.5549C4.41401 19.5648 4.55358 19.5355 4.67733 19.4701L9.99998 16.6717L15.3226 19.4701C15.468 19.5475 15.6367 19.5732 15.7984 19.5451C16.2062 19.4748 16.4805 19.0881 16.4101 18.6803L15.393 12.7529L19.6984 8.55528C19.8156 8.44044 19.893 8.29044 19.9164 8.12638C19.9797 7.71622 19.6937 7.33653 19.2836 7.27559Z" fill="#FADB14"/>
</svg>
