<svg width="59" height="20" viewBox="0 0 59 20" fill="none" xmlns="http://www.w3.org/2000/svg">
<rect width="59" height="20" rx="10" fill="#00AF71"/>
<g clip-path="url(#clip0_685_5298)">
<path d="M10.3178 12.121L10.3178 12.121C10.6608 13.0518 11.1767 13.8528 11.8495 14.5096C12.6172 15.2585 13.6409 15.8711 14.9121 16.3147C14.9296 16.3207 14.9457 16.325 14.9599 16.3279C14.9844 16.3326 15.0071 16.3346 15.0276 16.3346H15.0338C15.0536 16.3342 15.0742 16.332 15.0945 16.328C15.1105 16.3248 15.1268 16.3203 15.1419 16.315C16.4121 15.8707 17.4349 15.2576 18.2022 14.5084C18.8747 13.8517 19.3909 13.0501 19.7345 12.1189L10.3178 12.121ZM10.3178 12.121C9.68473 10.4029 9.71397 8.48643 9.74564 6.82532M10.3178 12.121L9.74564 6.82532M9.74564 6.82532L9.74597 6.8098C9.75243 6.66857 9.75654 6.52173 9.75882 6.36213L9.74564 6.82532ZM10.5278 5.56301L10.5278 5.56301C10.1038 5.58665 9.76526 5.94002 9.75883 6.36177L10.5278 5.56301ZM10.5278 5.56301C12.2797 5.46524 13.6792 4.8847 14.8669 3.73022L14.8686 3.72864C14.8687 3.72856 14.8688 3.72848 14.8688 3.7284C14.9178 3.68363 14.9749 3.66457 15.0297 3.66539L15.031 3.66541M10.5278 5.56301L15.031 3.66541M15.031 3.66541C15.0836 3.66609 15.1377 3.68483 15.1846 3.72682L15.1853 3.72749C16.3738 4.88377 17.7741 5.46516 19.5274 5.56301L19.5274 5.56301M15.031 3.66541L19.5274 5.56301M19.5274 5.56301C19.9514 5.58665 20.2899 5.93998 20.2964 6.3617L19.5274 5.56301Z" fill="white" stroke="white" stroke-width="1.33073"/>
<path d="M20.9616 6.35218L20.2963 6.3616C20.2986 6.52347 20.3028 6.67123 20.3093 6.81278L20.3094 6.81428C20.3409 8.47748 20.3694 10.3965 19.7344 12.1187C19.3908 13.0499 18.8747 13.8516 18.2021 14.5083C17.5517 15.1434 16.7176 15.6807 15.7049 16.1003V4.18558C16.7786 5.03908 18.0231 5.47896 19.5273 5.56291L19.5274 5.56291C19.9514 5.58655 20.2901 5.94012 20.2963 6.36203L20.9616 6.35218ZM20.9616 6.35218C20.9502 5.58025 20.3364 4.94162 19.5644 4.89858L20.9742 6.78733C20.9679 6.65264 20.9639 6.51047 20.9616 6.35218Z" fill="#00AF71" stroke="white" stroke-width="1.33073"/>
</g>
<path d="M28.736 12.08L28.628 9.836L32.648 5.6H34.808L31.184 9.5L30.104 10.652L28.736 12.08ZM26.996 14V5.6H28.928V14H26.996ZM32.744 14L29.756 10.34L31.028 8.96L35.012 14H32.744ZM37.3457 14V10.568L37.7897 11.744L34.0937 5.6H36.1577L38.9897 10.316H37.8017L40.6457 5.6H42.5537L38.8577 11.744L39.2897 10.568V14H37.3457ZM47.0238 14.144C46.3758 14.144 45.7718 14.04 45.2118 13.832C44.6598 13.616 44.1798 13.312 43.7718 12.92C43.3638 12.528 43.0438 12.068 42.8118 11.54C42.5878 11.012 42.4758 10.432 42.4758 9.8C42.4758 9.168 42.5878 8.588 42.8118 8.06C43.0438 7.532 43.3638 7.072 43.7718 6.68C44.1878 6.288 44.6718 5.988 45.2238 5.78C45.7758 5.564 46.3798 5.456 47.0358 5.456C47.7638 5.456 48.4198 5.584 49.0038 5.84C49.5958 6.088 50.0918 6.456 50.4918 6.944L49.2438 8.096C48.9558 7.768 48.6358 7.524 48.2838 7.364C47.9318 7.196 47.5478 7.112 47.1318 7.112C46.7398 7.112 46.3798 7.176 46.0518 7.304C45.7238 7.432 45.4398 7.616 45.1998 7.856C44.9598 8.096 44.7718 8.38 44.6358 8.708C44.5078 9.036 44.4438 9.4 44.4438 9.8C44.4438 10.2 44.5078 10.564 44.6358 10.892C44.7718 11.22 44.9598 11.504 45.1998 11.744C45.4398 11.984 45.7238 12.168 46.0518 12.296C46.3798 12.424 46.7398 12.488 47.1318 12.488C47.5478 12.488 47.9318 12.408 48.2838 12.248C48.6358 12.08 48.9558 11.828 49.2438 11.492L50.4918 12.644C50.0918 13.132 49.5958 13.504 49.0038 13.76C48.4198 14.016 47.7598 14.144 47.0238 14.144Z" fill="white"/>
<defs>
<clipPath id="clip0_685_5298">
<rect width="14" height="14" fill="white" transform="translate(8 3)"/>
</clipPath>
</defs>
</svg>
