<svg width="7" height="12" viewBox="0 0 7 12" fill="none" xmlns="http://www.w3.org/2000/svg">
<path d="M6.02898 5.64517L0.978034 0.690536C0.964836 0.677486 0.948974 0.669376 0.932271 0.667137C0.915568 0.664899 0.898701 0.668622 0.883607 0.67788C0.868514 0.687138 0.855805 0.701554 0.846941 0.719474C0.838077 0.737394 0.833417 0.758091 0.833497 0.779187V1.86693C0.833497 1.93588 0.859267 2.00202 0.901844 2.04423L4.93543 5.99978L0.901844 9.95533C0.858147 9.99754 0.833497 10.0637 0.833497 10.1326V11.2204C0.833497 11.3146 0.919771 11.3667 0.978034 11.309L6.02898 6.35438C6.07191 6.31233 6.10664 6.25853 6.13053 6.19708C6.15441 6.13564 6.16683 6.06816 6.16683 5.99978C6.16683 5.9314 6.15441 5.86392 6.13053 5.80247C6.10664 5.74103 6.07191 5.68723 6.02898 5.64517Z" fill="#00AF71"/>
</svg>
