<svg width="11" height="6" viewBox="0 0 11 6" fill="none" xmlns="http://www.w3.org/2000/svg">
<path d="M10.8119 5.53454L5.86342 0.470996C5.68378 0.287663 5.31608 0.287663 5.13785 0.470996L0.187924 5.53454C0.175742 5.54699 0.168445 5.5617 0.166841 5.57705C0.165236 5.59239 0.169387 5.60776 0.178834 5.62146C0.18828 5.63516 0.202653 5.64665 0.220359 5.65466C0.238065 5.66267 0.258413 5.66688 0.279147 5.66683H1.33172C1.4033 5.66683 1.47066 5.64079 1.51277 5.59808L5.49993 1.51891L9.4871 5.59808C9.5292 5.64079 9.59657 5.66683 9.66814 5.66683H10.7207C10.8119 5.66683 10.8653 5.58975 10.8119 5.53454Z" fill="#A0D911"/>
</svg>
