<svg width="17" height="16" viewBox="0 0 17 16" fill="none" xmlns="http://www.w3.org/2000/svg">
<circle cx="8.5" cy="8" r="8" fill="url(#paint0_linear_529_8020)"/>
<path d="M5.99316 7.46637C5.99316 8.87895 7.11656 10.0279 8.49768 10.0279C9.8788 10.0279 11.0022 8.87895 11.0022 7.46637C11.0022 6.0673 9.91185 4.93858 8.55055 4.90479H8.44482C7.09013 4.93858 5.99316 6.07406 5.99316 7.46637Z" fill="white"/>
<path d="M12.0463 8.27582L13.9098 4.97077C14.1675 4.51793 13.8437 3.9502 13.3349 3.9502H9.64086C9.58799 3.9502 9.54834 3.99075 9.54834 4.04482C9.54834 4.07185 9.56156 4.09213 9.57477 4.11241C9.58138 4.11917 9.5946 4.12592 9.60781 4.13268C10.9889 4.59904 11.9537 5.917 11.9537 7.47828C11.9537 7.47828 11.9471 7.74188 11.881 8.22175C11.8744 8.27582 11.9207 8.31637 11.9736 8.31637C12 8.30962 12.0264 8.2961 12.0463 8.27582Z" fill="white"/>
<path d="M5.02814 8.30961C5.08101 8.30961 5.13387 8.26906 5.12066 8.21499C5.05457 7.88381 5.04796 7.47152 5.04796 7.47152C5.04796 5.91024 6.01937 4.59904 7.39389 4.13268C7.4071 4.12592 7.41371 4.11917 7.42693 4.11241C7.44675 4.09213 7.45336 4.07185 7.45336 4.04482C7.45336 3.99075 7.41371 3.9502 7.36085 3.9502H3.66684C3.1514 3.9502 2.83421 4.51793 3.09193 4.97077L4.95545 8.27582C4.96867 8.2961 5.00171 8.30961 5.02814 8.30961Z" fill="white"/>
<path d="M10.9286 10.1278C10.9022 10.0805 10.8361 10.0534 10.8031 10.094C10.6048 10.2968 10.2149 10.5266 10.2149 10.5266C8.88669 11.3038 7.28749 11.0943 6.21035 10.1075C6.20374 10.1008 6.19053 10.094 6.17731 10.0872C6.15088 10.0805 6.13105 10.0805 6.10462 10.094C6.05836 10.121 6.04514 10.1751 6.07158 10.2224L7.90867 13.5072C8.16639 13.96 8.80078 13.9668 9.06511 13.5139L10.9418 10.2157C10.9418 10.1886 10.9418 10.1548 10.9286 10.1278Z" fill="white"/>
<defs>
<linearGradient id="paint0_linear_529_8020" x1="0.5" y1="0" x2="15.6395" y2="2.83918" gradientUnits="userSpaceOnUse">
<stop offset="0.244792" stop-color="#00FFFE"/>
<stop offset="1" stop-color="#00A1FA"/>
</linearGradient>
</defs>
</svg>
