<svg width="17" height="16" viewBox="0 0 17 16" fill="none" xmlns="http://www.w3.org/2000/svg">
<path d="M14.2187 9.96869H14.2187V10.1187C14.2187 10.616 13.802 11.0275 13.2818 11.0275H7.62061C7.49832 11.0275 7.37905 11.067 7.28146 11.1403L7.28144 11.1403L5.46915 12.5029L5.46081 11.5698C5.45813 11.2659 5.2056 11.0275 4.90324 11.0275H3.75275C3.23251 11.0275 2.81579 10.616 2.81579 10.1187V3.85389C2.81579 3.35659 3.23251 2.94508 3.75275 2.94508H13.2818C13.802 2.94508 14.2187 3.35659 14.2187 3.85389V9.96869ZM13.2818 1.85098H3.75275C2.62476 1.85098 1.70059 2.74567 1.70059 3.85389V10.1187C1.70059 11.2269 2.62476 12.1216 3.75275 12.1216H4.35051L4.36379 13.6086C4.36379 13.6087 4.36379 13.6087 4.36379 13.6087C4.36562 13.8185 4.48928 14.0068 4.67901 14.0966C4.7561 14.1331 4.83899 14.151 4.92131 14.151C5.04134 14.151 5.16105 14.113 5.26054 14.0381C5.26055 14.0381 5.26056 14.0381 5.26057 14.0381L7.80969 12.1216H13.2818C14.4097 12.1216 15.3339 11.2269 15.3339 10.1187V3.85389C15.3339 2.74567 14.4097 1.85098 13.2818 1.85098Z" fill="#656881" stroke="#656881" stroke-width="0.3"/>
<line x1="5.2666" y1="5.25" x2="11.0999" y2="5.25" stroke="#656881" stroke-width="1.5" stroke-linecap="round"/>
<line x1="5.2666" y1="7.91602" x2="8.43327" y2="7.91602" stroke="#656881" stroke-width="1.5" stroke-linecap="round"/>
</svg>
