<svg width="17" height="16" viewBox="0 0 17 16" fill="none" xmlns="http://www.w3.org/2000/svg">
<path d="M14.6719 4.43126C14.4624 3.94632 14.1604 3.50687 13.7828 3.13751C13.4049 2.76705 12.9593 2.47265 12.4703 2.27032C11.9632 2.05969 11.4194 1.95187 10.8703 1.95314C10.1 1.95314 9.34844 2.16407 8.69531 2.56251C8.53906 2.65782 8.39062 2.76251 8.25 2.87657C8.10938 2.76251 7.96094 2.65782 7.80469 2.56251C7.15156 2.16407 6.4 1.95314 5.62969 1.95314C5.075 1.95314 4.5375 2.05939 4.02969 2.27032C3.53906 2.47345 3.09687 2.76564 2.71719 3.13751C2.33906 3.50645 2.037 3.94601 1.82812 4.43126C1.61094 4.93595 1.5 5.47189 1.5 6.02345C1.5 6.54376 1.60625 7.08595 1.81719 7.63751C1.99375 8.09845 2.24687 8.57657 2.57031 9.05939C3.08281 9.82345 3.7875 10.6203 4.6625 11.4281C6.1125 12.7672 7.54844 13.6922 7.60938 13.7297L7.97969 13.9672C8.14375 14.0719 8.35469 14.0719 8.51875 13.9672L8.88906 13.7297C8.95 13.6906 10.3844 12.7672 11.8359 11.4281C12.7109 10.6203 13.4156 9.82345 13.9281 9.05939C14.2516 8.57657 14.5062 8.09845 14.6812 7.63751C14.8922 7.08595 14.9984 6.54376 14.9984 6.02345C15 5.47189 14.8891 4.93595 14.6719 4.43126Z" fill="#656881"/>
</svg>
