<svg width="17" height="16" viewBox="0 0 17 16" fill="none" xmlns="http://www.w3.org/2000/svg">
<path d="M4.7834 8.80039V2.80039C4.7834 2.5793 4.60449 2.40039 4.3834 2.40039H2.3834C2.1623 2.40039 1.9834 2.5793 1.9834 2.80039V8.80039C1.9834 9.02148 2.1623 9.20039 2.3834 9.20039H4.3834C4.60449 9.20039 4.7834 9.02148 4.7834 8.80039ZM13.9834 7.20039C13.9834 7.62422 13.7623 7.99766 13.4299 8.21094C13.5295 8.38711 13.5834 8.58867 13.5834 8.80039C13.5834 9.46211 13.0451 10.0004 12.3834 10.0004H9.18887C9.19395 10.4711 9.19902 11.2754 9.1834 12.0082C9.1584 13.2676 7.86426 13.6004 7.1834 13.6004C7.0709 13.6004 6.96309 13.5527 6.8873 13.4695C6.81152 13.3863 6.77441 13.2746 6.78535 13.1625C6.86973 12.275 6.93262 10.8742 6.80762 10.5375C6.67637 10.1777 6.09473 9.27969 5.77168 8.80039H5.5834V3.17188C5.86973 3.0625 6.44277 2.85156 6.71777 2.80586C6.73926 2.80234 6.76152 2.80039 6.7834 2.80039H11.9834C12.6451 2.80039 13.1834 3.33867 13.1834 4.00039C13.1834 4.21211 13.1295 4.41367 13.0299 4.58984C13.3623 4.80313 13.5834 5.17656 13.5834 5.60039C13.5834 5.81211 13.5295 6.01367 13.4299 6.18984C13.7623 6.40313 13.9834 6.77656 13.9834 7.20039Z" fill="#656881"/>
</svg>
