<svg width="25" height="24" viewBox="0 0 25 24" fill="none" xmlns="http://www.w3.org/2000/svg">
<g clip-path="url(#clip0_179_12525)">
<path d="M12.5 24C19.1274 24 24.5 18.6274 24.5 12C24.5 5.37258 19.1274 0 12.5 0C5.87258 0 0.5 5.37258 0.5 12C0.5 18.6274 5.87258 24 12.5 24Z" fill="url(#paint0_linear_179_12525)"/>
<path d="M19.856 9.60994C19.7732 9.35541 19.5532 9.16987 19.2884 9.13139L15.0335 8.51311L13.1307 4.65755C13.0122 4.41755 12.7678 4.26562 12.5001 4.26562C12.2325 4.26562 11.9881 4.41755 11.8696 4.65759L9.96678 8.51316L5.71189 9.13144C5.44705 9.16992 5.22697 9.35545 5.14428 9.60998C5.06159 9.86452 5.13059 10.1439 5.32222 10.3307L8.40111 13.3319L7.67427 17.5695C7.62903 17.8333 7.73745 18.0999 7.95397 18.2572C8.17053 18.4146 8.45755 18.4353 8.69445 18.3108L12.5001 16.31L16.3058 18.3108C16.5445 18.4362 16.8314 18.4134 17.0463 18.2572C17.2628 18.0999 17.3713 17.8334 17.3261 17.5695L16.5992 13.3319L19.6781 10.3307C19.8697 10.1439 19.9386 9.86447 19.856 9.60994Z" fill="url(#paint1_linear_179_12525)"/>
</g>
<defs>
<linearGradient id="paint0_linear_179_12525" x1="12.5" y1="24" x2="12.5" y2="0" gradientUnits="userSpaceOnUse">
<stop stop-color="#FD5900"/>
<stop offset="1" stop-color="#FFDE00"/>
</linearGradient>
<linearGradient id="paint1_linear_179_12525" x1="12.5001" y1="18.3915" x2="12.5001" y2="4.26562" gradientUnits="userSpaceOnUse">
<stop stop-color="#FFE59A"/>
<stop offset="1" stop-color="#FFFFD5"/>
</linearGradient>
<clipPath id="clip0_179_12525">
<rect width="24" height="24" fill="white" transform="translate(0.5)"/>
</clipPath>
</defs>
</svg>
