<svg width="25" height="24" viewBox="0 0 25 24" fill="none" xmlns="http://www.w3.org/2000/svg">
<g clip-path="url(#clip0_529_8006)">
<path d="M19.4044 10.3432C15.4264 5.56661 16.333 1.83138 16.9662 0.442706C17.0742 0.205706 16.861 -0.051591 16.6077 0.00897149C13.1886 0.826284 11.1608 2.58072 9.98888 4.60919C9.76556 3.62139 9.68883 2.64836 9.66291 2.04044C9.65147 1.77203 9.32981 1.64125 9.13486 1.82608C7.21463 3.64675 4.03008 9.42068 3.92817 15.1453C3.84188 19.9919 7.7123 24.0328 12.5595 23.9996C17.2671 23.9673 21.0734 20.1411 21.0734 15.426C21.0734 13.5232 20.5353 11.7011 19.4044 10.3432Z" fill="#FF2F32"/>
<path d="M21.0732 15.4259C21.0732 20.1409 17.2671 23.9673 12.5593 23.9997C12.2262 24.0021 11.8973 23.9847 11.5742 23.9495C15.869 23.4825 19.2117 19.8444 19.2117 15.4259C19.2117 13.5233 18.6737 11.7009 17.5428 10.343C13.5821 5.58745 14.4639 1.86337 15.0965 0.461061C15.5673 0.289171 16.07 0.13753 16.6074 0.00904552C16.8609 -0.0517982 17.0739 0.205592 16.9662 0.442686C16.3326 1.83098 15.4263 5.56669 19.4043 10.343C20.5353 11.7009 21.0732 13.5233 21.0732 15.4259Z" fill="#BD1D20"/>
<path d="M16.9934 16.8536C16.9934 19.3353 14.9816 21.3471 12.4999 21.3471C10.0182 21.3471 8.00635 19.3353 8.00635 16.8536C8.00635 14.8036 11.0725 11.1756 12.1393 9.97548C12.3313 9.75948 12.6685 9.75948 12.8605 9.97548C13.9272 11.1756 16.9934 14.8036 16.9934 16.8536Z" fill="#FFD327"/>
<path d="M16.9933 16.8535C16.9933 19.3351 14.9815 21.3473 12.5 21.3473C12.2001 21.3473 11.9065 21.3178 11.623 21.2619C13.6845 20.8538 15.2395 19.0353 15.2395 16.8536C15.2395 15.0746 12.9298 12.1067 11.623 10.5692C11.8225 10.335 11.9982 10.1341 12.1393 9.97572C12.3315 9.75939 12.6685 9.75939 12.8607 9.97572C13.9274 11.1757 16.9933 14.8036 16.9933 16.8535Z" fill="#F5AA3D"/>
</g>
<defs>
<clipPath id="clip0_529_8006">
<rect width="24" height="24" fill="white" transform="translate(0.5)"/>
</clipPath>
</defs>
</svg>
