<svg width="6" height="12" viewBox="0 0 6 12" fill="none" xmlns="http://www.w3.org/2000/svg">
<path d="M5.66634 1.86866V0.780783C5.66634 0.686492 5.58007 0.63442 5.5218 0.692121L0.470839 5.64736C0.427924 5.68928 0.393198 5.74295 0.369312 5.80429C0.345425 5.86563 0.333008 5.93302 0.333008 6.0013C0.333008 6.06959 0.345425 6.13697 0.369312 6.19831C0.393198 6.25965 0.427924 6.31333 0.470839 6.35525L5.5218 11.3105C5.58119 11.3682 5.66634 11.3161 5.66634 11.2218V10.1339C5.66634 10.065 5.64057 9.99884 5.59799 9.95662L1.56439 6.00201L5.59799 2.04598C5.64057 2.00376 5.66634 1.93761 5.66634 1.86866Z" fill="#656881"/>
</svg>
