<svg width="24" height="24" viewBox="0 0 24 24" fill="none" xmlns="http://www.w3.org/2000/svg">
<circle cx="12" cy="12" r="12" fill="white"/>
<path d="M21.1654 6.40232C20.4836 6.69678 19.7571 6.89196 18.9997 6.98673C19.7789 6.52868 20.3736 5.80889 20.6532 4.9413C19.9267 5.36776 19.1246 5.66899 18.2698 5.83709C17.5801 5.11391 16.5969 4.66602 15.5244 4.66602C13.4436 4.66602 11.7684 6.32899 11.7684 8.36766C11.7684 8.66099 11.7936 8.94304 11.8555 9.21155C8.73078 9.0615 5.96589 7.58694 4.10849 5.34068C3.78422 5.89463 3.59401 6.52868 3.59401 7.21125C3.59401 8.49289 4.26432 9.62899 5.26349 10.2867C4.65964 10.2755 4.06724 10.1028 3.56536 9.83094C3.56536 9.84222 3.56536 9.85689 3.56536 9.87155C3.56536 11.6699 4.86818 13.1637 6.57661 13.5078C6.27068 13.5901 5.93724 13.6296 5.5912 13.6296C5.35057 13.6296 5.10766 13.6161 4.87964 13.5664C5.36661 15.032 6.74849 16.1094 8.39161 16.1444C7.11286 17.1293 5.48922 17.7227 3.73151 17.7227C3.42328 17.7227 3.12766 17.7092 2.83203 17.672C4.49693 18.7291 6.47005 19.3327 8.59786 19.3327C15.5141 19.3327 19.2954 13.6917 19.2954 8.80202C19.2954 8.63843 19.2896 8.48048 19.2816 8.32366C20.0276 7.80243 20.6543 7.15145 21.1654 6.40232Z" fill="#03A9F4"/>
</svg>
