<svg width="20" height="15" viewBox="0 0 20 15" fill="none" xmlns="http://www.w3.org/2000/svg">
<path d="M15.6273 14.5642H12.3948H11.5243H11.3363V10.2283H12.7544C13.114 10.2283 13.3265 9.81965 13.114 9.52541L10.3555 5.70849C10.1798 5.46329 9.8161 5.46329 9.64038 5.70849L6.8819 9.52541C6.66939 9.81965 6.87781 10.2283 7.24152 10.2283H8.65958V14.5642H8.4716H7.60114H3.8537C1.70821 14.4457 0 12.4392 0 10.2651C0 8.7653 0.813241 7.45757 2.0188 6.75058C1.90846 6.45226 1.85125 6.1335 1.85125 5.7984C1.85125 4.26591 3.0895 3.02766 4.62199 3.02766C4.953 3.02766 5.27176 3.08487 5.57009 3.19521C6.45689 1.31536 8.36943 0.0117188 10.5926 0.0117188C13.4696 0.0158054 15.8398 2.2185 16.1095 5.02602C18.3204 5.40608 20 7.45349 20 9.77061C20 12.2471 18.0711 14.3926 15.6273 14.5642Z" fill="#E8E8E8"/>
</svg>
