<svg width="20" height="20" viewBox="0 0 20 20" fill="none" xmlns="http://www.w3.org/2000/svg">
<path d="M10.0932 5.29688C10.4213 5.29688 10.6873 5.56024 10.6873 5.88511V9.41452H14.2516C14.5797 9.41452 14.8456 9.67788 14.8456 10.0028C14.8456 10.3276 14.5797 10.591 14.2516 10.591H10.6873V14.1204C10.6873 14.4453 10.4213 14.7086 10.0932 14.7086C9.76514 14.7086 9.49917 14.4453 9.49917 14.1204V10.591H5.93487C5.60679 10.591 5.34082 10.3276 5.34082 10.0028C5.34082 9.67788 5.60679 9.41452 5.93487 9.41452H9.49917V5.88511C9.49917 5.56024 9.76514 5.29688 10.0932 5.29688Z" fill="white"/>
</svg>
