<svg width="25" height="25" viewBox="0 0 25 25" fill="none" xmlns="http://www.w3.org/2000/svg">
<path d="M1.35167 21.865L13.8392 9.3774L11.4273 6.96972C11.0296 7.32042 10.418 7.30327 10.0417 6.92695C9.64821 6.52925 9.64821 5.892 10.0417 5.4943L15.2419 0.298274C15.6354 -0.0994246 16.2769 -0.0994246 16.6703 0.298274C17.068 0.69174 17.068 1.33323 16.6703 1.72664L16.7131 1.68387L23.3161 8.28259L23.2734 8.32959C23.6668 7.93189 24.3083 7.93189 24.7017 8.32959C25.0994 8.72305 25.0994 9.36454 24.7017 9.75801L19.5057 14.9583C19.108 15.3517 18.4665 15.3517 18.073 14.9583C17.6796 14.5606 17.6796 13.9234 18.073 13.5257L18.0303 13.5684L15.6183 11.1607L3.13502 23.644C2.64322 24.1358 1.84348 24.1358 1.35167 23.644C0.859867 23.1522 0.859867 22.3568 1.35167 21.865Z" fill="white"/>
</svg>
