<svg width="26" height="26" viewBox="0 0 26 26" fill="none" xmlns="http://www.w3.org/2000/svg">
<rect width="26" height="26" rx="13" fill="white"/>
<g clip-path="url(#clip0_813_6753)">
<path d="M14.034 14.6911C14.124 14.6911 14.2139 14.6568 14.2826 14.5882C14.4198 14.4509 14.4198 14.2283 14.2826 14.091C13.5753 13.3837 12.4245 13.3837 11.7172 14.091C11.5799 14.2283 11.5799 14.4509 11.7172 14.5882C11.8545 14.7254 12.077 14.7254 12.2144 14.5882C12.6475 14.155 13.3523 14.155 13.7855 14.5882C13.8541 14.6568 13.9441 14.6911 14.034 14.6911Z" fill="#262626"/>
<path d="M15.0681 13.6578C15.1581 13.6578 15.248 13.6235 15.3167 13.5549C15.4539 13.4176 15.4539 13.195 15.3167 13.0577C14.0392 11.7802 11.9605 11.7802 10.683 13.0577C10.5458 13.195 10.5458 13.4176 10.683 13.5549C10.8203 13.6921 11.0428 13.6921 11.1802 13.5549C12.1835 12.5515 13.8162 12.5515 14.8195 13.5549C14.8882 13.6235 14.9781 13.6578 15.0681 13.6578Z" fill="#262626"/>
<path d="M9.64201 12.0158C9.50475 12.1531 9.50475 12.3757 9.64201 12.513C9.77932 12.6502 10.0018 12.6502 10.1392 12.513C10.9032 11.7489 11.9191 11.328 12.9997 11.328C14.0803 11.328 15.0963 11.7489 15.8603 12.513C15.929 12.5816 16.0189 12.6159 16.1089 12.6159C16.1988 12.6159 16.2888 12.5816 16.3574 12.513C16.4947 12.3757 16.4947 12.1531 16.3574 12.0158C15.4605 11.1189 14.2681 10.625 12.9997 10.625C11.7313 10.625 10.5389 11.1189 9.64201 12.0158Z" fill="#262626"/>
<path d="M12.998 15.0234C12.8039 15.0234 12.6465 15.1808 12.6465 15.375C12.6465 15.5691 12.8057 15.7265 12.9998 15.7265C13.194 15.7265 13.3532 15.5691 13.3532 15.375C13.3532 15.1808 13.1958 15.0234 13.0017 15.0234H12.998Z" fill="#262626"/>
<path d="M17.5115 10.8596C17.4282 10.6843 17.2185 10.6097 17.0431 10.693C16.8678 10.7764 16.7932 10.9861 16.8765 11.1614C17.1505 11.7378 17.2894 12.3565 17.2894 13.0001C17.2894 15.3652 15.3652 17.2894 13.0001 17.2894C10.635 17.2894 8.71085 15.3652 8.71085 13.0001C8.71085 10.635 10.635 8.71085 13.0001 8.71085C13.6438 8.71085 14.2624 8.84977 14.8389 9.12374C15.0141 9.20705 15.2239 9.13253 15.3072 8.95719C15.3906 8.78185 15.316 8.57214 15.1407 8.48883C14.4692 8.16965 13.749 8.00781 13.0001 8.00781C10.2473 8.00781 8.00781 10.2474 8.00781 13.0001C8.00781 15.7529 10.2474 17.9924 13.0001 17.9924C15.7529 17.9924 17.9924 15.7529 17.9924 13.0001C17.9924 12.2513 17.8306 11.5311 17.5115 10.8596Z" fill="#262626"/>
<path d="M6.51239 7.7767C6.73371 7.7767 6.94184 7.71944 7.12301 7.61915L8.2581 8.75424C8.32675 8.82285 8.4167 8.8572 8.50665 8.8572C8.59661 8.8572 8.68656 8.82285 8.75521 8.75424C8.89248 8.61697 8.89248 8.39439 8.75521 8.25709L7.62013 7.122C7.72038 6.94083 7.77768 6.7327 7.77768 6.51138C7.77768 5.81369 7.21008 5.24609 6.51239 5.24609C5.81467 5.24609 5.24707 5.81369 5.24707 6.51138C5.24707 7.20907 5.81467 7.7767 6.51239 7.7767ZM6.51239 5.94913C6.82239 5.94913 7.07464 6.20138 7.07464 6.51138C7.07464 6.82142 6.82239 7.07367 6.51239 7.07367C6.20235 7.07367 5.9501 6.82142 5.9501 6.51138C5.9501 6.20134 6.20232 5.94913 6.51239 5.94913Z" fill="#262626"/>
<path d="M13.3515 19.9512V19.0467C13.3515 18.8526 13.1941 18.6952 13 18.6952C9.85955 18.6952 7.30465 16.1403 7.30465 12.9999C7.30465 12.8058 7.14724 12.6483 6.95313 12.6483H6.04864C5.90354 12.2392 5.51282 11.9453 5.05455 11.9453C4.47307 11.9453 4 12.4184 4 12.9999C4 13.5813 4.47307 14.0544 5.05455 14.0544C5.51279 14.0544 5.90354 13.7605 6.04864 13.3514H6.61114C6.6928 14.8512 7.29368 16.215 8.23634 17.2664L7.12291 18.3798C6.94174 18.2795 6.73361 18.2223 6.51229 18.2223C5.81457 18.2223 5.24697 18.7899 5.24697 19.4876C5.24697 20.1853 5.81457 20.7529 6.51229 20.7529C7.20998 20.7529 7.77758 20.1853 7.77758 19.4876C7.77758 19.2663 7.72032 19.0582 7.62003 18.877L8.7335 17.7636C9.78488 18.7062 11.1487 19.3071 12.6485 19.3888V19.9513C12.2394 20.0964 11.9454 20.4871 11.9454 20.9453C11.9454 21.5268 12.4185 21.9999 13 21.9999C13.5815 21.9999 14.0546 21.5268 14.0546 20.9453C14.0546 20.487 13.7606 20.0963 13.3515 19.9512ZM5.05455 13.3513C4.86073 13.3513 4.70303 13.1937 4.70303 12.9998C4.70303 12.806 4.86073 12.6483 5.05455 12.6483C5.24838 12.6483 5.40607 12.806 5.40607 12.9998C5.40607 13.1937 5.24838 13.3513 5.05455 13.3513ZM6.51229 20.0498C6.20226 20.0498 5.95001 19.7976 5.95001 19.4876C5.95001 19.1775 6.20226 18.9253 6.51229 18.9253C6.8223 18.9253 7.07455 19.1775 7.07455 19.4876C7.07455 19.7976 6.8223 20.0498 6.51229 20.0498ZM13 21.2968C12.8062 21.2968 12.6485 21.1391 12.6485 20.9453C12.6485 20.7515 12.8062 20.5938 13 20.5938C13.1938 20.5938 13.3515 20.7515 13.3515 20.9453C13.3515 21.1391 13.1938 21.2968 13 21.2968Z" fill="#262626"/>
<path d="M20.9453 11.9454C20.4871 11.9454 20.0964 12.2394 19.9513 12.6485H19.3888C19.3071 11.1487 18.7062 9.78488 17.7636 8.73346L18.877 7.62003C19.0582 7.72032 19.2663 7.77758 19.4876 7.77758C20.1853 7.77758 20.7529 7.20998 20.7529 6.51226C20.7529 5.81457 20.1853 5.24697 19.4876 5.24697C18.7899 5.24697 18.2223 5.81457 18.2223 6.51226C18.2223 6.73357 18.2796 6.94171 18.3798 7.12288L17.2664 8.23631C16.215 7.29365 14.8512 6.69276 13.3514 6.6111V6.04864C13.7605 5.90354 14.0544 5.51279 14.0544 5.05455C14.0544 4.47307 13.5813 4 12.9999 4C12.4184 4 11.9453 4.47307 11.9453 5.05455C11.9453 5.51279 12.2392 5.90354 12.6483 6.04864V6.95313C12.6483 7.14724 12.8058 7.30465 12.9999 7.30465C16.1403 7.30465 18.6952 9.85958 18.6952 13C18.6952 13.1941 18.8526 13.3515 19.0467 13.3515H19.9512C20.0963 13.7606 20.487 14.0546 20.9453 14.0546C21.5268 14.0546 21.9999 13.5815 21.9999 13C21.9999 12.4185 21.5268 11.9454 20.9453 11.9454ZM12.9999 4.70303C13.1937 4.70303 13.3514 4.86073 13.3514 5.05455C13.3514 5.24838 13.1937 5.40607 12.9999 5.40607C12.8061 5.40607 12.6484 5.24838 12.6484 5.05455C12.6484 4.86073 12.8061 4.70303 12.9999 4.70303ZM19.4876 5.95004C19.7977 5.95004 20.0499 6.20229 20.0499 6.51229C20.0499 6.82233 19.7977 7.07458 19.4876 7.07458C19.1776 7.07458 18.9254 6.82233 18.9254 6.51229C18.9254 6.20226 19.1776 5.95004 19.4876 5.95004ZM20.9453 13.3515C20.7515 13.3515 20.5938 13.1938 20.5938 13C20.5938 12.8062 20.7515 12.6485 20.9453 12.6485C21.1392 12.6485 21.2969 12.8062 21.2969 13C21.2969 13.1938 21.1392 13.3515 20.9453 13.3515Z" fill="#262626"/>
<path d="M19.4874 18.223C19.2661 18.223 19.058 18.2803 18.8768 18.3806L17.7417 17.2455C17.6044 17.1083 17.3819 17.1083 17.2446 17.2455C17.1073 17.3828 17.1073 17.6054 17.2446 17.7427L18.3796 18.8777C18.2794 19.0589 18.2221 19.267 18.2221 19.4884C18.2221 20.186 18.7897 20.7536 19.4874 20.7536C20.1851 20.7536 20.7527 20.186 20.7527 19.4884C20.7527 18.7906 20.1851 18.223 19.4874 18.223ZM19.4874 20.0506C19.1774 20.0506 18.9252 19.7984 18.9252 19.4884C18.9252 19.1783 19.1774 18.9261 19.4874 18.9261C19.7974 18.9261 20.0497 19.1783 20.0497 19.4884C20.0497 19.7984 19.7974 20.0506 19.4874 20.0506Z" fill="#262626"/>
<path d="M16.2812 10.0702C16.4753 10.0702 16.6327 9.91284 16.6327 9.7187C16.6327 9.52457 16.4753 9.36719 16.2812 9.36719C16.0871 9.36719 15.9297 9.52457 15.9297 9.7187C15.9297 9.91284 16.0871 10.0702 16.2812 10.0702Z" fill="#262626"/>
</g>
<defs>
<clipPath id="clip0_813_6753">
<rect width="18" height="18" fill="white" transform="translate(4 4)"/>
</clipPath>
</defs>
</svg>
