<svg width="20" height="20" viewBox="0 0 20 20" fill="none" xmlns="http://www.w3.org/2000/svg">
<path d="M18.7633 9.49689C18.8477 9.21564 18.8898 8.92502 18.8898 8.62971C18.8898 7.96642 18.6719 7.32893 18.2781 6.80861C18.3625 6.52736 18.4047 6.23674 18.4047 5.94143C18.4047 5.27814 18.1867 4.64064 17.793 4.12033C17.8773 3.83908 17.9195 3.54846 17.9195 3.25314C17.9195 2.04377 17.2 0.953926 16.0844 0.478144C15.8883 0.393602 15.6768 0.350513 15.4633 0.351582H1.375C0.960156 0.351582 0.625 0.686738 0.625 1.10158V9.63283C0.625 10.0477 0.960156 10.3828 1.375 10.3828H4.40547L6.41641 17.6672C6.73984 18.8414 7.81797 19.6617 9.03672 19.6617C9.73281 19.6617 10.382 19.3852 10.8625 18.8789C11.343 18.375 11.5891 17.7141 11.5539 17.018L11.4133 14.1375H17.0359C17.3195 14.1375 17.5961 14.0625 17.8398 13.9195C18.7867 13.3688 19.375 12.3703 19.375 11.318C19.375 10.6547 19.157 10.0172 18.7633 9.49689ZM2.3125 8.69299V2.03674H4.21094V8.69299H2.3125ZM17.0125 12.4524H9.64375L9.86875 17.1024C9.88281 17.3813 9.75859 17.6438 9.52656 17.8172C9.38359 17.9227 9.20781 17.9766 9.03203 17.9742C8.80746 17.9721 8.58965 17.8971 8.41131 17.7606C8.23297 17.6241 8.10372 17.4334 8.04297 17.2172L5.71094 8.76799V2.03674H15.4469C15.6811 2.14173 15.8801 2.31216 16.0198 2.52754C16.1595 2.74292 16.234 2.99408 16.2344 3.2508C16.2344 3.47814 16.1805 3.69377 16.0727 3.89064L15.7469 4.48596L16.2602 4.93127C16.4046 5.0564 16.5204 5.21118 16.5997 5.3851C16.679 5.55901 16.7199 5.74796 16.7195 5.93908C16.7195 6.16643 16.6656 6.38205 16.5578 6.57893L16.232 7.17424L16.7453 7.61955C16.8898 7.74468 17.0056 7.89947 17.0849 8.07338C17.1641 8.24729 17.205 8.43624 17.2047 8.62736C17.2047 8.85471 17.1508 9.07033 17.043 9.26721L16.7148 9.86486L17.2281 10.3102C17.3726 10.4353 17.4884 10.5901 17.5677 10.764C17.647 10.9379 17.6878 11.1269 17.6875 11.318C17.6875 11.7656 17.4297 12.1969 17.0125 12.4524Z" fill="white"/>
</svg>
