<svg width="20" height="20" viewBox="0 0 20 20" fill="none" xmlns="http://www.w3.org/2000/svg">
<path d="M18.7633 10.5149C19.157 9.99455 19.375 9.35705 19.375 8.69377C19.375 7.64142 18.7867 6.64533 17.8398 6.08986C17.5961 5.94688 17.3185 5.87163 17.0359 5.87189H11.4156L11.5563 2.99142C11.5891 2.29533 11.343 1.63439 10.8648 1.13049C10.6302 0.882114 10.3471 0.684501 10.0331 0.549858C9.71905 0.415215 9.38074 0.346402 9.03906 0.347674C7.82031 0.347674 6.74219 1.16799 6.41875 2.3422L4.40547 9.63127H1.375C0.960156 9.63127 0.625 9.96642 0.625 10.3813V18.9125C0.625 19.3274 0.960156 19.6625 1.375 19.6625H15.468C15.6836 19.6625 15.8945 19.6203 16.0891 19.536C17.2047 19.0602 17.9242 17.9703 17.9242 16.761C17.9242 16.4656 17.882 16.175 17.7977 15.8938C18.1914 15.3735 18.4094 14.736 18.4094 14.0727C18.4094 13.7774 18.3672 13.4867 18.2828 13.2055C18.6766 12.6852 18.8945 12.0477 18.8945 11.3844C18.8898 11.0891 18.8477 10.7961 18.7633 10.5149ZM2.3125 17.975V11.3188H4.21094V17.975H2.3125ZM17.2281 9.70158L16.7148 10.1469L17.0406 10.7422C17.148 10.9383 17.2036 11.1585 17.2023 11.382C17.2023 11.7688 17.0336 12.1367 16.743 12.3899L16.2297 12.8352L16.5555 13.4305C16.6628 13.6266 16.7185 13.8468 16.7172 14.0703C16.7172 14.457 16.5484 14.825 16.2578 15.0781L15.7445 15.5235L16.0703 16.1188C16.1776 16.3149 16.2333 16.5351 16.232 16.7586C16.232 17.2836 15.9227 17.757 15.4445 17.9727H5.71094V11.2438L8.04297 2.79455C8.1031 2.57799 8.23219 2.38693 8.41066 2.25032C8.58914 2.11372 8.80728 2.03901 9.03203 2.03752C9.21016 2.03752 9.38594 2.08908 9.52656 2.19455C9.75859 2.36799 9.88281 2.63049 9.86875 2.90939L9.64375 7.55939H17.0125C17.4297 7.81486 17.6875 8.24611 17.6875 8.69377C17.6875 9.08049 17.5188 9.44611 17.2281 9.70158Z" fill="white"/>
</svg>
