<svg width="17" height="18" viewBox="0 0 17 18" fill="none" xmlns="http://www.w3.org/2000/svg">
<path d="M13.3623 11.4733C12.3974 11.4733 11.5472 11.948 11.0131 12.6698L6.39583 10.3055C6.47249 10.0442 6.52637 9.77337 6.52637 9.48763C6.52637 9.10007 6.44691 8.73161 6.30964 8.39271L11.1418 5.4849C11.6796 6.11602 12.47 6.52539 13.3623 6.52539C14.9778 6.52539 16.292 5.21123 16.292 3.5957C16.292 1.98018 14.9778 0.666016 13.3623 0.666016C11.7468 0.666016 10.4326 1.98018 10.4326 3.5957C10.4326 3.968 10.5093 4.32116 10.6365 4.64902L5.78988 7.56536C5.25257 6.953 4.47354 6.55794 3.59668 6.55794C1.98115 6.55794 0.666992 7.8721 0.666992 9.48763C0.666992 11.1032 1.98115 12.4173 3.59668 12.4173C4.57747 12.4173 5.44209 11.9287 5.97412 11.1867L10.5762 13.5433C10.4914 13.8169 10.4326 14.1019 10.4326 14.403C10.4326 16.0185 11.7468 17.3327 13.3623 17.3327C14.9778 17.3327 16.292 16.0185 16.292 14.403C16.292 12.7875 14.9778 11.4733 13.3623 11.4733Z" fill="#FAFAFA"/>
</svg>
