<svg width="87" height="89" viewBox="0 0 87 89" fill="none" xmlns="http://www.w3.org/2000/svg">
<path d="M84.2207 18.5586C85.2988 18.5586 86.1738 19.4336 86.1738 20.5117C86.1738 21.5898 85.2988 22.4648 84.2207 22.4648C83.1426 22.4648 82.2676 21.5898 82.2676 20.5117C82.2676 19.4336 83.1426 18.5586 84.2207 18.5586Z" fill="#94D4FF"/>
<path d="M84.2207 69.3398C85.2988 69.3398 86.1738 70.2148 86.1738 71.293C86.1738 72.3711 85.2988 73.2461 84.2207 73.2461C83.1426 73.2461 82.2676 72.3711 82.2676 71.293C82.2676 70.2148 83.1426 69.3398 84.2207 69.3398Z" fill="#94D4FF"/>
<path d="M74.4551 81.0586C76.6133 81.0586 78.3613 82.8066 78.3613 84.9648C78.3613 87.123 76.6133 88.8711 74.4551 88.8711C72.2969 88.8711 70.5488 87.123 70.5488 84.9648C70.5488 82.8066 72.2969 81.0586 74.4551 81.0586Z" fill="#3256C1"/>
<path d="M70.5488 0.980469C71.627 0.980469 72.502 1.85547 72.502 2.93359C72.502 4.01172 71.627 4.88672 70.5488 4.88672C69.4707 4.88672 68.5957 4.01172 68.5957 2.93359C68.5957 1.85547 69.4707 0.980469 70.5488 0.980469Z" fill="#94D4FF"/>
<path d="M43.2051 6.83984C21.6309 6.83984 4.14258 24.3281 4.14258 45.9023C4.14258 67.4766 21.6309 84.9648 43.2051 84.9648C64.7793 84.9648 82.2676 67.4766 82.2676 45.9023C82.2676 24.3281 64.7793 6.83984 43.2051 6.83984Z" fill="#FFD400"/>
<path d="M43.2051 75.1992C27.0254 75.1992 13.9082 62.082 13.9082 45.9023C13.9082 29.7227 27.0254 16.6055 43.2051 16.6055C59.3848 16.6055 72.502 29.7227 72.502 45.9023C72.502 62.082 59.3848 75.1992 43.2051 75.1992Z" fill="white"/>
<path d="M57.7264 36.668C59.252 38.1934 59.252 40.666 57.7264 42.1914L43.9158 56.0039L38.3924 61.5273L32.867 56.0039L28.7244 51.8594C27.9629 51.0977 27.5801 50.0977 27.5801 49.0977C27.5801 48.0977 27.9629 47.0977 28.7244 46.3357C30.25 44.8104 32.7227 44.8104 34.2479 46.3357L38.3924 50.4783L52.2031 36.668C52.9668 35.9063 53.9648 35.5234 54.9648 35.5234C55.9648 35.5234 56.9629 35.9063 57.7264 36.668Z" fill="#07CC66"/>
<path d="M13.9082 84.9648C14.9863 84.9648 15.8613 85.8398 15.8613 86.918C15.8613 87.9961 14.9863 88.8711 13.9082 88.8711C12.8299 88.8711 11.9551 87.9961 11.9551 86.918C11.9551 85.8398 12.8299 84.9648 13.9082 84.9648Z" fill="#94D4FF"/>
<path d="M9.02539 4.88672C11.7227 4.88672 13.9082 7.07227 13.9082 9.76953C13.9082 12.4668 11.7227 14.6523 9.02539 14.6523C6.32793 14.6523 4.14258 12.4668 4.14258 9.76953C4.14258 7.07227 6.32793 4.88672 9.02539 4.88672Z" fill="#3256C1"/>
<path d="M2.18945 20.5117C3.26758 20.5117 4.14258 21.3867 4.14258 22.4648C4.14258 23.543 3.26758 24.418 2.18945 24.418C1.11113 24.418 0.236328 23.543 0.236328 22.4648C0.236328 21.3867 1.11113 20.5117 2.18945 20.5117Z" fill="#94D4FF"/>
<path d="M2.18945 69.3398C3.26758 69.3398 4.14258 70.2148 4.14258 71.293C4.14258 72.3711 3.26758 73.2461 2.18945 73.2461C1.11113 73.2461 0.236328 72.3711 0.236328 71.293C0.236328 70.2148 1.11113 69.3398 2.18945 69.3398Z" fill="#94D4FF"/>
<path d="M66.6426 45.9023C66.6426 44.8236 65.768 43.9492 64.6895 43.9492C63.6109 43.9492 62.7363 44.8236 62.7363 45.9023C62.7363 56.6721 53.9748 65.4336 43.2051 65.4336C42.1264 65.4336 41.252 66.3082 41.252 67.3867V75.1328C41.8977 75.1754 42.5486 75.1992 43.2051 75.1992C43.8615 75.1992 44.5123 75.1754 45.1582 75.1328V69.2592C57.1711 68.2633 66.6426 58.168 66.6426 45.9023Z" fill="#D0DCE7"/>
<path d="M19.7676 45.9023C19.7676 46.9809 20.642 47.8555 21.7207 47.8555C22.7992 47.8555 23.6738 46.9809 23.6738 45.9023C23.6738 35.1328 32.4354 26.3711 43.2051 26.3711C44.2836 26.3711 45.1582 25.4967 45.1582 24.418V16.6719C44.5123 16.6293 43.8615 16.6055 43.2051 16.6055C42.5486 16.6055 41.8977 16.6293 41.252 16.6719V22.5455C29.2391 23.5414 19.7676 33.6367 19.7676 45.9023Z" fill="#D0DCE7"/>
</svg>
