<svg width="26" height="26" viewBox="0 0 26 26" fill="none" xmlns="http://www.w3.org/2000/svg">
<rect width="26" height="26" rx="13" fill="white"/>
<path d="M21.8157 12.5379L17.6531 8.1279C17.3973 7.85657 16.9703 7.84419 16.6989 8.10023C16.428 8.35607 16.4154 8.78332 16.6715 9.05445L20.3968 13.001L16.6715 16.948C16.4154 17.2191 16.428 17.6461 16.6989 17.9022C16.8294 18.0253 16.9961 18.0862 17.1622 18.0862C17.3416 18.0862 17.5206 18.0151 17.6532 17.8749L21.8157 13.4647C22.0611 13.2044 22.0611 12.798 21.8157 12.5379Z" fill="#262626"/>
<path d="M9.32851 16.9458L5.6034 12.9991L9.32851 9.05234C9.58434 8.78121 9.57196 8.35392 9.30084 8.09812C9.02992 7.84229 8.60242 7.85467 8.34662 8.12579L4.1841 12.5358C3.93863 12.7959 3.93863 13.2025 4.1841 13.4626L8.34683 17.8728C8.47958 18.0135 8.65846 18.0843 8.83779 18.0843C9.00384 18.0843 9.17058 18.0231 9.30084 17.9001C9.57221 17.6442 9.58434 17.217 9.32851 16.9458Z" fill="#262626"/>
<path d="M14.0921 5.85342C13.7238 5.79762 13.379 6.0505 13.3228 6.41884L11.3428 19.3789C11.2865 19.7475 11.5397 20.092 11.9082 20.1482C11.9429 20.1534 11.977 20.1559 12.011 20.1559C12.3389 20.1559 12.6264 19.9167 12.6775 19.5828L14.6575 6.62271C14.7138 6.25413 14.4606 5.90967 14.0921 5.85342Z" fill="#262626"/>
</svg>
