<svg width="12" height="6" viewBox="0 0 12 6" fill="none" xmlns="http://www.w3.org/2000/svg">
<path d="M11.3124 5.53503L6.36391 0.471484C6.18427 0.288151 5.81657 0.288151 5.63833 0.471484L0.688412 5.53503C0.676231 5.54748 0.668933 5.56219 0.667329 5.57754C0.665724 5.59288 0.669876 5.60825 0.679322 5.62195C0.688769 5.63565 0.703141 5.64714 0.720848 5.65515C0.738554 5.66316 0.758901 5.66737 0.779635 5.66732H1.83221C1.90379 5.66732 1.97115 5.64128 2.01326 5.59857L6.00042 1.5194L9.98759 5.59857C10.0297 5.64128 10.0971 5.66732 10.1686 5.66732H11.2212C11.3124 5.66732 11.3658 5.59023 11.3124 5.53503Z" fill="#2EB553"/>
</svg>
