<svg width="12" height="6" viewBox="0 0 12 6" fill="none" xmlns="http://www.w3.org/2000/svg">
<path d="M11.3119 5.53454L6.36342 0.470996C6.18378 0.287663 5.81608 0.287663 5.63785 0.470996L0.687924 5.53454C0.675742 5.54699 0.668445 5.5617 0.666841 5.57705C0.665236 5.59239 0.669387 5.60776 0.678834 5.62146C0.68828 5.63516 0.702653 5.64665 0.720359 5.65466C0.738065 5.66267 0.758413 5.66688 0.779147 5.66683H1.83172C1.9033 5.66683 1.97066 5.64079 2.01277 5.59808L5.99993 1.51891L9.9871 5.59808C10.0292 5.64079 10.0966 5.66683 10.1681 5.66683H11.2207C11.3119 5.66683 11.3653 5.58975 11.3119 5.53454Z" fill="#2EB553"/>
</svg>
