<svg width="18" height="18" viewBox="0 0 18 18" fill="none" xmlns="http://www.w3.org/2000/svg">
<path d="M10.5345 1.68133L7.42352 1.67383H7.42202C4.14152 1.67383 1.57202 4.24408 1.57202 7.52533C1.57202 10.5988 3.96152 12.9298 7.17077 13.0528V15.9238C7.17077 16.0048 7.20377 16.1383 7.26077 16.2261C7.36727 16.3948 7.54877 16.4863 7.73477 16.4863C7.83827 16.4863 7.94252 16.4578 8.03627 16.3978C8.23427 16.2718 12.891 13.2928 14.1023 12.2683C15.5288 11.0608 16.3823 9.29083 16.3845 7.53433V7.52158C16.38 4.24633 13.812 1.68133 10.5345 1.68058V1.68133ZM13.3748 11.4103C12.5243 12.1303 9.72827 13.9641 8.29577 14.8926V12.5023C8.29577 12.1918 8.04452 11.9398 7.73327 11.9398H7.43627C4.69127 11.9398 2.69777 10.0828 2.69777 7.52533C2.69777 4.87483 4.77377 2.79883 7.42277 2.79883L10.533 2.80633H10.5345C13.1835 2.80633 15.2595 4.88083 15.261 7.52833C15.2588 8.96083 14.5545 10.4113 13.3755 11.4103H13.3748Z" fill="#6E767D"/>
</svg>
