<svg width="26" height="26" viewBox="0 0 26 26" fill="none" xmlns="http://www.w3.org/2000/svg">
<rect width="26" height="26" rx="13" fill="white"/>
<g clip-path="url(#clip0_697_9681)">
<path d="M14.034 14.6916C14.124 14.6916 14.2139 14.6573 14.2826 14.5887C14.4198 14.4514 14.4198 14.2288 14.2826 14.0915C13.5753 13.3842 12.4245 13.3842 11.7172 14.0915C11.5799 14.2288 11.5799 14.4513 11.7172 14.5887C11.8545 14.7259 12.077 14.7259 12.2144 14.5887C12.6475 14.1555 13.3523 14.1555 13.7855 14.5887C13.8541 14.6573 13.9441 14.6916 14.034 14.6916Z" fill="#262626"/>
<path d="M15.0681 13.6573C15.1581 13.6573 15.248 13.623 15.3167 13.5544C15.4539 13.4171 15.4539 13.1945 15.3167 13.0572C14.0392 11.7798 11.9605 11.7798 10.683 13.0572C10.5458 13.1945 10.5458 13.4171 10.683 13.5544C10.8203 13.6916 11.0428 13.6916 11.1802 13.5544C12.1835 12.551 13.8162 12.551 14.8195 13.5544C14.8882 13.623 14.9781 13.6573 15.0681 13.6573Z" fill="#262626"/>
<path d="M9.6425 12.0168C9.50523 12.1541 9.50523 12.3766 9.6425 12.5139C9.7798 12.6512 10.0023 12.6512 10.1397 12.5139C10.9037 11.7498 11.9196 11.329 13.0002 11.329C14.0808 11.329 15.0967 11.7498 15.8608 12.5139C15.9295 12.5826 16.0194 12.6169 16.1094 12.6169C16.1993 12.6169 16.2893 12.5826 16.3579 12.5139C16.4952 12.3767 16.4952 12.1541 16.3579 12.0168C15.461 11.1199 14.2686 10.626 13.0002 10.626C11.7318 10.626 10.5394 11.1199 9.6425 12.0168Z" fill="#262626"/>
<path d="M12.998 15.0229C12.8039 15.0229 12.6465 15.1804 12.6465 15.3745C12.6465 15.5686 12.8057 15.726 12.9998 15.726C13.194 15.726 13.3532 15.5686 13.3532 15.3745C13.3532 15.1804 13.1958 15.0229 13.0017 15.0229H12.998Z" fill="#262626"/>
<path d="M17.5115 10.8596C17.4282 10.6843 17.2185 10.6097 17.0431 10.693C16.8678 10.7764 16.7932 10.9861 16.8765 11.1614C17.1505 11.7378 17.2894 12.3565 17.2894 13.0001C17.2894 15.3652 15.3652 17.2894 13.0001 17.2894C10.635 17.2894 8.71085 15.3652 8.71085 13.0001C8.71085 10.635 10.635 8.71085 13.0001 8.71085C13.6438 8.71085 14.2624 8.84977 14.8389 9.12374C15.0141 9.20705 15.2239 9.13253 15.3072 8.95719C15.3906 8.78185 15.316 8.57214 15.1407 8.48883C14.4692 8.16965 13.749 8.00781 13.0001 8.00781C10.2473 8.00781 8.00781 10.2474 8.00781 13.0001C8.00781 15.7529 10.2474 17.9924 13.0001 17.9924C15.7529 17.9924 17.9924 15.7529 17.9924 13.0001C17.9924 12.2513 17.8306 11.5311 17.5115 10.8596Z" fill="#262626"/>
<path d="M6.51239 7.77768C6.73371 7.77768 6.94184 7.72042 7.12301 7.62013L8.2581 8.75521C8.32675 8.82383 8.4167 8.85817 8.50665 8.85817C8.59661 8.85817 8.68656 8.82383 8.75521 8.75521C8.89248 8.61794 8.89248 8.39536 8.75521 8.25806L7.62013 7.12298C7.72038 6.94181 7.77768 6.73367 7.77768 6.51236C7.77768 5.81467 7.21008 5.24707 6.51239 5.24707C5.81467 5.24707 5.24707 5.81467 5.24707 6.51236C5.24707 7.21005 5.81467 7.77768 6.51239 7.77768ZM6.51239 5.9501C6.82239 5.9501 7.07464 6.20235 7.07464 6.51236C7.07464 6.82239 6.82239 7.07464 6.51239 7.07464C6.20235 7.07464 5.9501 6.82239 5.9501 6.51236C5.9501 6.20232 6.20232 5.9501 6.51239 5.9501Z" fill="#262626"/>
<path d="M13.3515 19.9512V19.0467C13.3515 18.8526 13.1941 18.6952 13 18.6952C9.85955 18.6952 7.30465 16.1403 7.30465 12.9999C7.30465 12.8058 7.14724 12.6483 6.95313 12.6483H6.04864C5.90354 12.2392 5.51282 11.9453 5.05455 11.9453C4.47307 11.9453 4 12.4184 4 12.9999C4 13.5813 4.47307 14.0544 5.05455 14.0544C5.51279 14.0544 5.90354 13.7605 6.04864 13.3514H6.61114C6.6928 14.8512 7.29368 16.215 8.23634 17.2664L7.12291 18.3798C6.94174 18.2795 6.73361 18.2223 6.51229 18.2223C5.81457 18.2223 5.24697 18.7899 5.24697 19.4876C5.24697 20.1853 5.81457 20.7529 6.51229 20.7529C7.20998 20.7529 7.77758 20.1853 7.77758 19.4876C7.77758 19.2663 7.72032 19.0582 7.62003 18.877L8.7335 17.7636C9.78488 18.7062 11.1487 19.3071 12.6485 19.3888V19.9513C12.2394 20.0964 11.9454 20.4871 11.9454 20.9453C11.9454 21.5268 12.4185 21.9999 13 21.9999C13.5815 21.9999 14.0546 21.5268 14.0546 20.9453C14.0546 20.487 13.7606 20.0963 13.3515 19.9512ZM5.05455 13.3513C4.86073 13.3513 4.70303 13.1937 4.70303 12.9998C4.70303 12.806 4.86073 12.6483 5.05455 12.6483C5.24838 12.6483 5.40607 12.806 5.40607 12.9998C5.40607 13.1937 5.24838 13.3513 5.05455 13.3513ZM6.51229 20.0498C6.20226 20.0498 5.95001 19.7976 5.95001 19.4876C5.95001 19.1775 6.20226 18.9253 6.51229 18.9253C6.8223 18.9253 7.07455 19.1775 7.07455 19.4876C7.07455 19.7976 6.8223 20.0498 6.51229 20.0498ZM13 21.2968C12.8062 21.2968 12.6485 21.1391 12.6485 20.9453C12.6485 20.7515 12.8062 20.5938 13 20.5938C13.1938 20.5938 13.3515 20.7515 13.3515 20.9453C13.3515 21.1391 13.1938 21.2968 13 21.2968Z" fill="#262626"/>
<path d="M20.9453 11.9454C20.4871 11.9454 20.0964 12.2394 19.9513 12.6485H19.3888C19.3071 11.1487 18.7062 9.78488 17.7636 8.73346L18.877 7.62003C19.0582 7.72032 19.2663 7.77758 19.4876 7.77758C20.1853 7.77758 20.7529 7.20998 20.7529 6.51226C20.7529 5.81457 20.1853 5.24697 19.4876 5.24697C18.7899 5.24697 18.2223 5.81457 18.2223 6.51226C18.2223 6.73357 18.2796 6.94171 18.3798 7.12288L17.2664 8.23631C16.215 7.29365 14.8512 6.69276 13.3514 6.6111V6.04864C13.7605 5.90354 14.0544 5.51279 14.0544 5.05455C14.0544 4.47307 13.5813 4 12.9999 4C12.4184 4 11.9453 4.47307 11.9453 5.05455C11.9453 5.51279 12.2392 5.90354 12.6483 6.04864V6.95313C12.6483 7.14724 12.8058 7.30465 12.9999 7.30465C16.1403 7.30465 18.6952 9.85958 18.6952 13C18.6952 13.1941 18.8526 13.3515 19.0467 13.3515H19.9512C20.0963 13.7606 20.487 14.0546 20.9453 14.0546C21.5268 14.0546 21.9999 13.5815 21.9999 13C21.9999 12.4185 21.5268 11.9454 20.9453 11.9454ZM12.9999 4.70303C13.1937 4.70303 13.3514 4.86073 13.3514 5.05455C13.3514 5.24838 13.1937 5.40607 12.9999 5.40607C12.8061 5.40607 12.6484 5.24838 12.6484 5.05455C12.6484 4.86073 12.8061 4.70303 12.9999 4.70303ZM19.4876 5.95004C19.7977 5.95004 20.0499 6.20229 20.0499 6.51229C20.0499 6.82233 19.7977 7.07458 19.4876 7.07458C19.1776 7.07458 18.9254 6.82233 18.9254 6.51229C18.9254 6.20226 19.1776 5.95004 19.4876 5.95004ZM20.9453 13.3515C20.7515 13.3515 20.5938 13.1938 20.5938 13C20.5938 12.8062 20.7515 12.6485 20.9453 12.6485C21.1392 12.6485 21.2969 12.8062 21.2969 13C21.2969 13.1938 21.1392 13.3515 20.9453 13.3515Z" fill="#262626"/>
<path d="M19.4879 18.2225C19.2666 18.2225 19.0584 18.2798 18.8773 18.3801L17.7422 17.245C17.6049 17.1078 17.3824 17.1078 17.245 17.245C17.1078 17.3823 17.1078 17.6049 17.245 17.7422L18.3801 18.8773C18.2799 19.0584 18.2226 19.2666 18.2226 19.4879C18.2226 20.1856 18.7902 20.7532 19.4879 20.7532C20.1856 20.7532 20.7532 20.1856 20.7532 19.4879C20.7532 18.7901 20.1856 18.2225 19.4879 18.2225ZM19.4879 20.0501C19.1779 20.0501 18.9256 19.7979 18.9256 19.4879C18.9256 19.1778 19.1779 18.9256 19.4879 18.9256C19.7979 18.9256 20.0502 19.1778 20.0502 19.4879C20.0502 19.7979 19.7979 20.0501 19.4879 20.0501Z" fill="#262626"/>
<path d="M16.2812 10.0697C16.4753 10.0697 16.6327 9.91235 16.6327 9.71822C16.6327 9.52408 16.4753 9.3667 16.2812 9.3667C16.0871 9.3667 15.9297 9.52408 15.9297 9.71822C15.9297 9.91235 16.0871 10.0697 16.2812 10.0697Z" fill="#262626"/>
</g>
<defs>
<clipPath id="clip0_697_9681">
<rect width="18" height="18" fill="white" transform="translate(4 4)"/>
</clipPath>
</defs>
</svg>
