<svg width="20" height="20" viewBox="0 0 20 20" fill="none" xmlns="http://www.w3.org/2000/svg">
<path fill-rule="evenodd" clip-rule="evenodd" d="M15.8784 7.89974C16.2626 7.51344 16.5535 7.02907 16.6468 6.49221C16.7948 5.63703 16.5261 4.82056 15.9434 4.23381L14.9568 3.24269C13.9719 2.25244 12.3606 2.25244 11.3757 3.24269L10.8409 3.78127C10.7347 3.88795 10.7347 4.06088 10.8409 4.16756L15.0235 8.37293C15.1296 8.47961 15.3016 8.47961 15.4077 8.37293L15.8784 7.89974ZM14.1666 9.6286L7.80278 16.0192C7.36295 16.4606 6.76567 16.7092 6.14272 16.7092H3.10669C2.94496 16.7092 2.79179 16.6438 2.67028 16.5303C2.55733 16.409 2.5 16.2541 2.5 16.0838L2.58129 13.0115C2.58899 12.4024 2.83971 11.8251 3.26842 11.394L9.59889 5.02834C9.705 4.92165 9.87785 4.92165 9.98396 5.02834L14.1666 9.24231C14.2727 9.34899 14.2727 9.52192 14.1666 9.6286ZM16.8582 16.7105H11.3295C10.9753 16.7105 10.6878 16.4214 10.6878 16.0653C10.6878 15.7091 10.9753 15.42 11.3295 15.42H16.8582C17.2125 15.42 17.5 15.7091 17.5 16.0653C17.5 16.4214 17.2125 16.7105 16.8582 16.7105Z" fill="#ADB2DB"/>
</svg>
