<svg width="24" height="24" viewBox="0 0 24 24" fill="none" xmlns="http://www.w3.org/2000/svg">
<path d="M0 1.76016C0 0.815021 0.794438 0.0478516 1.77375 0.0478516H22.2262C23.2059 0.0478516 24 0.815021 24 1.76016V22.2398C24 23.1852 23.2059 23.9519 22.2262 23.9519H1.77375C0.794531 23.9519 0 23.1853 0 22.2401V1.75988V1.76016Z" fill="#006699"/>
<path d="M7.2933 20.0519V9.29027H3.70192V20.0519H7.29367H7.2933ZM5.49836 7.8212C6.75048 7.8212 7.53002 6.99483 7.53002 5.9621C7.50658 4.90584 6.75048 4.10254 5.52217 4.10254C4.29302 4.10254 3.49023 4.90584 3.49023 5.96201C3.49023 6.99474 4.26948 7.8211 5.47483 7.8211H5.49808L5.49836 7.8212ZM9.28117 20.0519H12.8723V14.0428C12.8723 13.7216 12.8957 13.3995 12.9906 13.1701C13.2501 12.5272 13.841 11.8617 14.8333 11.8617C16.1325 11.8617 16.6525 12.8485 16.6525 14.2954V20.0519H20.2435V13.8815C20.2435 10.5761 18.472 9.03797 16.1093 9.03797C14.1721 9.03797 13.3213 10.1164 12.8486 10.8508H12.8725V9.29064H9.28136C9.32823 10.3002 9.28108 20.0523 9.28108 20.0523L9.28117 20.0519Z" fill="white"/>
</svg>
