<svg width="18" height="18" viewBox="0 0 18 18" fill="none" xmlns="http://www.w3.org/2000/svg">
<path d="M17.8275 11.7527C17.6085 11.5329 17.2523 11.5329 17.0325 11.7527L15.3675 13.4177V5.73768C15.3675 4.18668 14.1053 2.92518 12.555 2.92518H8.16754C7.85704 2.92518 7.60504 3.17718 7.60504 3.48768C7.60504 3.79818 7.85704 4.05018 8.16754 4.05018H12.555C13.485 4.05018 14.2425 4.80768 14.2425 5.73768V13.4177L12.5775 11.7527C12.3578 11.5329 12.0015 11.5329 11.7825 11.7527C11.5635 11.9724 11.562 12.3287 11.7825 12.5477L14.4075 15.1727C14.5163 15.2829 14.6603 15.3377 14.805 15.3377C14.9498 15.3377 15.0923 15.2837 15.2025 15.1727L17.8275 12.5477C18.048 12.3287 18.048 11.9724 17.8275 11.7527ZM9.83254 14.2127H5.44504C4.51504 14.2127 3.75754 13.4552 3.75754 12.5252V4.84518L5.42254 6.51018C5.53354 6.62043 5.67754 6.67518 5.82154 6.67518C5.96554 6.67518 6.10954 6.62043 6.21904 6.51018C6.43879 6.29043 6.43879 5.93418 6.21904 5.71518L3.59404 3.09018C3.37429 2.86968 3.01804 2.86968 2.79904 3.09018L0.174042 5.71518C-0.046458 5.93418 -0.046458 6.29043 0.174042 6.51018C0.394542 6.72993 0.749292 6.72993 0.969042 6.51018L2.63404 4.84518V12.5252C2.63404 14.0762 3.89629 15.3377 5.44654 15.3377H9.83404C10.1445 15.3377 10.3965 15.0857 10.3965 14.7752C10.3965 14.4647 10.1438 14.2127 9.83404 14.2127H9.83254Z" fill="#6E767D"/>
</svg>
