<svg width="16" height="16" viewBox="0 0 16 16" fill="none" xmlns="http://www.w3.org/2000/svg">
<path d="M10.5288 7.64566L5.47787 2.69102C5.46467 2.67797 5.44881 2.66986 5.43211 2.66763C5.4154 2.66539 5.39854 2.66911 5.38344 2.67837C5.36835 2.68763 5.35564 2.70204 5.34678 2.71996C5.33791 2.73788 5.33325 2.75858 5.33333 2.77968V3.86742C5.33333 3.93637 5.3591 4.0025 5.40168 4.04472L9.43527 8.00027L5.40168 11.9558C5.35798 11.998 5.33333 12.0642 5.33333 12.1331V13.2209C5.33333 13.3151 5.41961 13.3672 5.47787 13.3095L10.5288 8.35487C10.5717 8.31282 10.6065 8.25902 10.6304 8.19757C10.6543 8.13612 10.6667 8.06865 10.6667 8.00027C10.6667 7.93189 10.6543 7.86441 10.6304 7.80296C10.6065 7.74151 10.5717 7.68772 10.5288 7.64566Z" fill="#00AF71"/>
</svg>
