<svg width="32" height="32" viewBox="0 0 32 32" fill="none" xmlns="http://www.w3.org/2000/svg">
<path d="M7.59194 16L3.06528 4.36005C2.75061 3.55071 3.53994 2.77605 4.32128 3.05205L4.44528 3.10405L28.4453 15.104C28.6 15.1813 28.7321 15.2975 28.8286 15.4411C28.925 15.5847 28.9826 15.7509 28.9956 15.9234C29.0087 16.0959 28.9767 16.2688 28.9029 16.4253C28.8291 16.5817 28.716 16.7164 28.5746 16.816L28.4453 16.8934L4.44528 28.8934C3.66794 29.2814 2.82261 28.5667 3.02528 27.7627L3.06528 27.636L7.59194 16L3.06528 4.36005L7.59194 16ZM5.86928 6.05338L9.34928 15H18.1853C18.4269 15.0001 18.6604 15.0876 18.8425 15.2464C19.0246 15.4052 19.1431 15.6246 19.1759 15.864L19.1853 16C19.1852 16.2419 19.0975 16.4755 18.9384 16.6577C18.7793 16.8398 18.5596 16.9581 18.3199 16.9907L18.1853 17H9.34661L5.86794 25.9467L25.7626 16L5.86794 6.05338H5.86928Z" fill="white"/>
</svg>
