<svg width="20" height="20" viewBox="0 0 20 20" fill="none" xmlns="http://www.w3.org/2000/svg">
<mask id="mask0_697_9637" style="mask-type:alpha" maskUnits="userSpaceOnUse" x="0" y="0" width="20" height="20">
<rect width="20" height="20" fill="#C4C4C4"/>
</mask>
<g mask="url(#mask0_697_9637)">
<path d="M14.3618 12.4738C13.3969 12.4738 12.5467 12.9484 12.0126 13.6702L7.39535 11.306C7.47201 11.0447 7.52588 10.7739 7.52588 10.4881C7.52588 10.1006 7.44642 9.7321 7.30915 9.3932L12.1413 6.48538C12.6791 7.1165 13.4695 7.52588 14.3618 7.52588C15.9773 7.52588 17.2915 6.21172 17.2915 4.59619C17.2915 2.98066 15.9773 1.6665 14.3618 1.6665C12.7463 1.6665 11.4321 2.98066 11.4321 4.59619C11.4321 4.96849 11.5088 5.32165 11.636 5.64951L6.78939 8.56585C6.25208 7.95348 5.47305 7.55843 4.59619 7.55843C2.98066 7.55843 1.6665 8.87259 1.6665 10.4881C1.6665 12.1036 2.98066 13.4178 4.59619 13.4178C5.57699 13.4178 6.4416 12.9292 6.97363 12.1871L11.5757 14.5438C11.491 14.8174 11.4321 15.1024 11.4321 15.4035C11.4321 17.019 12.7463 18.3332 14.3618 18.3332C15.9773 18.3332 17.2915 17.019 17.2915 15.4035C17.2915 13.788 15.9773 12.4738 14.3618 12.4738Z" fill="#FAFAFA"/>
</g>
</svg>
