<svg width="26" height="26" viewBox="0 0 26 26" fill="none" xmlns="http://www.w3.org/2000/svg">
<rect width="26" height="26" rx="13" fill="white"/>
<path d="M21.8157 12.537L17.6531 8.12693C17.3973 7.85559 16.9703 7.84321 16.6989 8.09926C16.428 8.35509 16.4154 8.78235 16.6715 9.05347L20.3968 13L16.6715 16.947C16.4154 17.2181 16.428 17.6452 16.6989 17.9012C16.8294 18.0243 16.9961 18.0852 17.1622 18.0852C17.3416 18.0852 17.5206 18.0142 17.6532 17.8739L21.8157 13.4637C22.0611 13.2034 22.0611 12.797 21.8157 12.537Z" fill="#262626"/>
<path d="M9.32851 16.9468L5.6034 13.0001L9.32851 9.05332C9.58434 8.78219 9.57196 8.3549 9.30084 8.0991C9.02992 7.84327 8.60242 7.85564 8.34662 8.12677L4.1841 12.5368C3.93863 12.7969 3.93863 13.2035 4.1841 13.4636L8.34683 17.8738C8.47958 18.0145 8.65846 18.0853 8.83779 18.0853C9.00384 18.0853 9.17058 18.0241 9.30084 17.901C9.57221 17.6452 9.58434 17.2179 9.32851 16.9468Z" fill="#262626"/>
<path d="M14.0921 5.85244C13.7238 5.79665 13.379 6.04953 13.3228 6.41786L11.3428 19.3779C11.2865 19.7465 11.5397 20.091 11.9082 20.1472C11.9429 20.1524 11.977 20.1549 12.011 20.1549C12.3389 20.1549 12.6264 19.9157 12.6775 19.5818L14.6575 6.62173C14.7138 6.25315 14.4606 5.90869 14.0921 5.85244Z" fill="#262626"/>
</svg>
