<svg width="17" height="16" viewBox="0 0 17 16" fill="none" xmlns="http://www.w3.org/2000/svg">
<path fill-rule="evenodd" clip-rule="evenodd" d="M8.79162 1.75C8.71578 1.75 8.52912 1.77083 8.42995 1.96917L6.90828 5.01167C6.66745 5.4925 6.20328 5.82667 5.66662 5.90333L2.25995 6.39417C2.03495 6.42667 1.95828 6.59333 1.93495 6.66333C1.91412 6.73083 1.88078 6.9025 2.03578 7.05083L4.49912 9.4175C4.89162 9.795 5.06995 10.3392 4.97662 10.8717L4.39662 14.2133C4.36078 14.4225 4.49162 14.5442 4.54995 14.5858C4.61162 14.6325 4.77662 14.725 4.98078 14.6183L8.02662 13.0392C8.50662 12.7917 9.07828 12.7917 9.55662 13.0392L12.6016 14.6175C12.8066 14.7233 12.9716 14.6308 13.0341 14.5858C13.0925 14.5442 13.2233 14.4225 13.1875 14.2133L12.6058 10.8717C12.5125 10.3392 12.6908 9.795 13.0833 9.4175L15.5466 7.05083C15.7025 6.9025 15.6691 6.73 15.6475 6.66333C15.625 6.59333 15.5483 6.42667 15.3233 6.39417L11.9166 5.90333C11.3808 5.82667 10.9166 5.4925 10.6758 5.01083L9.15245 1.96917C9.05412 1.77083 8.86745 1.75 8.79162 1.75ZM4.78912 15.9167C4.44495 15.9167 4.10328 15.8083 3.81078 15.595C3.30578 15.225 3.05828 14.6142 3.16578 13.9992L3.74578 10.6575C3.76745 10.5333 3.72495 10.4075 3.63328 10.3192L1.16995 7.9525C0.716617 7.51833 0.554117 6.87667 0.745784 6.28083C0.939117 5.67833 1.45078 5.2475 2.08162 5.1575L5.48828 4.66667C5.61995 4.64833 5.73328 4.5675 5.78995 4.4525L7.31245 1.40917C7.59328 0.848333 8.15995 0.5 8.79162 0.5C9.42328 0.5 9.98995 0.848333 10.2708 1.40917L11.7941 4.45167C11.8516 4.5675 11.9641 4.64833 12.095 4.66667L15.5016 5.1575C16.1325 5.2475 16.6441 5.67833 16.8375 6.28083C17.0291 6.87667 16.8658 7.51833 16.4125 7.9525L13.9491 10.3192C13.8575 10.4075 13.8158 10.5333 13.8375 10.6567L14.4183 13.9992C14.525 14.615 14.2775 15.2258 13.7716 15.595C13.2591 15.9708 12.5916 16.0217 12.0258 15.7267L8.98162 14.1492C8.86245 14.0875 8.71995 14.0875 8.60078 14.1492L5.55662 15.7275C5.31328 15.8542 5.05078 15.9167 4.78912 15.9167Z" fill="white"/>
</svg>
