<svg width="26" height="26" viewBox="0 0 26 26" fill="none" xmlns="http://www.w3.org/2000/svg">
<rect width="26" height="26" rx="13" fill="white"/>
<path d="M19.0188 18.0783C19.0223 18.073 19.0275 18.0678 19.0311 18.0625C20.1824 16.6932 20.875 14.9283 20.875 13C20.875 11.0717 20.1824 9.30684 19.0328 7.9375C19.0293 7.93223 19.024 7.92871 19.0205 7.92344C19.0012 7.90059 18.9836 7.87949 18.9643 7.8584C18.9572 7.84961 18.9502 7.84258 18.9432 7.83379L18.8711 7.75117L18.8693 7.74941C18.843 7.71953 18.8148 7.68965 18.7885 7.65977L18.7867 7.65801C18.7305 7.59824 18.6742 7.53848 18.6162 7.48047L18.6145 7.47871L18.5301 7.39434L18.5248 7.38906C18.4984 7.3627 18.4721 7.33809 18.4457 7.31348C18.4369 7.30469 18.4281 7.2959 18.4176 7.28711C18.4 7.26953 18.3824 7.25371 18.3648 7.23789C18.3596 7.23262 18.3525 7.22734 18.3473 7.22031C16.9445 5.91953 15.0654 5.125 13 5.125C10.9346 5.125 9.05547 5.91953 7.65098 7.22031C7.6457 7.22559 7.63867 7.23086 7.6334 7.23789C7.61582 7.25371 7.59824 7.27129 7.58066 7.28887C7.57187 7.29766 7.56309 7.30645 7.55254 7.31523C7.52617 7.33984 7.4998 7.36621 7.47344 7.39082L7.46816 7.39609L7.38379 7.48047L7.38203 7.48223C7.32402 7.54023 7.26777 7.6 7.21152 7.65977L7.20977 7.66152C7.18164 7.69141 7.15527 7.72129 7.12891 7.75117L7.12715 7.75293C7.10254 7.7793 7.07793 7.80742 7.05508 7.83555C7.04805 7.84434 7.04102 7.85137 7.03398 7.86016C7.01465 7.88125 6.99707 7.9041 6.97773 7.9252C6.97422 7.93047 6.96895 7.93398 6.96543 7.93926C5.81758 9.30684 5.125 11.0717 5.125 13C5.125 14.9283 5.81758 16.6932 6.96719 18.0625C6.9707 18.0678 6.97598 18.073 6.97949 18.0783L7.03398 18.1434C7.04102 18.1521 7.04805 18.1592 7.05508 18.168L7.12715 18.2506C7.12715 18.2523 7.12891 18.2523 7.12891 18.2541C7.15527 18.284 7.18164 18.3139 7.20977 18.342L7.21152 18.3438C7.26777 18.4035 7.32402 18.4633 7.38027 18.5213L7.38203 18.523C7.41016 18.5512 7.43652 18.5793 7.46465 18.6057L7.46992 18.6109C7.52793 18.6689 7.5877 18.7252 7.64746 18.7797C9.05547 20.0805 10.9346 20.875 13 20.875C15.0654 20.875 16.9445 20.0805 18.349 18.7797C18.4089 18.7248 18.4675 18.6685 18.5248 18.6109L18.5301 18.6057C18.5582 18.5775 18.5863 18.5512 18.6127 18.523L18.6145 18.5213C18.6725 18.4633 18.7287 18.4035 18.7832 18.3438L18.785 18.342C18.8113 18.3121 18.8395 18.284 18.8658 18.2541C18.8658 18.2523 18.8676 18.2523 18.8676 18.2506C18.8922 18.2242 18.9168 18.1961 18.9396 18.168C18.9467 18.1592 18.9537 18.1521 18.9607 18.1434C18.9806 18.1222 19 18.1005 19.0188 18.0783ZM19.0908 15.5717C18.8482 16.1447 18.5283 16.6756 18.1381 17.1572C17.6986 16.7774 17.2181 16.4478 16.7055 16.1746C16.9094 15.3502 17.0359 14.4449 17.0693 13.4922H19.5918C19.5391 14.2111 19.3703 14.909 19.0908 15.5717ZM19.5918 12.5078H17.0693C17.0359 11.5551 16.9094 10.6498 16.7055 9.82539C17.2205 9.55117 17.7004 9.2207 18.1381 8.84277C18.9864 9.88687 19.4938 11.1661 19.5918 12.5078ZM15.5717 6.90918C16.2695 7.20449 16.9041 7.6123 17.4631 8.12559C17.1384 8.40208 16.7888 8.64804 16.4189 8.86035C16.143 8.06934 15.7896 7.38203 15.3783 6.83184C15.4434 6.85645 15.5084 6.88281 15.5717 6.90918ZM13.9791 19.2244C13.8174 19.351 13.6557 19.4477 13.4922 19.5127V16.252C14.1897 16.3006 14.8756 16.4559 15.526 16.7125C15.3801 17.1449 15.2113 17.5439 15.0162 17.9043C14.7104 18.4738 14.3518 18.9291 13.9791 19.2244ZM15.0162 8.0957C15.2096 8.45781 15.3801 8.85684 15.526 9.2875C14.8756 9.54406 14.1897 9.69939 13.4922 9.74805V6.48906C13.6539 6.5541 13.8174 6.64902 13.9791 6.77734C14.3518 7.0709 14.7104 7.52617 15.0162 8.0957ZM13.4922 15.2658V13.4922H16.085C16.0568 14.2691 15.9602 15.0232 15.7984 15.7387L15.7932 15.7598C15.0555 15.48 14.2797 15.3135 13.4922 15.2658ZM13.4922 12.5078V10.7342C14.2973 10.685 15.0707 10.5145 15.7932 10.2402L15.7984 10.2613C15.9602 10.9768 16.0568 11.7291 16.085 12.5078H13.4922ZM12.5078 13.4922V15.2658C11.7027 15.315 10.9293 15.4855 10.2068 15.7598L10.2016 15.7387C10.0398 15.0232 9.94316 14.2709 9.91504 13.4922H12.5078ZM9.91504 12.5078C9.94316 11.7309 10.0398 10.9768 10.2016 10.2613L10.2068 10.2402C10.9293 10.5145 11.701 10.685 12.5078 10.7342V12.5078H9.91504ZM12.5078 16.252V19.5109C12.3461 19.4459 12.1826 19.351 12.0209 19.2227C11.6482 18.9291 11.2879 18.4721 10.982 17.9025C10.7887 17.5404 10.6182 17.1414 10.4723 16.7107C11.1262 16.4541 11.8064 16.3012 12.5078 16.252ZM12.5078 9.74805C11.8103 9.69939 11.1244 9.54406 10.474 9.2875C10.6199 8.85508 10.7887 8.45605 10.9838 8.0957C11.2896 7.52617 11.6482 7.06914 12.0227 6.77559C12.1844 6.64902 12.3461 6.55234 12.5096 6.4873V9.74805H12.5078ZM10.4283 6.90918C10.4934 6.88281 10.5566 6.85645 10.6217 6.83184C10.2104 7.38203 9.85703 8.06934 9.58105 8.86035C9.21191 8.64941 8.86211 8.40332 8.53691 8.12559C9.0959 7.6123 9.73047 7.20449 10.4283 6.90918ZM6.90918 10.4283C7.15176 9.85527 7.47168 9.32441 7.86191 8.84277C8.29961 9.2207 8.77949 9.55117 9.29453 9.82539C9.09063 10.6498 8.96406 11.5551 8.93066 12.5078H6.4082C6.46094 11.7889 6.62969 11.091 6.90918 10.4283ZM6.4082 13.4922H8.93066C8.96406 14.4449 9.09063 15.3502 9.29453 16.1746C8.78192 16.4478 8.3014 16.7774 7.86191 17.1572C7.01365 16.1131 6.50623 14.8339 6.4082 13.4922ZM10.4283 19.0908C9.73047 18.7955 9.0959 18.3877 8.53691 17.8744C8.86211 17.5967 9.21191 17.3523 9.58105 17.1396C9.85703 17.9307 10.2104 18.618 10.6217 19.1682C10.5566 19.1436 10.4916 19.1172 10.4283 19.0908ZM15.5717 19.0908C15.5066 19.1172 15.4434 19.1436 15.3783 19.1682C15.7896 18.618 16.143 17.9307 16.4189 17.1396C16.7881 17.3506 17.1379 17.5967 17.4631 17.8744C16.9072 18.3856 16.2674 18.7971 15.5717 19.0908Z" fill="black"/>
</svg>
