<svg width="24" height="24" viewBox="0 0 24 24" fill="none" xmlns="http://www.w3.org/2000/svg">
<path d="M11.9766 19.875C12.1489 19.875 12.3196 19.8411 12.4788 19.7751C12.6381 19.7091 12.7828 19.6125 12.9046 19.4906C13.0265 19.3687 13.1232 19.224 13.1892 19.0648C13.2551 18.9055 13.2891 18.7349 13.2891 18.5625C13.2891 18.3901 13.2551 18.2195 13.1892 18.0602C13.1232 17.901 13.0265 17.7563 12.9046 17.6344C12.7828 17.5125 12.6381 17.4159 12.4788 17.3499C12.3196 17.2839 12.1489 17.25 11.9766 17.25C11.8042 17.25 11.6335 17.2839 11.4743 17.3499C11.3151 17.4159 11.1704 17.5125 11.0485 17.6344C10.9266 17.7563 10.8299 17.901 10.764 18.0602C10.698 18.2195 10.6641 18.3901 10.6641 18.5625C10.6641 18.7349 10.698 18.9055 10.764 19.0648C10.8299 19.224 10.9266 19.3687 11.0485 19.4906C11.1704 19.6125 11.3151 19.7091 11.4743 19.7751C11.6335 19.8411 11.8042 19.875 11.9766 19.875ZM11.9766 13.3125C12.3247 13.3125 12.6585 13.1742 12.9046 12.9281C13.1508 12.6819 13.2891 12.3481 13.2891 12C13.2891 11.6519 13.1508 11.3181 12.9046 11.0719C12.6585 10.8258 12.3247 10.6875 11.9766 10.6875C11.6285 10.6875 11.2946 10.8258 11.0485 11.0719C10.8023 11.3181 10.6641 11.6519 10.6641 12C10.6641 12.3481 10.8023 12.6819 11.0485 12.9281C11.2946 13.1742 11.6285 13.3125 11.9766 13.3125ZM11.9766 6.75C12.3247 6.75 12.6585 6.61172 12.9046 6.36558C13.1508 6.11944 13.2891 5.7856 13.2891 5.4375C13.2891 5.0894 13.1508 4.75556 12.9046 4.50942C12.6585 4.26328 12.3247 4.125 11.9766 4.125C11.6285 4.125 11.2946 4.26328 11.0485 4.50942C10.8023 4.75556 10.6641 5.0894 10.6641 5.4375C10.6641 5.7856 10.8023 6.11944 11.0485 6.36558C11.2946 6.61172 11.6285 6.75 11.9766 6.75Z" fill="white"/>
</svg>
