<svg width="24" height="24" viewBox="0 0 24 24" fill="none" xmlns="http://www.w3.org/2000/svg">
<path d="M17.2792 2H6.72078C5.79028 2 5 2.80304 5 3.84129V20.547C5.00274 21.8648 6.50699 22.4831 7.36218 21.5581L11.3868 17.2529C11.7093 16.8928 12.2907 16.8928 12.6132 17.2529L16.6378 21.5581C17.4934 22.4835 18.9974 21.8642 19 20.547V3.84129C19 2.80304 18.2097 2 17.2792 2V2ZM17.9047 20.547C17.9034 20.826 17.5792 20.9181 17.4116 20.7286C16.607 19.8664 14.3126 17.4121 13.3884 16.425C12.6614 15.6114 11.3397 15.6112 10.613 16.4234C9.97458 17.1052 8.72495 18.442 7.73986 19.4958L6.59384 20.7215C6.42871 20.909 6.10053 20.8464 6.09524 20.5576V3.84129C6.09524 3.46696 6.3788 3.17197 6.72078 3.17197H17.2792C17.6206 3.17197 17.9047 3.46649 17.9047 3.84129V20.547Z" fill="white"/>
</svg>
