<svg width="32" height="32" viewBox="0 0 32 32" fill="none" xmlns="http://www.w3.org/2000/svg">
<path d="M7.59194 15.9971L3.06528 4.35712C2.75061 3.54779 3.53994 2.77312 4.32128 3.04912L4.44528 3.10112L28.4453 15.1011C28.6 15.1784 28.7321 15.2945 28.8286 15.4381C28.925 15.5817 28.9826 15.7479 28.9956 15.9204C29.0087 16.0929 28.9767 16.2659 28.9029 16.4223C28.8291 16.5788 28.716 16.7135 28.5746 16.8131L28.4453 16.8905L4.44528 28.8905C3.66794 29.2785 2.82261 28.5638 3.02528 27.7598L3.06528 27.6331L7.59194 15.9971L3.06528 4.35712L7.59194 15.9971ZM5.86928 6.05045L9.34928 14.9971H18.1853C18.4269 14.9971 18.6604 15.0846 18.8425 15.2435C19.0246 15.4023 19.1431 15.6217 19.1759 15.8611L19.1853 15.9971C19.1852 16.239 19.0975 16.4726 18.9384 16.6548C18.7793 16.8369 18.5596 16.9552 18.3199 16.9878L18.1853 16.9971H9.34661L5.86794 25.9438L25.7626 15.9971L5.86794 6.05045H5.86928Z" fill="white"/>
</svg>
