<svg width="29" height="22" viewBox="0 0 29 22" fill="none" xmlns="http://www.w3.org/2000/svg">
<path d="M6 1C6 0.447715 5.55228 0 5 0C4.44771 0 4 0.447715 4 1L4 18.5858L1.70711 16.2929C1.31658 15.9024 0.683417 15.9024 0.292894 16.2929C-0.0976312 16.6834 -0.0976312 17.3166 0.292894 17.7071L4.2912 21.7054L4.30606 21.72C4.39884 21.8095 4.50463 21.8775 4.61722 21.9241C4.73512 21.973 4.86441 22 5 22C5.13559 22 5.26487 21.973 5.38278 21.9241C5.50073 21.8753 5.61123 21.803 5.70711 21.7071L9.70711 17.7071C10.0976 17.3166 10.0976 16.6834 9.70711 16.2929C9.31658 15.9024 8.68342 15.9024 8.29289 16.2929L6 18.5858L6 1Z" fill="white"/>
<path d="M13 3C13 2.44772 13.4477 2 14 2H28C28.5523 2 29 2.44772 29 3C29 3.55228 28.5523 4 28 4H14C13.4477 4 13 3.55228 13 3Z" fill="white"/>
<path d="M14 8C13.4477 8 13 8.44772 13 9C13 9.55228 13.4477 10 14 10H24C24.5523 10 25 9.55228 25 9C25 8.44772 24.5523 8 24 8H14Z" fill="white"/>
<path d="M14 14C13.4477 14 13 14.4477 13 15C13 15.5523 13.4477 16 14 16H20C20.5523 16 21 15.5523 21 15C21 14.4477 20.5523 14 20 14H14Z" fill="white"/>
<path d="M14 20C13.4477 20 13 20.4477 13 21C13 21.5523 13.4477 22 14 22H16C16.5523 22 17 21.5523 17 21C17 20.4477 16.5523 20 16 20H14Z" fill="white"/>
</svg>
