<svg width="29" height="28" viewBox="0 0 29 28" fill="none" xmlns="http://www.w3.org/2000/svg">
<path d="M11.4375 8.68901H13.4582V17.9394C13.4582 18.0597 13.5566 18.1581 13.677 18.1581H15.3176C15.4379 18.1581 15.5363 18.0597 15.5363 17.9394V8.68901H17.5625C17.7457 8.68901 17.8469 8.47846 17.7348 8.33627L14.6723 4.45893C14.6518 4.43279 14.6257 4.41164 14.5958 4.3971C14.566 4.38256 14.5332 4.375 14.5 4.375C14.4668 4.375 14.434 4.38256 14.4042 4.3971C14.3743 4.41164 14.3482 4.43279 14.3277 4.45893L11.2652 8.33354C11.1531 8.47846 11.2543 8.68901 11.4375 8.68901ZM24.5078 17.1191H22.8672C22.7469 17.1191 22.6484 17.2175 22.6484 17.3378V21.5488H6.35156V17.3378C6.35156 17.2175 6.25312 17.1191 6.13281 17.1191H4.49219C4.37187 17.1191 4.27344 17.2175 4.27344 17.3378V22.7519C4.27344 23.2359 4.66445 23.6269 5.14844 23.6269H23.8516C24.3355 23.6269 24.7266 23.2359 24.7266 22.7519V17.3378C24.7266 17.2175 24.6281 17.1191 24.5078 17.1191Z" fill="white"/>
</svg>
