<svg width="12" height="18" viewBox="0 0 12 18" fill="none" xmlns="http://www.w3.org/2000/svg">
<path d="M10.3997 0.666992H1.60098C0.825555 0.666992 0.166992 1.33619 0.166992 2.2014V16.1228C0.169274 17.221 1.42281 17.7363 2.13547 16.9654L5.48929 13.3777C5.75806 13.0777 6.24259 13.0777 6.51136 13.3777L9.86518 16.9654C10.5781 17.7365 11.8315 17.2205 11.8337 16.1228V2.2014C11.8337 1.33619 11.1751 0.666992 10.3997 0.666992V0.666992ZM10.9209 16.1228C10.9198 16.3553 10.6497 16.4321 10.51 16.2742C9.8395 15.5557 7.92749 13.5104 7.15736 12.6878C6.55152 12.0098 5.45004 12.0096 4.84448 12.6865C4.31248 13.2547 3.27112 14.3687 2.45021 15.2468L1.49519 16.2682C1.35758 16.4245 1.0841 16.3723 1.07969 16.1317V2.2014C1.07969 1.88946 1.31599 1.64364 1.60098 1.64364H10.3996C10.6842 1.64364 10.9209 1.88907 10.9209 2.2014V16.1228Z" fill="#8C8C8C"/>
</svg>
