<svg width="41" height="40" viewBox="0 0 41 40" fill="none" xmlns="http://www.w3.org/2000/svg">
<path d="M36.75 18.3333V28.3333C36.8479 29.1778 36.7536 30.0334 36.4741 30.8362C36.1946 31.6391 35.7372 32.3683 35.1361 32.9694C34.535 33.5705 33.8057 34.0279 33.0029 34.3074C32.2001 34.5869 31.3445 34.6812 30.5 34.5833H10.5C9.65559 34.6812 8.79995 34.5869 7.99713 34.3074C7.1943 34.0279 6.46506 33.5705 5.86395 32.9694C5.26285 32.3683 4.80545 31.6391 4.52597 30.8362C4.24648 30.0334 4.15215 29.1778 4.25002 28.3333V11.6667C4.15215 10.8222 4.24648 9.9666 4.52597 9.16377C4.80545 8.36094 5.26285 7.6317 5.86395 7.0306C6.46506 6.4295 7.1943 5.9721 7.99713 5.69261C8.79995 5.41313 9.65559 5.31879 10.5 5.41667H22.1667C22.4982 5.41667 22.8161 5.54836 23.0506 5.78278C23.285 6.0172 23.4167 6.33515 23.4167 6.66667C23.4167 6.99819 23.285 7.31613 23.0506 7.55055C22.8161 7.78497 22.4982 7.91667 22.1667 7.91667H10.5C7.87169 7.91667 6.75002 9.03833 6.75002 11.6667V27.0833L10.9834 22.85C11.298 22.5377 11.7234 22.3625 12.1667 22.3625C12.61 22.3625 13.0353 22.5377 13.35 22.85L14.9167 24.4167C15.0725 24.5694 15.2819 24.6549 15.5 24.6549C15.7181 24.6549 15.9276 24.5694 16.0834 24.4167L24.3167 16.1833C24.6314 15.8711 25.0567 15.6959 25.5 15.6959C25.9433 15.6959 26.3687 15.8711 26.6834 16.1833L34.25 23.75V18.3333C34.25 18.0018 34.3817 17.6839 34.6161 17.4495C34.8506 17.215 35.1685 17.0833 35.5 17.0833C35.8315 17.0833 36.1495 17.215 36.3839 17.4495C36.6183 17.6839 36.75 18.0018 36.75 18.3333ZM13.8217 12.9167C13.2683 12.9182 12.7382 13.1393 12.3478 13.5314C11.9573 13.9235 11.7384 14.4546 11.7392 15.0079C11.74 15.5613 11.9603 16.0917 12.3519 16.4827C12.7434 16.8737 13.2742 17.0933 13.8275 17.0933C14.3809 17.0933 14.9116 16.8737 15.3032 16.4827C15.6947 16.0917 15.9151 15.5613 15.9158 15.0079C15.9166 14.4546 15.6977 13.9235 15.3073 13.5314C14.9168 13.1393 14.3867 12.9182 13.8334 12.9167H13.8217ZM28.8334 9.58333H30.9167V11.6667C30.9167 11.9982 31.0484 12.3161 31.2828 12.5506C31.5172 12.785 31.8352 12.9167 32.1667 12.9167C32.4982 12.9167 32.8161 12.785 33.0506 12.5506C33.285 12.3161 33.4167 11.9982 33.4167 11.6667V9.58333H35.5C35.8315 9.58333 36.1495 9.45164 36.3839 9.21722C36.6183 8.9828 36.75 8.66485 36.75 8.33333C36.75 8.00181 36.6183 7.68387 36.3839 7.44945C36.1495 7.21503 35.8315 7.08333 35.5 7.08333H33.4167V5C33.4167 4.66848 33.285 4.35054 33.0506 4.11612C32.8161 3.8817 32.4982 3.75 32.1667 3.75C31.8352 3.75 31.5172 3.8817 31.2828 4.11612C31.0484 4.35054 30.9167 4.66848 30.9167 5V7.08333H28.8334C28.5018 7.08333 28.1839 7.21503 27.9495 7.44945C27.715 7.68387 27.5834 8.00181 27.5834 8.33333C27.5834 8.66485 27.715 8.9828 27.9495 9.21722C28.1839 9.45164 28.5018 9.58333 28.8334 9.58333Z" fill="white"/>
</svg>
