<svg width="32" height="32" viewBox="0 0 32 32" fill="none" xmlns="http://www.w3.org/2000/svg">
<rect width="32" height="32" rx="4" fill="#5ABC8B" fill-opacity="0.15"/>
<path fill-rule="evenodd" clip-rule="evenodd" d="M19.6757 8.30653L19.6766 8.93122C21.9721 9.11113 23.4885 10.6753 23.4909 13.0741L23.5 20.0956C23.5033 22.711 21.8602 24.3202 19.2265 24.3243L12.7932 24.3327C10.176 24.336 8.51235 22.6885 8.50906 20.0656L8.50001 13.1266C8.49671 10.712 9.95961 9.15194 12.2551 8.94121L12.2543 8.31653C12.2535 7.95004 12.525 7.67435 12.887 7.67435C13.2491 7.67351 13.5206 7.94838 13.5214 8.31486L13.5222 8.8979L18.4095 8.89124L18.4087 8.3082C18.4078 7.94171 18.6794 7.66685 19.0414 7.66602C19.3952 7.66518 19.6749 7.94005 19.6757 8.30653ZM9.7679 13.384L22.2247 13.3673V13.0758C22.1893 11.285 21.2908 10.3455 19.6782 10.2056L19.679 10.8469C19.679 11.2051 19.4001 11.4891 19.0463 11.4891C18.6843 11.4899 18.412 11.2067 18.412 10.8486L18.4111 10.1739L13.5239 10.1806L13.5247 10.8544C13.5247 11.2134 13.254 11.4966 12.892 11.4966C12.5299 11.4974 12.2576 11.2151 12.2576 10.8561L12.2568 10.2147C10.6524 10.3755 9.76461 11.3184 9.76708 13.1249L9.7679 13.384ZM18.6999 17.1696V17.1788C18.7082 17.5619 19.0208 17.8526 19.4001 17.8443C19.7704 17.8351 20.0657 17.5178 20.0575 17.1346C20.0402 16.7681 19.7432 16.4691 19.3738 16.4699C18.9953 16.4783 18.6991 16.7865 18.6999 17.1696ZM19.3795 20.9094C19.0011 20.9011 18.6958 20.5854 18.695 20.2022C18.6868 19.8191 18.9904 19.5018 19.3688 19.4926H19.3771C19.7638 19.4926 20.0772 19.8083 20.0772 20.1997C20.0781 20.5912 19.7654 20.9086 19.3795 20.9094ZM15.3101 17.1829C15.3266 17.5661 15.64 17.8651 16.0185 17.8484C16.3888 17.8309 16.6841 17.5144 16.6677 17.1313C16.6586 16.7565 16.3542 16.4649 15.9839 16.4658C15.6055 16.4824 15.3093 16.7998 15.3101 17.1829ZM16.0218 20.8719C15.6433 20.8886 15.3307 20.5895 15.3134 20.2064C15.3134 19.8233 15.6088 19.5068 15.9872 19.4893C16.3575 19.4884 16.6627 19.78 16.671 20.1539C16.6882 20.5379 16.392 20.8544 16.0218 20.8719ZM11.9203 17.2121C11.9367 17.5952 12.2502 17.8951 12.6287 17.8776C12.9989 17.8609 13.2943 17.5436 13.277 17.1604C13.2688 16.7856 12.9644 16.4941 12.5933 16.4949C12.2148 16.5116 11.9194 16.8289 11.9203 17.2121ZM12.632 20.8761C12.2535 20.8936 11.9408 20.5937 11.9236 20.2106C11.9227 19.8274 12.2189 19.5101 12.5974 19.4934C12.9677 19.4926 13.2729 19.7841 13.2811 20.1589C13.2984 20.5421 13.003 20.8594 12.632 20.8761Z" fill="#00AF71"/>
</svg>
