<svg width="24" height="24" viewBox="0 0 24 24" fill="none" xmlns="http://www.w3.org/2000/svg">
<circle cx="12" cy="12" r="12" fill="url(#paint0_linear_2479_17432)"/>
<path d="M8.23975 11.1998C8.23975 13.3187 9.92485 15.0422 11.9965 15.0422C14.0682 15.0422 15.7533 13.3187 15.7533 11.1998C15.7533 9.10119 14.1178 7.40811 12.0758 7.35742H11.9172C9.8852 7.40811 8.23975 9.11133 8.23975 11.1998Z" fill="white"/>
<path d="M17.3194 12.4142L20.1147 7.45665C20.5012 6.77739 20.0155 5.92578 19.2523 5.92578H13.7113C13.632 5.92578 13.5725 5.98661 13.5725 6.06772C13.5725 6.10827 13.5923 6.13868 13.6122 6.1691C13.6221 6.17924 13.6419 6.18937 13.6617 6.19951C15.7334 6.89905 17.1806 8.87599 17.1806 11.2179C17.1806 11.2179 17.1707 11.6133 17.0716 12.3331C17.0617 12.4142 17.131 12.475 17.2103 12.475C17.25 12.4649 17.2896 12.4446 17.3194 12.4142Z" fill="white"/>
<path d="M6.79221 12.4649C6.87151 12.4649 6.95081 12.4041 6.93098 12.323C6.83186 11.8262 6.82195 11.2078 6.82195 11.2078C6.82195 8.86585 8.27906 6.89905 10.3408 6.19951C10.3607 6.18937 10.3706 6.17924 10.3904 6.1691C10.4201 6.13868 10.43 6.10827 10.43 6.06772C10.43 5.98661 10.3706 5.92578 10.2913 5.92578H4.75027C3.9771 5.92578 3.50131 6.77739 3.88789 7.45665L6.68317 12.4142C6.703 12.4446 6.75256 12.4649 6.79221 12.4649Z" fill="white"/>
<path d="M15.6429 15.1917C15.6033 15.1207 15.5042 15.0802 15.4546 15.141C15.1572 15.4451 14.5724 15.7898 14.5724 15.7898C12.58 16.9557 10.1812 16.6415 8.56553 15.1613C8.55561 15.1511 8.53579 15.141 8.51596 15.1309C8.47631 15.1207 8.44658 15.1207 8.40693 15.141C8.33754 15.1816 8.31772 15.2627 8.35737 15.3336L11.113 20.2608C11.4996 20.94 12.4512 20.9502 12.8477 20.2709L15.6628 15.3235C15.6628 15.2829 15.6628 15.2322 15.6429 15.1917Z" fill="white"/>
<defs>
<linearGradient id="paint0_linear_2479_17432" x1="0" y1="0" x2="22.7093" y2="4.25876" gradientUnits="userSpaceOnUse">
<stop offset="0.244792" stop-color="#00FFFE"/>
<stop offset="1" stop-color="#00A1FA"/>
</linearGradient>
</defs>
</svg>
