<svg width="48" height="48" viewBox="0 0 48 48" fill="none" xmlns="http://www.w3.org/2000/svg">
<path d="M37.5055 41.4612H29.7474H27.6584H27.2072V31.055H30.6105C31.4736 31.055 31.9837 30.0742 31.4736 29.368L24.8533 20.2074C24.4315 19.6189 23.5586 19.6189 23.1369 20.2074L16.5166 29.368C16.0065 30.0742 16.5067 31.055 17.3796 31.055H20.783V41.4612H20.3318H18.2427H9.24888C4.09971 41.1768 0 36.3611 0 31.1433C0 27.5437 1.95178 24.4052 4.84512 22.7084C4.5803 21.9925 4.44299 21.2274 4.44299 20.4232C4.44299 16.7452 7.41479 13.7734 11.0928 13.7734C11.8872 13.7734 12.6522 13.9107 13.3682 14.1755C15.4965 9.66389 20.0866 6.53516 25.4221 6.53516C32.3269 6.54496 38.0155 11.8314 38.6629 18.5695C43.9689 19.4816 48 24.3954 48 29.9565C48 35.9001 43.3707 41.0493 37.5055 41.4612Z" fill="#E8E8E8"/>
</svg>
