<svg width="33" height="32" viewBox="0 0 33 32" fill="none" xmlns="http://www.w3.org/2000/svg">
<rect x="0.333008" width="32" height="32" rx="4" fill="#DD935D" fill-opacity="0.1"/>
<path d="M17.0486 8.97774L9.41667 7.81801C9.0625 7.76246 8.70139 7.85968 8.43056 8.08885C8.15972 8.32496 8 8.66524 8 9.0194V23.6513C8 24.0333 8.3125 24.3458 8.69444 24.3458H10.9514V20.7C10.9514 20.0263 11.4931 19.4847 12.1667 19.4847H13.9028C14.5764 19.4847 15.1181 20.0263 15.1181 20.7V24.3458H18.0694V10.1791C18.0694 9.5819 17.6389 9.07496 17.0486 8.97774V8.97774ZM11.8194 17.9222H10.7778C10.4903 17.9222 10.2569 17.6888 10.2569 17.4013C10.2569 17.1138 10.4903 16.8805 10.7778 16.8805H11.8194C12.1069 16.8805 12.3403 17.1138 12.3403 17.4013C12.3403 17.6888 12.1069 17.9222 11.8194 17.9222ZM11.8194 15.8388H10.7778C10.4903 15.8388 10.2569 15.6055 10.2569 15.318C10.2569 15.0305 10.4903 14.7972 10.7778 14.7972H11.8194C12.1069 14.7972 12.3403 15.0305 12.3403 15.318C12.3403 15.6055 12.1069 15.8388 11.8194 15.8388ZM11.8194 13.7555H10.7778C10.4903 13.7555 10.2569 13.5222 10.2569 13.2347C10.2569 12.9472 10.4903 12.7138 10.7778 12.7138H11.8194C12.1069 12.7138 12.3403 12.9472 12.3403 13.2347C12.3403 13.5222 12.1069 13.7555 11.8194 13.7555ZM11.8194 11.6722H10.7778C10.4903 11.6722 10.2569 11.4388 10.2569 11.1513C10.2569 10.8638 10.4903 10.6305 10.7778 10.6305H11.8194C12.1069 10.6305 12.3403 10.8638 12.3403 11.1513C12.3403 11.4388 12.1069 11.6722 11.8194 11.6722ZM15.2917 17.9222H14.25C13.9625 17.9222 13.7292 17.6888 13.7292 17.4013C13.7292 17.1138 13.9625 16.8805 14.25 16.8805H15.2917C15.5792 16.8805 15.8125 17.1138 15.8125 17.4013C15.8125 17.6888 15.5792 17.9222 15.2917 17.9222ZM15.2917 15.8388H14.25C13.9625 15.8388 13.7292 15.6055 13.7292 15.318C13.7292 15.0305 13.9625 14.7972 14.25 14.7972H15.2917C15.5792 14.7972 15.8125 15.0305 15.8125 15.318C15.8125 15.6055 15.5792 15.8388 15.2917 15.8388ZM15.2917 13.7555H14.25C13.9625 13.7555 13.7292 13.5222 13.7292 13.2347C13.7292 12.9472 13.9625 12.7138 14.25 12.7138H15.2917C15.5792 12.7138 15.8125 12.9472 15.8125 13.2347C15.8125 13.5222 15.5792 13.7555 15.2917 13.7555ZM15.2917 11.6722H14.25C13.9625 11.6722 13.7292 11.4388 13.7292 11.1513C13.7292 10.8638 13.9625 10.6305 14.25 10.6305H15.2917C15.5792 10.6305 15.8125 10.8638 15.8125 11.1513C15.8125 11.4388 15.5792 11.6722 15.2917 11.6722Z" fill="#E26B45"/>
<path d="M23.7081 15.2092L18.7637 14.1738V24.3467H23.4512C24.1213 24.3467 24.6665 23.8016 24.6665 23.1315V16.3967C24.6665 15.8231 24.2755 15.3349 23.7081 15.2092V15.2092ZM22.0623 22.2634H21.0206C20.7331 22.2634 20.4998 22.0301 20.4998 21.7426C20.4998 21.4551 20.7331 21.2217 21.0206 21.2217H22.0623C22.3498 21.2217 22.5831 21.4551 22.5831 21.7426C22.5831 22.0301 22.3498 22.2634 22.0623 22.2634ZM22.0623 20.1801H21.0206C20.7331 20.1801 20.4998 19.9467 20.4998 19.6592C20.4998 19.3717 20.7331 19.1384 21.0206 19.1384H22.0623C22.3498 19.1384 22.5831 19.3717 22.5831 19.6592C22.5831 19.9467 22.3498 20.1801 22.0623 20.1801ZM22.0623 18.0967H21.0206C20.7331 18.0967 20.4998 17.8634 20.4998 17.5759C20.4998 17.2884 20.7331 17.0551 21.0206 17.0551H22.0623C22.3498 17.0551 22.5831 17.2884 22.5831 17.5759C22.5831 17.8634 22.3498 18.0967 22.0623 18.0967Z" fill="#E26B45"/>
</svg>
