<svg width="16" height="16" viewBox="0 0 16 16" fill="none" xmlns="http://www.w3.org/2000/svg">
<mask id="mask0_6181_49714" style="mask-type:alpha" maskUnits="userSpaceOnUse" x="0" y="0" width="16" height="16">
<rect width="16" height="16" fill="#C4C4C4"/>
</mask>
<g mask="url(#mask0_6181_49714)">
</g>
<path d="M12.5938 2.75L10.1875 2.75V2.3125C10.1875 1.58879 9.59871 1 8.875 1L7.125 1C6.40129 1 5.8125 1.58879 5.8125 2.3125V2.75H3.40625C2.80316 2.75 2.3125 3.24066 2.3125 3.84375L2.3125 5.375C2.3125 5.61661 2.50839 5.8125 2.75 5.8125H2.98909L3.36707 13.7499C3.40045 14.4509 3.97631 15 4.67806 15H11.3219C12.0237 15 12.5996 14.4509 12.6329 13.7499L13.0109 5.8125H13.25C13.4916 5.8125 13.6875 5.61661 13.6875 5.375V3.84375C13.6875 3.24066 13.1968 2.75 12.5938 2.75ZM6.6875 2.3125C6.6875 2.07127 6.88377 1.875 7.125 1.875H8.875C9.11623 1.875 9.3125 2.07127 9.3125 2.3125V2.75L6.6875 2.75V2.3125ZM3.1875 3.84375C3.1875 3.72314 3.28564 3.625 3.40625 3.625L12.5938 3.625C12.7144 3.625 12.8125 3.72314 12.8125 3.84375V4.9375C12.6777 4.9375 3.74621 4.9375 3.1875 4.9375V3.84375ZM11.7589 13.7083C11.7478 13.942 11.5558 14.125 11.3219 14.125H4.67806C4.44414 14.125 4.25218 13.942 4.24108 13.7083L3.86508 5.8125L12.1349 5.8125L11.7589 13.7083Z" fill="white"/>
<path d="M8 13.25C8.24161 13.25 8.4375 13.0541 8.4375 12.8125V7.125C8.4375 6.88339 8.24161 6.6875 8 6.6875C7.75839 6.6875 7.5625 6.88339 7.5625 7.125V12.8125C7.5625 13.0541 7.75836 13.25 8 13.25Z" fill="white"/>
<path d="M10.1875 13.25C10.4291 13.25 10.625 13.0541 10.625 12.8125V7.125C10.625 6.88339 10.4291 6.6875 10.1875 6.6875C9.94589 6.6875 9.75 6.88339 9.75 7.125V12.8125C9.75 13.0541 9.94586 13.25 10.1875 13.25Z" fill="white"/>
<path d="M5.8125 13.25C6.05411 13.25 6.25 13.0541 6.25 12.8125V7.125C6.25 6.88339 6.05411 6.6875 5.8125 6.6875C5.57089 6.6875 5.375 6.88339 5.375 7.125V12.8125C5.375 13.0541 5.57086 13.25 5.8125 13.25Z" fill="white"/>
</svg>
