<svg width="24" height="24" viewBox="0 0 24 24" fill="none" xmlns="http://www.w3.org/2000/svg">
<circle cx="12" cy="12" r="12" fill="white"/>
<path d="M23.5 12C23.5 18.3513 18.3513 23.5 12 23.5C5.64873 23.5 0.5 18.3513 0.5 12C0.5 5.64873 5.64873 0.5 12 0.5C18.3513 0.5 23.5 5.64873 23.5 12Z" fill="#5365ED" stroke="white"/>
<g clip-path="url(#clip0_2839_46393)">
<path d="M16.4815 8.33691C17.9434 10.4863 18.6653 12.9108 18.3954 15.7019C18.3943 15.7137 18.3882 15.7246 18.3785 15.7317C17.2714 16.5446 16.1988 17.038 15.1412 17.3651C15.133 17.3676 15.1242 17.3675 15.116 17.3647C15.1079 17.362 15.1008 17.3567 15.0957 17.3497C14.8514 17.0098 14.6294 16.6514 14.4349 16.275C14.4238 16.2529 14.434 16.2262 14.4569 16.2174C14.8095 16.0846 15.1448 15.9254 15.4673 15.7369C15.4927 15.722 15.4943 15.6856 15.4708 15.6681C15.4024 15.6173 15.3346 15.5639 15.2697 15.5105C15.2576 15.5006 15.2412 15.4987 15.2275 15.5053C13.1339 16.4721 10.8404 16.4721 8.72207 15.5053C8.70831 15.4992 8.69197 15.5013 8.68016 15.511C8.61544 15.5644 8.54748 15.6173 8.47968 15.6681C8.45622 15.6856 8.45816 15.722 8.48373 15.7369C8.8062 15.9218 9.14147 16.0846 9.49355 16.2181C9.51637 16.2268 9.52721 16.2529 9.51588 16.275C9.3256 16.6519 9.1036 17.0103 8.85475 17.3502C8.84391 17.364 8.82611 17.3703 8.80928 17.3651C7.75673 17.038 6.68412 16.5446 5.57705 15.7317C5.56783 15.7246 5.56119 15.7133 5.56022 15.7014C5.33467 13.2872 5.79436 10.8426 7.47244 8.33643C7.47649 8.32979 7.48264 8.32461 7.48975 8.32154C8.31545 7.94259 9.20004 7.6638 10.1246 7.50459C10.1414 7.502 10.1583 7.50977 10.167 7.52465C10.2812 7.72691 10.4118 7.98628 10.5001 8.19824C11.4747 8.04938 12.4645 8.04938 13.4594 8.19824C13.5478 7.99081 13.6738 7.72691 13.7876 7.52465C13.7916 7.51727 13.7979 7.51135 13.8055 7.50775C13.8131 7.50414 13.8217 7.50304 13.8299 7.50459C14.755 7.66429 15.6396 7.94308 16.4646 8.32154C16.4719 8.32461 16.4779 8.32979 16.4815 8.33691ZM10.9956 12.9273C11.0058 12.2136 10.4854 11.623 9.83221 11.623C9.18434 11.623 8.66899 12.2084 8.66899 12.9273C8.66899 13.646 9.19454 14.2315 9.83221 14.2315C10.4802 14.2315 10.9956 13.646 10.9956 12.9273ZM15.2967 12.9273C15.3069 12.2136 14.7865 11.623 14.1335 11.623C13.4855 11.623 12.9701 12.2084 12.9701 12.9273C12.9701 13.646 13.4957 14.2315 14.1335 14.2315C14.7865 14.2315 15.2967 13.646 15.2967 12.9273Z" fill="white"/>
</g>
<defs>
<clipPath id="clip0_2839_46393">
<rect width="13.5" height="9.8712" fill="white" transform="translate(5.25 7.5)"/>
</clipPath>
</defs>
</svg>
