<svg width="32" height="32" viewBox="0 0 32 32" fill="none" xmlns="http://www.w3.org/2000/svg">
<rect width="32" height="32" rx="4" fill="#F08BE6" fill-opacity="0.15"/>
<g clip-path="url(#clip0_2351_80706)">
<path d="M10.6875 20.0033V22.4453H8.92969C8.60582 22.4453 8.34375 22.7074 8.34375 23.0312C8.34375 23.3551 8.60582 23.6172 8.92969 23.6172H10.6875V25.4141C10.6875 25.7379 10.9496 26 11.2734 26C11.5973 26 11.8594 25.7379 11.8594 25.4141V23.6172H13.6172C13.9411 23.6172 14.2031 23.3551 14.2031 23.0312C14.2031 22.7074 13.9411 22.4453 13.6172 22.4453H11.8594V20.0056C12.2579 19.9545 12.6471 19.8736 13.0162 19.7433C12.6798 19.4633 12.3747 19.1482 12.1012 18.8064C11.8337 18.8615 11.557 18.8906 11.2734 18.8906C9.01207 18.8906 7.17188 17.0504 7.17188 14.7891C7.17188 12.5277 9.01207 10.6875 11.2734 10.6875C13.6105 10.6875 15.375 12.6809 15.375 14.7891C15.375 15.4678 15.1934 16.0989 14.9002 16.6634C15.1563 16.968 15.4695 17.218 15.8283 17.3983C16.2729 16.6256 16.5469 15.7427 16.5469 14.7891C16.5469 12.0713 14.3117 9.51562 11.2734 9.51562C8.36551 9.51562 6 11.8811 6 14.7891C6 17.4964 8.05801 19.7075 10.6875 20.0033Z" fill="#F759AB"/>
<path d="M25.4141 6H21.8984C21.5746 6 21.3125 6.26207 21.3125 6.58594C21.3125 6.9098 21.5746 7.17188 21.8984 7.17188H23.9996L20.4061 10.6872C19.5039 9.96551 18.3755 9.51562 17.1328 9.51562C16.5191 9.51562 15.9384 9.64121 15.3901 9.83484C15.7264 10.1148 16.0315 10.4299 16.305 10.7717C16.5725 10.7166 16.8493 10.6875 17.1328 10.6875C19.3942 10.6875 21.2344 12.5277 21.2344 14.7891C21.2344 17.0504 19.3942 18.8906 17.1328 18.8906C14.8116 18.8906 13.0312 16.9191 13.0312 14.7891C13.0312 14.1104 13.2129 13.4792 13.5061 12.9147C13.2499 12.6101 12.9367 12.3601 12.5779 12.1798C12.1334 12.9525 11.8594 13.8354 11.8594 14.7891C11.8594 17.5334 14.1546 20.0625 17.1328 20.0625C20.0407 20.0625 22.4062 17.697 22.4062 14.7891C22.4062 13.5464 21.9564 12.418 21.2346 11.5158L24.8281 8.00043V10.1016C24.8281 10.4254 25.0902 10.6875 25.4141 10.6875C25.7379 10.6875 26 10.4254 26 10.1016V6.58594C26 6.26535 25.7372 6 25.4141 6V6Z" fill="#F759AB"/>
</g>
<defs>
<clipPath id="clip0_2351_80706">
<rect width="20" height="20" fill="white" transform="translate(6 6)"/>
</clipPath>
</defs>
</svg>
