<svg width="29" height="28" viewBox="0 0 29 28" fill="none" xmlns="http://www.w3.org/2000/svg">
<rect x="0.5" width="28" height="28" rx="4" fill="#7C7BF5" fill-opacity="0.1"/>
<path d="M8.70267 10.4405H9.86215V19.3298H8.70267C8.49766 19.3298 8.30105 19.2484 8.15609 19.1034C8.01113 18.9585 7.92969 18.7619 7.92969 18.5568V11.2135C7.92969 11.0085 8.01113 10.8119 8.15609 10.6669C8.30105 10.5219 8.49766 10.4405 8.70267 10.4405ZM17.9785 10.4405H18.365V19.3298H10.6351V10.4405H11.0216C11.0519 9.96261 11.2621 9.51392 11.6099 9.18477C11.9577 8.85561 12.4173 8.67043 12.8961 8.66651H16.0963C16.5792 8.66587 17.0438 8.85086 17.3942 9.18321C17.7445 9.51555 17.9537 9.96984 17.9785 10.4521V10.4405ZM14.1136 13.5324C14.1136 13.6349 14.1543 13.7333 14.2268 13.8057C14.2992 13.8782 14.3976 13.9189 14.5001 13.9189C14.6026 13.9189 14.7009 13.8782 14.7733 13.8057C14.8458 13.7333 14.8865 13.6349 14.8865 13.5324C14.9309 13.5209 14.9772 13.5194 15.0222 13.528C15.0671 13.5365 15.1096 13.555 15.1466 13.582C15.1836 13.609 15.2141 13.6438 15.236 13.6841C15.2579 13.7243 15.2705 13.7689 15.273 13.8146C15.273 13.9171 15.3138 14.0154 15.3862 14.0879C15.4587 14.1604 15.557 14.2011 15.6595 14.2011C15.762 14.2011 15.8603 14.1604 15.9328 14.0879C16.0053 14.0154 16.046 13.9171 16.046 13.8146C16.0456 13.6671 16.0144 13.5214 15.9546 13.3866C15.8948 13.2519 15.8076 13.1311 15.6985 13.0318C15.5895 12.9326 15.461 12.8571 15.3212 12.8102C15.1814 12.7633 15.0334 12.7461 14.8865 12.7595C14.8865 12.657 14.8458 12.5586 14.7733 12.4862C14.7009 12.4137 14.6026 12.373 14.5001 12.373C14.3976 12.373 14.2992 12.4137 14.2268 12.4862C14.1543 12.5586 14.1136 12.657 14.1136 12.7595C13.9667 12.7461 13.8187 12.7633 13.6789 12.8102C13.5391 12.8571 13.4106 12.9326 13.3016 13.0318C13.1925 13.1311 13.1053 13.2519 13.0455 13.3866C12.9857 13.5214 12.9545 13.6671 12.9541 13.8146V14.2011C12.9541 14.3395 12.9814 14.4765 13.0345 14.6043C13.0875 14.7321 13.1653 14.8481 13.2634 14.9458C13.3614 15.0435 13.4777 15.1208 13.6057 15.1734C13.7337 15.226 13.8708 15.2528 14.0092 15.2523H14.96C15.3194 15.2523 15.2344 15.6736 15.2421 15.9132C15.241 15.9595 15.2293 16.0049 15.2079 16.0459C15.1864 16.0869 15.1559 16.1224 15.1185 16.1497C15.0811 16.1769 15.038 16.1953 14.9924 16.2032C14.9468 16.2111 14.9 16.2084 14.8556 16.1954C14.8556 16.0929 14.8149 15.9946 14.7424 15.9221C14.6699 15.8496 14.5716 15.8089 14.4691 15.8089C14.3666 15.8089 14.2683 15.8496 14.1958 15.9221C14.1234 15.9946 14.0826 16.0929 14.0826 16.1954C14.0419 16.2031 13.9999 16.2023 13.9595 16.193C13.919 16.1838 13.8809 16.1663 13.8475 16.1416C13.8141 16.1169 13.7862 16.0856 13.7655 16.0496C13.7447 16.0137 13.7317 15.9738 13.7271 15.9326C13.7271 15.8301 13.6864 15.7317 13.6139 15.6593C13.5414 15.5868 13.4431 15.5461 13.3406 15.5461C13.2381 15.5461 13.1398 15.5868 13.0673 15.6593C12.9948 15.7317 12.9541 15.8301 12.9541 15.9326C12.954 16.0802 12.9847 16.2262 13.0443 16.3612C13.104 16.4963 13.1912 16.6174 13.3003 16.7167C13.4095 16.8161 13.5383 16.8915 13.6783 16.9382C13.8184 16.9848 13.9666 17.0017 14.1136 16.9877C14.1136 17.0902 14.1543 17.1885 14.2268 17.261C14.2992 17.3335 14.3976 17.3742 14.5001 17.3742C14.6026 17.3742 14.7009 17.3335 14.7733 17.261C14.8458 17.1885 14.8865 17.0902 14.8865 16.9877C15.0335 17.0017 15.1818 16.9848 15.3218 16.9382C15.4619 16.8915 15.5906 16.8161 15.6998 16.7167C15.809 16.6174 15.8962 16.4963 15.9558 16.3612C16.0154 16.2262 16.0462 16.0802 16.046 15.9326V15.5461C16.046 15.4077 16.0187 15.2707 15.9656 15.1429C15.9126 15.0151 15.8348 14.899 15.7368 14.8013C15.6387 14.7037 15.5224 14.6263 15.3944 14.5737C15.2664 14.5211 15.1293 14.4943 14.9909 14.4948H14.0247C13.6652 14.4948 13.7503 14.0735 13.7425 13.83C13.746 13.7863 13.7587 13.7438 13.7799 13.7054C13.8011 13.667 13.8301 13.6335 13.8652 13.6072C13.9003 13.5808 13.9406 13.5623 13.9834 13.5527C14.0263 13.5432 14.0706 13.5429 14.1136 13.5518V13.5324ZM17.2055 10.4405C17.1787 10.1668 17.0511 9.91279 16.8476 9.72782C16.644 9.54285 16.379 9.44009 16.104 9.43949H12.9C12.6253 9.44255 12.3612 9.54605 12.1575 9.73046C11.9539 9.91487 11.8248 10.1674 11.7946 10.4405H17.2055ZM20.2974 10.4405H19.138V19.3298H20.2974C20.5024 19.3298 20.6991 19.2484 20.844 19.1034C20.989 18.9585 21.0704 18.7619 21.0704 18.5568V11.2135C21.0704 11.0085 20.989 10.8119 20.844 10.6669C20.6991 10.5219 20.5024 10.4405 20.2974 10.4405Z" fill="#7C7BF5"/>
</svg>
