<svg width="29" height="28" viewBox="0 0 29 28" fill="none" xmlns="http://www.w3.org/2000/svg">
<rect x="0.5" width="28" height="28" rx="4" fill="#85FF66" fill-opacity="0.1"/>
<path fill-rule="evenodd" clip-rule="evenodd" d="M20.6379 13.5484C20.5696 12.626 20.2932 11.7262 19.8298 10.9225C19.7523 10.788 19.7986 10.6154 19.933 10.5378C20.0676 10.4602 20.2401 10.5064 20.3178 10.641C20.8292 11.5276 21.1314 12.5213 21.2018 13.5394C21.1169 13.5177 21.0279 13.5061 20.9363 13.5061C20.8328 13.5061 20.7327 13.5209 20.6379 13.5484L20.6379 13.5484ZM17.9584 19.0916C18.7241 18.5715 19.366 17.882 19.8299 17.0778C19.9075 16.9432 20.0799 16.8971 20.2145 16.9746C20.3492 17.0522 20.3954 17.2247 20.3178 17.3593C19.8057 18.2471 19.0952 19.0077 18.2465 19.5772C18.1948 19.3901 18.0951 19.2235 17.9584 19.0916L17.9584 19.0916ZM14.4994 20.7186C13.4758 20.7185 12.4642 20.483 11.5472 20.035C11.609 19.9715 11.6634 19.9 11.7087 19.8215C11.7597 19.7331 11.7974 19.639 11.8214 19.5419C12.6544 19.944 13.5716 20.1554 14.4994 20.1554C14.6549 20.1554 14.781 20.2815 14.781 20.4369C14.7811 20.5924 14.6549 20.7186 14.4994 20.7186L14.4994 20.7186ZM8.92504 17.5002C8.82441 17.5002 8.73159 17.4468 8.6811 17.3594C8.16903 16.4731 7.86702 15.4791 7.79688 14.4609C7.88188 14.4826 7.97089 14.4942 8.06258 14.4942C8.16606 14.4942 8.26615 14.4794 8.36089 14.452C8.42902 15.3744 8.70484 16.2744 9.16893 17.0777C9.24658 17.2121 9.20024 17.3853 9.06562 17.4626C9.02279 17.4872 8.97445 17.5002 8.92504 17.5002V17.5002ZM8.92472 11.0634C8.87537 11.0634 8.82696 11.0504 8.78422 11.0257C8.64973 10.9481 8.60342 10.7754 8.6811 10.6409C9.1947 9.75196 9.90638 8.99116 10.7565 8.42087C10.8065 8.60296 10.904 8.77202 11.0436 8.90748C10.2773 9.42865 9.63396 10.1176 9.16893 10.9226C9.11846 11.01 9.02533 11.0634 8.92472 11.0634L8.92472 11.0634ZM17.1771 8.45889C16.3438 8.05758 15.4274 7.84501 14.4994 7.84496C14.344 7.84495 14.2178 7.71877 14.2178 7.56331C14.2179 7.40788 14.344 7.28174 14.4994 7.28174C15.5229 7.28173 16.5348 7.5168 17.4516 7.96515C17.3897 8.02864 17.3353 8.10022 17.29 8.1788C17.2388 8.26742 17.2011 8.36169 17.1771 8.45889L17.1771 8.45889ZM14.2178 15.1195L14.2179 14.3447L14.4994 14.0631L14.7811 14.3448L14.7811 15.1195C14.6871 15.1076 14.5928 15.1016 14.4994 15.1016C14.406 15.1016 14.3118 15.1076 14.2178 15.1195V15.1195ZM14.2179 14.0502V14.0463L14.2184 14.0462L14.2179 14.0502ZM14.781 14.0463V14.0508L14.7804 14.0462L14.781 14.0463Z" fill="#85FF66"/>
<path fill-rule="evenodd" clip-rule="evenodd" d="M17.6427 10.6221C16.1281 10.7026 14.8944 11.859 14.6934 13.339L16.3786 11.6538C16.4429 11.5896 16.5468 11.5896 16.611 11.6538C16.6753 11.718 16.6752 11.8219 16.611 11.8861L14.9257 13.5714C16.4059 13.3704 17.5622 12.1367 17.6427 10.6221L17.6427 10.6221Z" fill="#85FF66"/>
<path fill-rule="evenodd" clip-rule="evenodd" d="M12.6214 11.6538L14.3067 13.339C14.1057 11.859 12.872 10.7026 11.3574 10.6221C11.4379 12.1367 12.5943 13.3704 14.0743 13.5714L12.3891 11.8861C12.3249 11.8219 12.3249 11.718 12.3891 11.6538C12.4533 11.5896 12.5572 11.5896 12.6214 11.6538L12.6214 11.6538Z" fill="#85FF66"/>
<path fill-rule="evenodd" clip-rule="evenodd" d="M13.2216 16.0556C13.1728 16.123 13.0815 16.1435 13.0087 16.103C12.8446 16.0119 12.6578 15.9637 12.4689 15.9637C11.854 15.9637 11.3535 16.4641 11.3535 17.079C11.3535 17.1703 11.3644 17.2608 11.3861 17.3479C11.391 17.3679 11.4083 17.3816 11.428 17.3816H17.5736C17.5934 17.3816 17.6108 17.3676 17.6156 17.3476C17.637 17.2606 17.6482 17.1701 17.6482 17.079C17.6482 16.4641 17.1477 15.9637 16.5328 15.9637C16.3439 15.9637 16.1571 16.0119 15.993 16.103C15.9202 16.1435 15.8286 16.123 15.78 16.0556C15.5217 15.6982 15.0315 15.4761 14.5008 15.4761C13.9701 15.4761 13.48 15.6982 13.2216 16.0556H13.2216Z" fill="#85FF66"/>
<path fill-rule="evenodd" clip-rule="evenodd" d="M10.7813 18.5864C10.5396 18.5864 10.3046 18.7114 10.1753 18.9353C9.98314 19.2689 10.0974 19.6966 10.4309 19.8893C10.5924 19.9825 10.7808 20.0075 10.961 19.959C11.1413 19.9109 11.2916 19.7951 11.3849 19.6336C11.4781 19.4721 11.5031 19.2838 11.4546 19.1035C11.4065 18.9233 11.2907 18.7729 11.1292 18.6797C11.0197 18.6162 10.8995 18.5864 10.7813 18.5864L10.7813 18.5864Z" fill="#85FF66"/>
<path fill-rule="evenodd" clip-rule="evenodd" d="M17.2149 19.1646C16.9732 19.1646 16.7381 19.2895 16.6089 19.5135C16.4167 19.847 16.531 20.2747 16.8645 20.4674C17.026 20.5606 17.2144 20.5856 17.3946 20.5371C17.5749 20.489 17.7252 20.3732 17.8185 20.2117C17.9117 20.0503 17.9367 19.8619 17.8882 19.6817C17.8401 19.5015 17.7243 19.351 17.5628 19.2578C17.4533 19.1943 17.3331 19.1646 17.2149 19.1646V19.1646Z" fill="#85FF66"/>
<path fill-rule="evenodd" clip-rule="evenodd" d="M8.06354 12.7227C7.6786 12.7227 7.36523 13.0355 7.36523 13.4209C7.36523 13.8059 7.67857 14.1192 8.0635 14.1192C8.44848 14.1192 8.7618 13.8059 8.7618 13.4209C8.76184 13.0355 8.44845 12.7227 8.06354 12.7227Z" fill="#85FF66"/>
<path fill-rule="evenodd" clip-rule="evenodd" d="M17.6154 8.36599C17.5222 8.52745 17.4971 8.71535 17.5457 8.89559C17.5938 9.07578 17.7091 9.2267 17.871 9.31991C18.0326 9.41316 18.2204 9.43767 18.4006 9.38961C18.5809 9.34105 18.7317 9.22574 18.825 9.06426C18.9183 8.90279 18.9427 8.71441 18.8947 8.5342C18.8462 8.35396 18.7308 8.20355 18.5693 8.11031C18.4618 8.04832 18.342 8.0166 18.2214 8.0166C18.1604 8.0166 18.0993 8.02429 18.0393 8.04063C17.859 8.08868 17.7086 8.20451 17.6154 8.36599L17.6154 8.36599Z" fill="#85FF66"/>
<path fill-rule="evenodd" clip-rule="evenodd" d="M20.9366 13.8809C20.5517 13.8809 20.2383 14.1942 20.2383 14.5791C20.2383 14.9641 20.5516 15.2774 20.9366 15.2774C21.3216 15.2774 21.6348 14.9641 21.6348 14.5791C21.6349 14.1942 21.3215 13.8809 20.9366 13.8809H20.9366Z" fill="#85FF66"/>
<path fill-rule="evenodd" clip-rule="evenodd" d="M11.7931 7.43848C11.5513 7.43848 11.3163 7.56343 11.187 7.78738C10.9949 8.1209 11.1091 8.54861 11.4427 8.74133C11.6042 8.83456 11.7925 8.85954 11.9727 8.81103C12.153 8.76296 12.3034 8.64714 12.3966 8.48567C12.4899 8.32418 12.5148 8.13582 12.4663 7.95558C12.4183 7.77538 12.3024 7.62494 12.1409 7.53171C12.0314 7.46827 11.9112 7.43848 11.7931 7.43848L11.7931 7.43848Z" fill="#85FF66"/>
</svg>
