<svg width="29" height="28" viewBox="0 0 29 28" fill="none" xmlns="http://www.w3.org/2000/svg">
<rect x="0.5" width="28" height="28" rx="4" fill="#FFC132" fill-opacity="0.1"/>
<mask id="mask0_698_5154" style="mask-type:alpha" maskUnits="userSpaceOnUse" x="6" y="6" width="17" height="16">
<rect x="6.5" y="6" width="16" height="16" fill="#D9D9D9"/>
</mask>
<g mask="url(#mask0_698_5154)">
<path d="M10.4436 16.753C9.70278 15.9469 9.55389 14.2898 9.57204 13.562L8.26465 14.0099C8.13754 14.0659 7.88332 14.2338 7.88332 14.4577C7.7199 15.3535 7.99227 16.2492 8.26465 16.753C8.48255 17.1561 8.82755 17.1822 8.97282 17.1449L10.4436 16.753Z" fill="#FFC132"/>
<path fill-rule="evenodd" clip-rule="evenodd" d="M10.0076 13.5619C10.7702 13.2819 11.5329 13.002 13.8208 10.5948C14.6379 9.08322 15.6817 9.95545 16.4356 11.2666C17.1438 12.4982 17.7975 15.0389 17.0348 16.305C16.5981 17.03 16.2722 16.9768 15.7274 16.7529C14.42 16.3983 12.1866 15.8012 10.7702 16.361C10.3889 15.9691 9.83325 14.6815 10.0076 13.5619ZM14.3743 13.7155C14.8305 15.4303 15.7483 16.6664 16.4243 16.4764C17.1004 16.2865 17.2787 14.7425 16.8226 13.0277C16.3664 11.313 15.4486 10.0769 14.7726 10.2668C14.0965 10.4568 13.9182 12.0008 14.3743 13.7155Z" fill="#FFC132"/>
<path d="M15.1283 14.9617C14.7797 14.4243 14.5472 13.2076 14.4746 12.6664C14.747 12.6105 15.2917 12.5881 15.5096 13.6181C15.7275 14.6482 15.3462 14.9431 15.1283 14.9617Z" fill="#FFC132"/>
<rect width="3.16967" height="0.662529" rx="0.331265" transform="matrix(0.686248 -0.727368 0.708371 0.705841 17.002 10.3057)" fill="#FFC132"/>
<rect width="3.15196" height="0.666216" rx="0.333108" transform="matrix(-0.822786 -0.568351 -0.547369 0.836891 20.9961 16.6299)" fill="#FFC132"/>
<rect width="3.13323" height="0.670072" rx="0.335036" transform="matrix(0.948016 -0.318221 0.302898 0.953023 17.9941 12.5195)" fill="#FFC132"/>
<path d="M10.7699 18.2645L10.3341 17.2568L9.35352 17.4808C9.51694 17.9286 9.85468 18.8468 9.89826 18.9363C9.95274 19.0483 10.0072 19.6081 10.0617 19.7761C10.1053 19.9104 10.1888 19.9813 10.2251 20C10.552 19.9254 11.2601 19.7425 11.478 19.6081C11.6959 19.4738 11.6415 19.3655 11.587 19.3282L10.7699 18.2645Z" fill="#FFC132"/>
</g>
</svg>
