<svg width="28" height="28" viewBox="0 0 28 28" fill="none" xmlns="http://www.w3.org/2000/svg">
<rect width="28" height="28" rx="4" fill="#00CA92" fill-opacity="0.1"/>
<path fill-rule="evenodd" clip-rule="evenodd" d="M18.0857 11.4394L18.7035 12.0573L17.69 13.4571C17.8943 13.8017 18.0518 14.1774 18.1537 14.5754L19.8597 14.8485V16.4326L18.1537 16.7056C18.052 17.1037 17.8944 17.4793 17.69 17.8239L18.7035 19.2237L17.5834 20.3438L16.1835 19.3303C15.8389 19.5347 15.4632 19.6922 15.0653 19.794L14.7922 21.5H13.2081L12.935 19.7941C12.537 19.6923 12.1613 19.5347 11.8167 19.3303L10.4169 20.3438L9.29678 19.2237L10.3103 17.8239C10.1059 17.4793 9.94844 17.1036 9.84662 16.7056L8.14062 16.4325V14.8485L9.84666 14.5754C9.94844 14.1774 10.1059 13.8017 10.3103 13.4571L9.29678 12.0572L10.4169 10.9372L11.8167 11.9506C12.1613 11.7462 12.537 11.5887 12.935 11.4869L13.2081 9.78096H14.7922L14.9943 11.0434L13.6787 13.322C12.5382 13.4787 11.6596 14.4569 11.6596 15.6405C11.6596 16.9332 12.7075 17.981 14.0001 17.981C15.2928 17.981 16.3407 16.9331 16.3407 15.6405C16.3407 15.3287 16.2796 15.0313 16.1689 14.7593L18.0857 11.4394ZM14.1246 13.5497L15.7486 14.4873L19.5934 7.82796C19.8085 7.45527 19.6801 6.97581 19.3074 6.76062L19.0367 6.60434C18.664 6.38915 18.1846 6.51762 17.9694 6.89034L14.1246 13.5497ZM15.3752 14.8466L14.0001 14.0527V15.6405L15.3752 14.8466Z" fill="#00AF71"/>
</svg>
