<svg width="29" height="28" viewBox="0 0 29 28" fill="none" xmlns="http://www.w3.org/2000/svg">
<rect x="0.5" width="28" height="28" rx="4" fill="#FD054F" fill-opacity="0.1"/>
<path d="M10.2522 15.6893C10.1843 15.8248 10.2107 15.9886 10.3177 16.0957L10.4037 16.1816C10.6521 15.8873 10.9416 15.5679 11.2927 15.2169C11.3175 15.192 11.343 15.1801 11.3679 15.1572L10.8149 14.604C10.4933 15.1855 10.3058 15.5829 10.2522 15.6893Z" fill="#F759AB"/>
<path d="M13.2816 17.2056C12.9297 17.5576 12.6111 17.8476 12.3184 18.0962L12.4348 18.2126C12.5428 18.3206 12.7082 18.3466 12.8441 18.2767C13.0262 18.1829 13.3126 18.0481 13.9205 17.7095L13.3414 17.1304C13.3185 17.1554 13.3065 17.1808 13.2816 17.2056Z" fill="#F759AB"/>
<path d="M13.0934 15.4046C12.8394 15.1505 12.1249 15.3783 11.7893 15.7138C10.6665 16.8366 10.1594 17.6327 9.93168 18.1027C9.8664 18.2374 9.89359 18.3986 9.99943 18.5044C10.1054 18.6105 10.2669 18.6375 10.4017 18.5722C10.8612 18.3491 11.6476 17.8443 12.7837 16.7083C13.1528 16.339 13.3349 15.6461 13.0937 15.4048L13.0934 15.4046Z" fill="#F759AB"/>
<path d="M9.59733 12.6809L8.60298 13.6753C8.49055 13.7877 8.46748 13.9617 8.54713 14.0996C8.62486 14.2357 8.78764 14.305 8.94255 14.2635C9.47996 14.1194 9.95283 14.0585 10.2713 14.1402C10.7243 13.3348 11.211 12.5934 11.7266 11.9199C11.4284 11.7288 10.443 11.8352 9.59733 12.6809Z" fill="#F759AB"/>
<path d="M14.4513 19.9625C14.5867 20.0309 14.7507 20.0045 14.8579 19.8972L15.8523 18.9028C16.6222 18.1328 16.7577 17.1393 16.583 16.8242C15.8319 17.3903 15.071 17.8683 14.3611 18.2685C14.4101 18.545 14.3775 18.8134 14.2617 19.5971C14.2391 19.7488 14.3174 19.8955 14.4513 19.9625Z" fill="#F759AB"/>
<path d="M15.4802 11.5267C15.0691 11.938 15.0691 12.6069 15.4802 13.0182C15.8915 13.4294 16.5606 13.4294 16.9718 13.0182C17.3831 12.6069 17.3831 11.938 16.9718 11.5267C16.5606 11.1154 15.8915 11.1154 15.4802 11.5267Z" fill="#F759AB"/>
<path d="M20.4788 8.34293C20.4661 8.16907 20.3277 8.03165 20.1544 8.01865C19.291 7.95364 18.4309 8.05985 17.5879 8.31766C17.6513 8.89682 17.9509 9.52359 18.4623 10.035C18.9799 10.5525 19.6237 10.8519 20.2132 10.908C20.4402 10.1123 20.5479 9.2601 20.4788 8.34293Z" fill="#F759AB"/>
<path d="M17.9656 10.5323C17.3805 9.94733 17.0233 9.24567 16.9087 8.5625C14.7976 9.42831 12.7766 11.3191 11.1797 13.9752L11.9731 14.7686C12.5152 14.5485 13.1732 14.4904 13.5906 14.9076C14.0086 15.3257 13.9493 15.9835 13.7293 16.5248L14.5488 17.3443C16.5925 16.1127 18.9717 14.1722 19.9835 11.5905C19.2837 11.4848 18.5601 11.1269 17.9656 10.5323ZM17.4683 13.5154C16.783 14.2007 15.6678 14.2007 14.9824 13.5154C14.2971 12.83 14.2971 11.7147 14.9824 11.0295C15.6678 10.3442 16.783 10.3442 17.4683 11.0295C18.1536 11.7148 18.1536 12.83 17.4683 13.5154Z" fill="#F759AB"/>
</svg>
