<svg width="28" height="28" viewBox="0 0 28 28" fill="none" xmlns="http://www.w3.org/2000/svg">
<rect width="28" height="28" rx="4" fill="#E26B45" fill-opacity="0.1"/>
<path d="M14.5729 8.3819L8.46732 7.45412C8.18398 7.40967 7.8951 7.48745 7.67843 7.67078C7.46176 7.85967 7.33398 8.1319 7.33398 8.41523V20.1208C7.33398 20.4263 7.58398 20.6763 7.88954 20.6763H9.6951V17.7597C9.6951 17.2208 10.1284 16.7875 10.6673 16.7875H12.0562C12.5951 16.7875 13.0284 17.2208 13.0284 17.7597V20.6763H15.3895V9.34301C15.3895 8.86523 15.0451 8.45967 14.5729 8.3819ZM10.3895 15.5375H9.55621C9.32621 15.5375 9.13954 15.3508 9.13954 15.1208C9.13954 14.8908 9.32621 14.7041 9.55621 14.7041H10.3895C10.6195 14.7041 10.8062 14.8908 10.8062 15.1208C10.8062 15.3508 10.6195 15.5375 10.3895 15.5375ZM10.3895 13.8708H9.55621C9.32621 13.8708 9.13954 13.6841 9.13954 13.4541C9.13954 13.2241 9.32621 13.0375 9.55621 13.0375H10.3895C10.6195 13.0375 10.8062 13.2241 10.8062 13.4541C10.8062 13.6841 10.6195 13.8708 10.3895 13.8708ZM10.3895 12.2041H9.55621C9.32621 12.2041 9.13954 12.0175 9.13954 11.7875C9.13954 11.5575 9.32621 11.3708 9.55621 11.3708H10.3895C10.6195 11.3708 10.8062 11.5575 10.8062 11.7875C10.8062 12.0175 10.6195 12.2041 10.3895 12.2041ZM10.3895 10.5375H9.55621C9.32621 10.5375 9.13954 10.3508 9.13954 10.1208C9.13954 9.89078 9.32621 9.70412 9.55621 9.70412H10.3895C10.6195 9.70412 10.8062 9.89078 10.8062 10.1208C10.8062 10.3508 10.6195 10.5375 10.3895 10.5375ZM13.1673 15.5375H12.334C12.104 15.5375 11.9173 15.3508 11.9173 15.1208C11.9173 14.8908 12.104 14.7041 12.334 14.7041H13.1673C13.3973 14.7041 13.584 14.8908 13.584 15.1208C13.584 15.3508 13.3973 15.5375 13.1673 15.5375ZM13.1673 13.8708H12.334C12.104 13.8708 11.9173 13.6841 11.9173 13.4541C11.9173 13.2241 12.104 13.0375 12.334 13.0375H13.1673C13.3973 13.0375 13.584 13.2241 13.584 13.4541C13.584 13.6841 13.3973 13.8708 13.1673 13.8708ZM13.1673 12.2041H12.334C12.104 12.2041 11.9173 12.0175 11.9173 11.7875C11.9173 11.5575 12.104 11.3708 12.334 11.3708H13.1673C13.3973 11.3708 13.584 11.5575 13.584 11.7875C13.584 12.0175 13.3973 12.2041 13.1673 12.2041ZM13.1673 10.5375H12.334C12.104 10.5375 11.9173 10.3508 11.9173 10.1208C11.9173 9.89078 12.104 9.70412 12.334 9.70412H13.1673C13.3973 9.70412 13.584 9.89078 13.584 10.1208C13.584 10.3508 13.3973 10.5375 13.1673 10.5375Z" fill="#E26B45"/>
<path d="M19.9009 13.3664L15.9453 12.5381V20.6764H19.6953C20.2314 20.6764 20.6675 20.2403 20.6675 19.7042V14.3164C20.6675 13.8575 20.3548 13.467 19.9009 13.3664ZM18.5842 19.0098H17.7509C17.5209 19.0098 17.3342 18.8231 17.3342 18.5931C17.3342 18.3631 17.5209 18.1764 17.7509 18.1764H18.5842C18.8142 18.1764 19.0009 18.3631 19.0009 18.5931C19.0009 18.8231 18.8142 19.0098 18.5842 19.0098ZM18.5842 17.3431H17.7509C17.5209 17.3431 17.3342 17.1564 17.3342 16.9264C17.3342 16.6964 17.5209 16.5098 17.7509 16.5098H18.5842C18.8142 16.5098 19.0009 16.6964 19.0009 16.9264C19.0009 17.1564 18.8142 17.3431 18.5842 17.3431ZM18.5842 15.6764H17.7509C17.5209 15.6764 17.3342 15.4898 17.3342 15.2598C17.3342 15.0298 17.5209 14.8431 17.7509 14.8431H18.5842C18.8142 14.8431 19.0009 15.0298 19.0009 15.2598C19.0009 15.4898 18.8142 15.6764 18.5842 15.6764Z" fill="#E26B45"/>
</svg>
