<svg width="24" height="24" viewBox="0 0 24 24" fill="none" xmlns="http://www.w3.org/2000/svg">
<path d="M6.08577 23.9151C4.65848 23.8502 3.88314 23.6127 3.36743 23.4115C2.6841 23.1455 2.19693 22.8288 1.68407 22.3166C1.17122 21.8045 0.853806 21.3173 0.589176 20.634C0.388029 20.1183 0.150504 19.3429 0.0855946 17.9157C0.0142658 16.3728 0 15.9099 0 12.0011C0 8.09225 0.0156923 7.63004 0.0848813 6.08577C0.14979 4.65848 0.388742 3.88457 0.588463 3.36743C0.854519 2.6841 1.17193 2.19693 1.68336 1.68336C2.1955 1.17122 2.68268 0.853092 3.36672 0.588463C3.88243 0.387315 4.65777 0.14979 6.08506 0.0848813C7.62861 0.0142658 8.09225 0 11.9996 0C15.9085 0 16.3707 0.0156923 17.9149 0.0848813C19.3422 0.14979 20.1161 0.388742 20.6333 0.588463C21.3166 0.853092 21.8038 1.17122 22.3166 1.68336C22.8295 2.1955 23.1455 2.68339 23.4115 3.36672C23.6127 3.88243 23.8502 4.65777 23.9151 6.08506C23.9857 7.62933 24 8.09154 24 12.0004C24 15.9077 23.9857 16.3714 23.9151 17.9157C23.8502 19.3429 23.6113 20.1183 23.4115 20.634C23.1455 21.3173 22.8288 21.8045 22.3166 22.3166C21.8045 22.8288 21.3166 23.1455 20.6333 23.4115C20.1176 23.6127 19.3422 23.8502 17.9149 23.9151C16.3721 23.9857 15.9085 24 11.9996 24C8.09225 24 7.62862 23.9864 6.08577 23.9151Z" fill="url(#paint0_radial_3779_170381)"/>
<path d="M6.08577 23.9151C4.65848 23.8502 3.88314 23.6127 3.36743 23.4115C2.6841 23.1455 2.19693 22.8288 1.68407 22.3166C1.17122 21.8045 0.853806 21.3173 0.589176 20.634C0.388029 20.1183 0.150504 19.3429 0.0855946 17.9157C0.0142658 16.3728 0 15.9099 0 12.0011C0 8.09225 0.0156923 7.63004 0.0848813 6.08577C0.14979 4.65848 0.388742 3.88457 0.588463 3.36743C0.854519 2.6841 1.17193 2.19693 1.68336 1.68336C2.1955 1.17122 2.68268 0.853092 3.36672 0.588463C3.88243 0.387315 4.65777 0.14979 6.08506 0.0848813C7.62861 0.0142658 8.09225 0 11.9996 0C15.9085 0 16.3707 0.0156923 17.9149 0.0848813C19.3422 0.14979 20.1161 0.388742 20.6333 0.588463C21.3166 0.853092 21.8038 1.17122 22.3166 1.68336C22.8295 2.1955 23.1455 2.68339 23.4115 3.36672C23.6127 3.88243 23.8502 4.65777 23.9151 6.08506C23.9857 7.62933 24 8.09154 24 12.0004C24 15.9077 23.9857 16.3714 23.9151 17.9157C23.8502 19.3429 23.6113 20.1183 23.4115 20.634C23.1455 21.3173 22.8288 21.8045 22.3166 22.3166C21.8045 22.8288 21.3166 23.1455 20.6333 23.4115C20.1176 23.6127 19.3422 23.8502 17.9149 23.9151C16.3721 23.9857 15.9085 24 11.9996 24C8.09225 24 7.62862 23.9864 6.08577 23.9151Z" fill="url(#paint1_radial_3779_170381)"/>
<path d="M9.05341 12.0508C9.05341 10.4095 10.3836 9.07854 12.025 9.07854C13.6663 9.07854 14.9972 10.4095 14.9972 12.0508C14.9972 13.6921 13.6663 15.023 12.025 15.023C10.3836 15.023 9.05341 13.6921 9.05341 12.0508ZM7.44666 12.0508C7.44666 14.5794 9.49636 16.6291 12.025 16.6291C14.5536 16.6291 16.6032 14.5794 16.6032 12.0508C16.6032 9.5222 14.5536 7.47252 12.025 7.47252C9.49636 7.47252 7.44673 9.52206 7.44673 12.0508H7.44666ZM15.7146 7.29099C15.7146 7.5026 15.7772 7.70948 15.8947 7.88548C16.0122 8.06147 16.1793 8.19867 16.3747 8.27973C16.5702 8.36079 16.7853 8.38206 16.9929 8.34086C17.2004 8.29966 17.3911 8.19784 17.5408 8.04827C17.6905 7.8987 17.7925 7.7081 17.8339 7.50057C17.8752 7.29304 17.8541 7.0779 17.7732 6.88237C17.6923 6.68683 17.5552 6.51968 17.3793 6.40205C17.2034 6.28441 16.9966 6.22158 16.785 6.22149H16.7846C16.5009 6.22163 16.2289 6.33433 16.0283 6.53486C15.8277 6.73539 15.7149 7.00734 15.7146 7.29099ZM8.42286 19.3083C7.55358 19.2687 7.0811 19.1239 6.76711 19.0016C6.35084 18.8395 6.05383 18.6465 5.74155 18.3347C5.42928 18.0228 5.23598 17.7261 5.07463 17.3098C4.95223 16.996 4.80743 16.5234 4.76792 15.6541C4.72469 14.7143 4.71606 14.4319 4.71606 12.0509C4.71606 9.66993 4.72541 9.38839 4.76792 8.44779C4.8075 7.57851 4.95337 7.10682 5.07463 6.79205C5.23669 6.37578 5.4297 6.07877 5.74155 5.76649C6.0534 5.45422 6.35013 5.26092 6.76711 5.09957C7.08096 4.97717 7.55358 4.83238 8.42286 4.79286C9.36269 4.74964 9.64501 4.74101 12.025 4.74101C14.4049 4.74101 14.6875 4.75021 15.6281 4.793C16.4974 4.83259 16.9691 4.97846 17.2839 5.09971C17.7001 5.26106 17.9972 5.45479 18.3094 5.76663C18.6217 6.07848 18.8143 6.37592 18.9763 6.79219C19.0987 7.10603 19.2435 7.57865 19.2831 8.44793C19.3263 9.38854 19.3349 9.67007 19.3349 12.0511C19.3349 14.4321 19.3263 14.7136 19.2831 15.6542C19.2435 16.5235 19.098 16.996 18.9763 17.31C18.8143 17.7262 18.6213 18.0232 18.3094 18.3348C17.9976 18.6464 17.7001 18.8397 17.2839 19.0017C16.97 19.1241 16.4974 19.2689 15.6281 19.3084C14.6883 19.3517 14.406 19.3603 12.025 19.3603C9.64394 19.3603 9.3624 19.3517 8.42286 19.3084V19.3083ZM8.34904 3.18876C7.39987 3.23199 6.75128 3.38249 6.18486 3.60289C5.59861 3.8305 5.10166 4.13586 4.60543 4.6313C4.1092 5.12675 3.80463 5.62376 3.57702 6.21072C3.35661 6.7775 3.20611 7.42573 3.16288 8.37489C3.11894 9.32555 3.10889 9.62948 3.10889 12.0508C3.10889 14.4721 3.11894 14.776 3.16288 15.7267C3.20611 16.6759 3.35661 17.3241 3.57702 17.8909C3.80463 18.4771 4.10927 18.975 4.60543 19.4703C5.10159 19.9655 5.5979 20.2704 6.18486 20.4987C6.75235 20.7191 7.39987 20.8696 8.34904 20.9128C9.3002 20.956 9.60364 20.9668 12.025 20.9668C14.4463 20.9668 14.7502 20.9568 15.7009 20.9128C16.6501 20.8696 17.2983 20.7191 17.8651 20.4987C18.4513 20.2704 18.9482 19.9657 19.4445 19.4703C19.9407 18.9748 20.2446 18.4771 20.4729 17.8909C20.6933 17.3241 20.8445 16.6759 20.887 15.7267C20.9303 14.7753 20.9403 14.4721 20.9403 12.0508C20.9403 9.62948 20.9303 9.32555 20.887 8.37489C20.8438 7.42566 20.6933 6.77714 20.4729 6.21072C20.2446 5.62448 19.9399 5.12753 19.4445 4.6313C18.949 4.13507 18.4513 3.8305 17.8658 3.60289C17.2983 3.38249 16.65 3.23127 15.7016 3.18876C14.7508 3.14532 14.447 3.13477 12.026 3.13477C9.60506 3.13477 9.30056 3.14482 8.3494 3.18876" fill="white"/>
<defs>
<radialGradient id="paint0_radial_3779_170381" cx="0" cy="0" r="1" gradientUnits="userSpaceOnUse" gradientTransform="translate(1.55326 23.4742) scale(30.4711)">
<stop offset="0.09" stop-color="#FA8F21"/>
<stop offset="0.78" stop-color="#D82D7E"/>
</radialGradient>
<radialGradient id="paint1_radial_3779_170381" cx="0" cy="0" r="1" gradientUnits="userSpaceOnUse" gradientTransform="translate(16.624 22.7036) scale(26.8148)">
<stop offset="0.64" stop-color="#8C3AAA" stop-opacity="0"/>
<stop offset="1" stop-color="#8C3AAA"/>
</radialGradient>
</defs>
</svg>
