<svg width="24" height="24" viewBox="0 0 24 24" fill="none" xmlns="http://www.w3.org/2000/svg">
<circle cx="12" cy="12" r="11.5" fill="white" stroke="white"/>
<g clip-path="url(#clip0_3476_31030)">
<path d="M12 0.75C5.78675 0.75 0.75 5.78676 0.75 12C0.75 18.2132 5.78675 23.25 12 23.25C18.2132 23.25 23.25 18.2132 23.25 12C23.25 5.78676 18.2131 0.75 12 0.75ZM8.99846 17.4389H6.52842V9.45883H8.99846V17.4389ZM7.75167 8.41378C6.94498 8.41378 6.29101 7.75448 6.29101 6.94133C6.29101 6.12809 6.94507 5.46883 7.75167 5.46883C8.55827 5.46883 9.21223 6.12809 9.21223 6.94133C9.21228 7.75453 8.55831 8.41378 7.75167 8.41378ZM18.255 17.4389H15.7969V13.25C15.7969 12.1011 15.3605 11.4598 14.452 11.4598C13.4633 11.4598 12.9468 12.1277 12.9468 13.25V17.4389H10.5778V9.45883H12.9468V10.5336C12.9468 10.5336 13.6594 9.21541 15.3515 9.21541C17.0437 9.21541 18.255 10.2486 18.255 12.386L18.255 17.4389Z" fill="url(#paint0_linear_3476_31030)"/>
</g>
<defs>
<linearGradient id="paint0_linear_3476_31030" x1="4.04504" y1="4.04504" x2="19.9549" y2="19.9549" gradientUnits="userSpaceOnUse">
<stop stop-color="#2489BE"/>
<stop offset="1" stop-color="#0575B3"/>
</linearGradient>
<clipPath id="clip0_3476_31030">
<rect width="24" height="24" fill="white"/>
</clipPath>
</defs>
</svg>
