<svg width="24" height="24" viewBox="0 0 24 24" fill="none" xmlns="http://www.w3.org/2000/svg">
<path fill-rule="evenodd" clip-rule="evenodd" d="M17.3903 8.87997V7.29997C17.3903 4.37999 14.9719 2 12.0149 2H11.9845C9.02749 2 6.60908 4.36099 6.59892 7.29997V8.87997C7.0765 8.72097 7.58457 8.62997 8.11296 8.62997H8.12313V7.27997C8.13329 5.19098 9.86072 3.49999 11.9946 3.49999H12.0048C14.1387 3.49999 15.8661 5.20998 15.8661 7.29997V8.62997H15.8763C16.3861 8.62997 16.8865 8.7147 17.341 8.8635C16.8866 8.71476 16.3863 8.63007 15.8766 8.63007H8.11327C7.58488 8.63007 7.07681 8.72107 6.59922 8.88007C4.80066 9.50006 3.5 11.1811 3.5 13.17V17.46C3.5 19.96 5.57292 22 8.11327 22H15.8766C18.4271 22 20.5 19.96 20.5 17.46V13.17C20.5 11.1811 19.1993 9.50006 17.3906 8.88007C17.3905 8.88003 17.3904 8.88 17.3903 8.87997ZM12.8891 16.42C12.8891 16.91 12.4928 17.3 11.9949 17.3C11.5072 17.3 11.1109 16.91 11.1109 16.42V14.2C11.1109 13.721 11.5072 13.33 11.9949 13.33C12.4928 13.33 12.8891 13.721 12.8891 14.2V16.42Z" fill="white"/>
</svg>
