<svg width="33" height="32" viewBox="0 0 33 32" fill="none" xmlns="http://www.w3.org/2000/svg">
<rect x="0.666016" width="32" height="32" rx="4" fill="#FFEC3C" fill-opacity="0.1"/>
<path d="M17.9196 18.3074C17.5464 18.5561 17.1129 18.6877 16.666 18.6877C16.2191 18.6877 15.7856 18.5561 15.4125 18.3074L9.26589 14.2095C9.23179 14.1868 9.19856 14.1631 9.16602 14.1387V20.8535C9.16602 21.6233 9.79077 22.2343 10.5469 22.2343H22.7851C23.555 22.2343 24.166 21.6096 24.166 20.8535V14.1387C24.1334 14.1631 24.1001 14.1869 24.0659 14.2096L17.9196 18.3074Z" fill="#FFC132"/>
<path d="M9.75342 12.2283L15.9 16.3262C16.1327 16.4813 16.3993 16.5588 16.666 16.5588C16.9327 16.5588 17.1994 16.4812 17.432 16.3262L23.5786 12.2283C23.9464 11.9832 24.166 11.5731 24.166 11.1304C24.166 10.3692 23.5468 9.75 22.7856 9.75H10.5464C9.78526 9.75003 9.16602 10.3692 9.16602 11.1311C9.16602 11.5731 9.38562 11.9832 9.75342 12.2283Z" fill="#FFC132"/>
</svg>
