<svg width="33" height="32" viewBox="0 0 33 32" fill="none" xmlns="http://www.w3.org/2000/svg">
<rect x="0.333008" width="32" height="32" rx="4" fill="#8B9CF0" fill-opacity="0.15"/>
<path d="M24.1657 19.9111C23.7031 19.4378 21.7009 17.8461 21.2041 17.742C20.6514 17.6253 20.2138 17.8795 19.827 18.102C19.4294 18.3311 19.0868 18.5294 18.655 18.3728C16.4419 17.4695 14.8615 15.8895 13.9612 13.6854C13.802 13.247 13.9996 12.9029 14.2288 12.5054C14.4514 12.1195 14.7023 11.6812 14.5881 11.1287C14.4847 10.6321 12.8935 8.63044 12.4192 8.16794C12.1057 7.86295 11.7856 7.69462 11.4581 7.66712C10.2219 7.61545 8.69479 9.39542 8.45223 9.78625C7.84539 10.6221 7.84956 11.7312 8.46306 13.0779C9.94014 16.6945 15.5867 22.341 19.246 23.8627C19.9204 24.176 20.5381 24.3327 21.0924 24.3327C21.6359 24.3327 22.1185 24.1819 22.5336 23.8835C22.8462 23.7052 24.7109 22.1236 24.6659 20.8644C24.6392 20.5427 24.4708 20.2227 24.1657 19.9111Z" fill="#1890FF"/>
</svg>
