<svg width="54" height="53" viewBox="0 0 54 53" fill="none" xmlns="http://www.w3.org/2000/svg">
<path d="M27.1746 13.4248C28.0861 13.4248 28.8251 14.1565 28.8251 15.0591V24.8651H38.728C39.6395 24.8651 40.3785 25.5968 40.3785 26.4994C40.3785 27.4021 39.6395 28.1338 38.728 28.1338H28.8251V37.9397C28.8251 38.8424 28.0861 39.5741 27.1746 39.5741C26.2631 39.5741 25.5241 38.8424 25.5241 37.9397V28.1338H15.6212C14.7097 28.1338 13.9707 27.4021 13.9707 26.4994C13.9707 25.5968 14.7097 24.8651 15.6212 24.8651H25.5241V15.0591C25.5241 14.1565 26.2631 13.4248 27.1746 13.4248Z" fill="white"/>
</svg>
