<svg width="24" height="24" viewBox="0 0 24 24" fill="none" xmlns="http://www.w3.org/2000/svg">
<path d="M11.4141 4.96875H12.5859C12.6901 4.96875 12.7422 5.02083 12.7422 5.125V18.875C12.7422 18.9792 12.6901 19.0312 12.5859 19.0312H11.4141C11.3099 19.0312 11.2578 18.9792 11.2578 18.875V5.125C11.2578 5.02083 11.3099 4.96875 11.4141 4.96875Z" fill="#656881"/>
<path d="M5.4375 11.2578H18.5625C18.6667 11.2578 18.7188 11.3099 18.7188 11.4141V12.5859C18.7188 12.6901 18.6667 12.7422 18.5625 12.7422H5.4375C5.33333 12.7422 5.28125 12.6901 5.28125 12.5859V11.4141C5.28125 11.3099 5.33333 11.2578 5.4375 11.2578Z" fill="#656881"/>
</svg>
