<svg width="14" height="16" viewBox="0 0 14 16" fill="none" xmlns="http://www.w3.org/2000/svg">
<path d="M13.9581 3.11078V5.49741C13.9581 7.57538 13.3871 9.61214 12.3062 11.3866C11.2258 13.1614 9.679 14.6045 7.83346 15.5584L6.97903 16L6.1246 15.5584C4.27831 14.6045 2.73156 13.1614 1.65112 11.3866C0.570688 9.61214 0 7.57538 0 5.49741V3.11078L0.636566 2.88872C1.71823 2.51197 2.57266 1.68172 2.9815 0.610905L3.21441 0H10.7429L10.9766 0.610905C11.3854 1.68172 12.2398 2.51197 13.3215 2.88872L13.9581 3.11078Z" fill="#0089FF"/>
<path d="M13.9575 3.11078V5.49741C13.9575 7.57538 13.3866 9.61214 12.3057 11.3866C11.2252 13.1614 9.67849 14.6045 7.83294 15.5584L6.97852 16V0H10.7424L10.976 0.610905C11.3849 1.68172 12.2393 2.51197 13.321 2.88872L13.9575 3.11078Z" fill="#4B5BE7"/>
</svg>
