<svg width="32" height="32" viewBox="0 0 32 32" fill="none" xmlns="http://www.w3.org/2000/svg">
<path d="M7.5917 16L3.06503 4.36005C2.75036 3.55071 3.5397 2.77605 4.32103 3.05205L4.44503 3.10405L28.445 15.104C28.5998 15.1813 28.7319 15.2975 28.8283 15.4411C28.9248 15.5847 28.9824 15.7509 28.9954 15.9234C29.0084 16.0959 28.9765 16.2688 28.9027 16.4253C28.8289 16.5817 28.7158 16.7164 28.5744 16.816L28.445 16.8934L4.44503 28.8934C3.6677 29.2814 2.82236 28.5667 3.02503 27.7627L3.06503 27.636L7.5917 16L3.06503 4.36005L7.5917 16ZM5.86903 6.05338L9.34903 15H18.185C18.4267 15.0001 18.6602 15.0876 18.8423 15.2464C19.0244 15.4052 19.1428 15.6246 19.1757 15.864L19.185 16C19.185 16.2419 19.0973 16.4755 18.9382 16.6577C18.7791 16.8398 18.5593 16.9581 18.3197 16.9907L18.185 17H9.34636L5.8677 25.9467L25.7624 16L5.8677 6.05338H5.86903Z" fill="white"/>
</svg>
