<svg width="24" height="24" viewBox="0 0 24 24" fill="none" xmlns="http://www.w3.org/2000/svg">
<circle cx="12" cy="12" r="12" fill="white"/>
<path d="M21.1659 6.4033C20.4841 6.69776 19.7576 6.89294 19.0002 6.98771C19.7794 6.52966 20.3741 5.80986 20.6537 4.94227C19.9272 5.36874 19.1251 5.66997 18.2703 5.83807C17.5805 5.11489 16.5974 4.66699 15.5249 4.66699C13.4441 4.66699 11.7689 6.32997 11.7689 8.36863C11.7689 8.66197 11.7941 8.94402 11.856 9.21253C8.73127 9.06248 5.96637 7.58792 4.10898 5.34166C3.78471 5.89561 3.5945 6.52966 3.5945 7.21222C3.5945 8.49386 4.26481 9.62997 5.26398 10.2877C4.66012 10.2764 4.06773 10.1038 3.56585 9.83191C3.56585 9.8432 3.56585 9.85786 3.56585 9.87253C3.56585 11.6709 4.86867 13.1646 6.5771 13.5087C6.27117 13.5911 5.93773 13.6306 5.59169 13.6306C5.35106 13.6306 5.10814 13.617 4.88012 13.5674C5.3671 15.0329 6.74898 16.1104 8.3921 16.1454C7.11335 17.1303 5.48971 17.7237 3.732 17.7237C3.42377 17.7237 3.12814 17.7102 2.83252 17.6729C4.49742 18.7301 6.47054 19.3337 8.59835 19.3337C15.5146 19.3337 19.2959 13.6926 19.2959 8.80299C19.2959 8.6394 19.2901 8.48145 19.2821 8.32463C20.028 7.8034 20.6548 7.15243 21.1659 6.4033Z" fill="#03A9F4"/>
</svg>
