<svg width="16" height="16" viewBox="0 0 16 16" fill="none" xmlns="http://www.w3.org/2000/svg">
<mask id="mask0_4574_55176" style="mask-type:alpha" maskUnits="userSpaceOnUse" x="0" y="0" width="16" height="16">
<rect width="16" height="16" fill="#D9D9D9"/>
</mask>
<g mask="url(#mask0_4574_55176)">
</g>
<g clip-path="url(#clip0_4574_55176)">
<path d="M8.515 2.93584L3.02 2.10084C2.765 2.06084 2.505 2.13084 2.31 2.29584C2.115 2.46584 2 2.71084 2 2.96584V13.5008C2 13.7758 2.225 14.0008 2.5 14.0008H4.125V11.3758C4.125 10.8908 4.515 10.5008 5 10.5008H6.25C6.735 10.5008 7.125 10.8908 7.125 11.3758V14.0008H9.25V3.80084C9.25 3.37084 8.94 3.00584 8.515 2.93584ZM4.75 9.37585H4C3.793 9.37585 3.625 9.20785 3.625 9.00085C3.625 8.79385 3.793 8.62585 4 8.62585H4.75C4.957 8.62585 5.125 8.79385 5.125 9.00085C5.125 9.20785 4.957 9.37585 4.75 9.37585ZM4.75 7.87585H4C3.793 7.87585 3.625 7.70785 3.625 7.50085C3.625 7.29385 3.793 7.12585 4 7.12585H4.75C4.957 7.12585 5.125 7.29385 5.125 7.50085C5.125 7.70785 4.957 7.87585 4.75 7.87585ZM4.75 6.37585H4C3.793 6.37585 3.625 6.20785 3.625 6.00085C3.625 5.79385 3.793 5.62585 4 5.62585H4.75C4.957 5.62585 5.125 5.79385 5.125 6.00085C5.125 6.20785 4.957 6.37585 4.75 6.37585ZM4.75 4.87584H4C3.793 4.87584 3.625 4.70784 3.625 4.50084C3.625 4.29384 3.793 4.12584 4 4.12584H4.75C4.957 4.12584 5.125 4.29384 5.125 4.50084C5.125 4.70784 4.957 4.87584 4.75 4.87584ZM7.25 9.37585H6.5C6.293 9.37585 6.125 9.20785 6.125 9.00085C6.125 8.79385 6.293 8.62585 6.5 8.62585H7.25C7.457 8.62585 7.625 8.79385 7.625 9.00085C7.625 9.20785 7.457 9.37585 7.25 9.37585ZM7.25 7.87585H6.5C6.293 7.87585 6.125 7.70785 6.125 7.50085C6.125 7.29385 6.293 7.12585 6.5 7.12585H7.25C7.457 7.12585 7.625 7.29385 7.625 7.50085C7.625 7.70785 7.457 7.87585 7.25 7.87585ZM7.25 6.37585H6.5C6.293 6.37585 6.125 6.20785 6.125 6.00085C6.125 5.79385 6.293 5.62585 6.5 5.62585H7.25C7.457 5.62585 7.625 5.79385 7.625 6.00085C7.625 6.20785 7.457 6.37585 7.25 6.37585ZM7.25 4.87584H6.5C6.293 4.87584 6.125 4.70784 6.125 4.50084C6.125 4.29384 6.293 4.12584 6.5 4.12584H7.25C7.457 4.12584 7.625 4.29384 7.625 4.50084C7.625 4.70784 7.457 4.87584 7.25 4.87584Z" fill="#656881"/>
<path d="M13.31 7.42128L9.75 6.67578V14.0003H13.125C13.6075 14.0003 14 13.6078 14 13.1253V8.27628C14 7.86328 13.7185 7.51178 13.31 7.42128ZM12.125 12.5003H11.375C11.168 12.5003 11 12.3323 11 12.1253C11 11.9183 11.168 11.7503 11.375 11.7503H12.125C12.332 11.7503 12.5 11.9183 12.5 12.1253C12.5 12.3323 12.332 12.5003 12.125 12.5003ZM12.125 11.0003H11.375C11.168 11.0003 11 10.8323 11 10.6253C11 10.4183 11.168 10.2503 11.375 10.2503H12.125C12.332 10.2503 12.5 10.4183 12.5 10.6253C12.5 10.8323 12.332 11.0003 12.125 11.0003ZM12.125 9.50028H11.375C11.168 9.50028 11 9.33228 11 9.12528C11 8.91828 11.168 8.75028 11.375 8.75028H12.125C12.332 8.75028 12.5 8.91828 12.5 9.12528C12.5 9.33228 12.332 9.50028 12.125 9.50028Z" fill="#656881"/>
</g>
<defs>
<clipPath id="clip0_4574_55176">
<rect width="12" height="12" fill="white" transform="translate(2 2)"/>
</clipPath>
</defs>
</svg>
