<svg width="12" height="14" viewBox="0 0 12 14" fill="none" xmlns="http://www.w3.org/2000/svg">
<path d="M6.00033 0.332031C3.39292 0.332031 0.666992 2.30305 0.666992 5.54942C0.666992 8.62189 5.40773 13.3175 5.58551 13.4915C5.70403 13.6074 5.82255 13.6654 6.00033 13.6654C6.1781 13.6654 6.29662 13.6074 6.41514 13.4915C6.59292 13.3175 11.3337 8.62189 11.3337 5.54942C11.3337 2.30305 8.60773 0.332031 6.00033 0.332031ZM6.00033 7.28855C4.99292 7.28855 4.22255 6.53493 4.22255 5.54942C4.22255 4.56392 4.99292 3.81029 6.00033 3.81029C7.00773 3.81029 7.7781 4.56392 7.7781 5.54942C7.7781 6.53493 7.00773 7.28855 6.00033 7.28855Z" fill="#656881"/>
</svg>
