<svg width="16" height="16" viewBox="0 0 16 16" fill="none" xmlns="http://www.w3.org/2000/svg">
<mask id="mask0_4574_55184" style="mask-type:alpha" maskUnits="userSpaceOnUse" x="0" y="0" width="16" height="16">
<rect width="16" height="16" fill="#D9D9D9"/>
</mask>
<g mask="url(#mask0_4574_55184)">
<path d="M7.35938 15.1328H8.29688V13.8203C10.1328 13.6797 11.6719 12.625 11.6719 10.75V10.7422C11.6719 9.09375 10.5469 8.26562 8.53906 7.78125L8.29688 7.72656V4.14062C9.35156 4.27344 10.0859 4.92188 10.1953 5.90625L10.2031 5.97656H11.5625L11.5547 5.85938C11.4453 4.21875 10.0938 3.07031 8.29688 2.90625V1.59375H7.35938V2.91406C5.51562 3.08594 4.1875 4.21875 4.1875 5.89062V5.89844C4.1875 7.44531 5.23438 8.3125 7.17969 8.78125L7.35938 8.82812V12.5859C6.01562 12.4375 5.4375 11.6797 5.28125 10.7812L5.26562 10.6875H3.90625L3.91406 10.7969C4.03906 12.5391 5.50781 13.6484 7.35938 13.8125V15.1328ZM5.54688 5.82812V5.82031C5.54688 5.0625 6.17188 4.30469 7.35938 4.14062V7.5C6.02344 7.17188 5.54688 6.59375 5.54688 5.82812ZM8.34375 9.0625C9.88281 9.4375 10.3125 9.97656 10.3125 10.8281V10.8359C10.3125 11.7422 9.75 12.4844 8.29688 12.6016V9.05469L8.34375 9.0625Z" fill="#656881"/>
</g>
</svg>
